<svg width="43" height="33" viewBox="0 0 43 33" fill="none" xmlns="http://www.w3.org/2000/svg">
<path d="M12.6245 6.18164H10.0952V7.61795H12.6245V6.18164Z" fill="#6E6F71"/>
<path d="M8.83057 6.18164H6.30127V7.61795H8.83057V6.18164Z" fill="#6E6F71"/>
<path d="M16.4185 6.18164H13.8892V7.61795H16.4185V6.18164Z" fill="#6E6F71"/>
<path d="M20.2124 6.18164H17.6831V7.61795H20.2124V6.18164Z" fill="#6E6F71"/>
<path d="M24.0063 6.18164H21.4771V7.61795H24.0063V6.18164Z" fill="#6E6F71"/>
<path d="M12.6245 10.4902H10.0952V11.9266H12.6245V10.4902Z" fill="#6E6F71"/>
<path d="M8.83057 10.4902H6.30127V11.9266H8.83057V10.4902Z" fill="#6E6F71"/>
<path d="M16.4185 10.4902H13.8892V11.9266H16.4185V10.4902Z" fill="#6E6F71"/>
<path d="M20.2124 10.4902H17.6831V11.9266H20.2124V10.4902Z" fill="#6E6F71"/>
<path d="M24.0063 10.4902H21.4771V11.9266H24.0063V10.4902Z" fill="#6E6F71"/>
<path d="M41.3899 15.978C40.5326 14.7346 39.1179 14.0057 37.596 14.0057H31.5514V6.50257C31.5514 4.42313 30.5011 2.51518 28.722 1.42186C27.7789 0.843044 26.6857 0.521484 25.5711 0.521484H6.81574C5.70113 0.521484 4.6294 0.821607 3.66483 1.42186C2.89318 1.91492 2.20727 2.57949 1.7357 3.35124C1.15697 4.2945 0.835449 5.38782 0.835449 6.50257V16.5997C0.835449 17.7144 1.13553 18.8077 1.7357 19.751C2.85031 21.5303 4.73657 22.5808 6.81574 22.5808H8.65912L14.3179 27.6829C14.5751 27.8973 14.8966 27.983 15.261 27.833C15.5825 27.6829 15.7755 27.3828 15.7755 27.0398V22.6022H20.7912V27.5971C20.7912 30.1482 22.8703 32.2062 25.3996 32.2062H37.5746C39.075 32.2062 40.4897 31.4773 41.3471 30.234C41.883 29.4622 42.183 28.5404 42.183 27.5971V18.6148C42.2045 17.6501 41.9258 16.7497 41.3899 15.978ZM14.0392 20.8229V25.0461L9.34504 20.8229H6.81574C4.58653 20.8229 2.74314 19.0864 2.5931 16.8784V6.50257C2.5931 6.41682 2.5931 6.33106 2.5931 6.24531C2.7217 4.12299 4.41505 2.42942 6.53709 2.3008C6.62283 2.3008 6.70856 2.3008 6.7943 2.3008H25.5497C25.6354 2.3008 25.7212 2.3008 25.8069 2.3008C28.0361 2.42942 29.7723 4.2945 29.7723 6.524V14.0272H25.3996C22.8489 14.0272 20.7912 16.1066 20.7912 18.6362V20.8443H14.0392V20.8229ZM22.4202 18.6148C22.4202 16.9641 23.7706 15.6135 25.4211 15.6135H37.596C39.0107 15.6135 40.2325 16.6211 40.5326 17.9931C40.5754 18.2075 40.5969 18.4219 40.5969 18.6362V27.5971C40.5969 27.8115 40.5754 28.0259 40.5326 28.2403C40.2325 29.6123 38.9893 30.6198 37.596 30.6198H25.4211C23.7706 30.6198 22.4202 29.2693 22.4202 27.6186V18.6148Z" fill="#6E6F71"/>
<path d="M38.6891 18.4648H36.6313V19.9012H38.6891V18.4648Z" fill="#6E6F71"/>
<path d="M27.7788 18.4648H25.2495V19.9012H27.7788V18.4648Z" fill="#6E6F71"/>
<path d="M35.3667 18.4648H32.8374V19.9012H35.3667V18.4648Z" fill="#6E6F71"/>
<path d="M31.5728 18.4648H29.0435V19.9012H31.5728V18.4648Z" fill="#6E6F71"/>
</svg>
