<svg width="20" height="18" viewBox="0 0 20 18" fill="none" xmlns="http://www.w3.org/2000/svg">
<path d="M18.0252 17.4412C18.5638 17.4412 19.0681 17.4412 19.5724 17.4412C19.645 17.4412 19.7253 17.4412 19.794 17.46C19.9392 17.4975 20.008 17.5988 19.9965 17.7451C19.9851 17.8914 19.901 17.9777 19.7482 17.9927C19.6947 17.9965 19.6374 17.9965 19.5839 17.9965C14.858 17.9965 10.136 17.9965 5.41008 17.9965C5.35659 17.9965 5.29928 17.9965 5.2458 17.9965C5.03949 17.9927 4.9096 17.8877 4.9096 17.7263C4.9096 17.5613 5.03567 17.445 5.24198 17.445C5.78066 17.4412 6.31934 17.445 6.86184 17.4412C6.91533 17.4412 6.96881 17.4337 7.02994 17.43C7.02994 16.4246 7.02994 15.4266 7.02994 14.4287C6.63262 14.3724 6.23147 14.3312 5.84179 14.2561C2.8351 13.6634 0.481709 11.2061 0.0729222 8.23114C-0.446658 4.48708 1.91819 1.03939 5.66222 0.206542C8.43586 -0.412466 10.8236 0.371611 12.7797 2.40121C12.8829 2.51 12.9822 2.55127 13.1274 2.55127C14.3002 2.54752 15.4769 2.56252 16.6498 2.54377C17.4636 2.52876 18.0366 3.14777 18.0328 3.90183C18.0175 8.32117 18.0252 12.7368 18.0252 17.1561C18.0252 17.2424 18.0252 17.3287 18.0252 17.4412ZM17.4483 17.4337C17.4521 17.3624 17.4559 17.3174 17.4559 17.2687C17.4559 12.7968 17.4559 8.32493 17.4559 3.85681C17.4559 3.38412 17.1732 3.11025 16.688 3.11025C13.9297 3.11025 11.1713 3.11025 8.41294 3.11025C7.87426 3.11025 7.60683 3.37286 7.60683 3.90183C7.60683 8.33993 7.60683 12.778 7.60683 17.2161C7.60683 17.2874 7.60683 17.3587 7.60683 17.4337C8.7606 17.4337 9.89145 17.4337 11.0261 17.4337C11.0261 16.7997 11.0261 16.1807 11.0261 15.5467C10.9383 15.5467 10.8618 15.5467 10.7893 15.5467C10.3308 15.5467 9.87617 15.5504 9.41772 15.5467C9.23051 15.5467 9.10062 15.4341 9.09298 15.2803C9.08534 15.119 9.21523 14.999 9.4139 14.9877C9.45974 14.984 9.50941 14.9877 9.55907 14.9877C10.8542 14.9877 12.1532 14.9877 13.4483 14.9877C14.178 14.9877 14.9077 14.9877 15.6412 14.9877C15.8437 14.9877 15.9698 15.104 15.9698 15.2691C15.9698 15.4341 15.8437 15.5429 15.6374 15.5467C15.3852 15.5504 15.1331 15.5467 14.8809 15.5467C14.6021 15.5467 14.327 15.5467 14.0481 15.5467C14.0481 16.192 14.0481 16.811 14.0481 17.4375C15.1866 17.4337 16.3098 17.4337 17.4483 17.4337ZM1.87235 3.27907C1.0777 4.34076 0.638347 5.55627 0.569579 6.91059C1.52087 6.91059 2.44542 6.91059 3.36232 6.91059C3.37378 6.88433 3.38142 6.86932 3.38142 6.85806C3.40817 5.92392 3.52278 5.00479 3.75201 4.09691C3.76347 4.05565 3.70234 3.96561 3.65649 3.9506C3.07579 3.72551 2.49126 3.51167 1.87235 3.27907ZM3.32412 7.49958C2.43777 7.49958 1.51323 7.49958 0.569579 7.49958C0.642168 8.8614 1.08152 10.0769 1.87999 11.1424C2.52564 10.8872 3.14456 10.6396 3.72144 10.4108C3.58773 9.44289 3.45783 8.47874 3.32412 7.49958ZM7.03758 4.48332C6.1245 4.37828 5.23816 4.27324 4.32889 4.16819C4.09584 5.04981 3.96213 5.96894 3.95831 6.91434C4.99747 6.91434 6.0137 6.91434 7.03758 6.91434C7.03758 6.08524 7.03758 5.27866 7.03758 4.48332ZM3.95449 7.49958C3.96977 8.45248 4.0882 9.36786 4.32889 10.2457C5.24198 10.1407 6.13214 10.0356 7.02994 9.93435C7.02994 9.13901 7.02994 8.32493 7.02994 7.50333C6.00606 7.49958 4.99365 7.49958 3.95449 7.49958ZM4.48553 3.58295C5.34513 3.77053 6.17798 3.87182 7.02612 3.87557C7.02612 2.77261 7.02612 1.69591 7.02612 0.566692C5.53233 1.06565 5.01275 2.30367 4.48553 3.58295ZM7.02994 10.5421C6.17416 10.5459 5.34131 10.6434 4.48553 10.8347C4.63453 11.1836 4.7606 11.5138 4.91724 11.8326C5.23434 12.4704 5.62784 13.0519 6.22383 13.4758C6.4607 13.6446 6.72049 13.7759 7.02994 13.8172C7.02994 12.718 7.02994 11.6376 7.02994 10.5421ZM11.6183 17.43C12.2334 17.43 12.837 17.43 13.4521 17.43C13.4521 16.7997 13.4521 16.1807 13.4521 15.5504C12.837 15.5504 12.2334 15.5504 11.6183 15.5504C11.6183 16.1769 11.6183 16.7922 11.6183 17.43ZM5.42154 0.851811C4.18371 1.19695 3.14456 1.84973 2.24293 2.82513C2.8351 3.05023 3.38142 3.26032 3.93539 3.47415C4.28305 2.47624 4.71858 1.59087 5.42154 0.851811ZM5.41772 13.5584C4.71094 12.8118 4.28305 11.9227 3.93539 10.936C3.37378 11.1536 2.82746 11.3637 2.24675 11.5888C3.14838 12.5642 4.18371 13.217 5.41772 13.5584ZM7.62211 0.58545C7.62211 1.31701 7.62211 2.0148 7.62211 2.72759C8.29451 2.39746 9.00893 2.62255 9.71571 2.52501C9.22287 1.65465 8.69183 0.859314 7.62211 0.58545ZM12.1264 2.54752C11.4425 1.79721 9.76538 0.836805 9.22287 0.874321C9.67369 1.32451 10.0061 1.84973 10.285 2.41246C10.3117 2.46873 10.3843 2.54001 10.434 2.54001C10.9879 2.55127 11.5381 2.54752 12.1264 2.54752Z" fill="white"/>
<path d="M12.531 7.5293C13.5625 7.5293 14.5902 7.5293 15.6217 7.5293C15.7631 7.5293 15.8777 7.55931 15.9427 7.69061C16.0229 7.84818 15.9274 8.03576 15.7402 8.07703C15.6752 8.09203 15.6026 8.08828 15.5377 8.08828C13.5396 8.08828 11.5377 8.08828 9.5396 8.08828C9.50522 8.08828 9.47083 8.08828 9.43645 8.08828C9.2225 8.08078 9.08879 7.96448 9.09261 7.79566C9.10025 7.63434 9.23015 7.5293 9.43645 7.5293C10.468 7.5293 11.4995 7.5293 12.531 7.5293Z" fill="white"/>
<path d="M12.5272 10.0171C13.5281 10.0171 14.5329 10.0171 15.5339 10.0171C15.6026 10.0171 15.6905 9.99461 15.7325 10.0284C15.8242 10.0921 15.9274 10.1784 15.9579 10.2722C15.9962 10.4073 15.9045 10.5161 15.7593 10.5536C15.6867 10.5723 15.6103 10.5686 15.5377 10.5686C13.532 10.5686 11.5262 10.5686 9.52051 10.5686C9.45938 10.5686 9.39825 10.5686 9.33713 10.5573C9.17667 10.5311 9.09262 10.4298 9.09644 10.2797C9.10026 10.1297 9.19195 10.0321 9.35241 10.0171C9.41353 10.0096 9.47466 10.0134 9.53579 10.0134C10.5367 10.0171 11.5339 10.0171 12.5272 10.0171Z" fill="white"/>
<path d="M12.5272 5.60065C11.5301 5.60065 10.5329 5.60065 9.5396 5.60065C9.48612 5.60065 9.42881 5.6044 9.37533 5.60065C9.21105 5.58564 9.11554 5.4881 9.10025 5.33054C9.08497 5.18423 9.21105 5.06042 9.38297 5.04542C9.42881 5.04167 9.47848 5.04542 9.52432 5.04542C11.5301 5.04542 13.5358 5.04542 15.5415 5.04542C15.6026 5.04542 15.6676 5.03792 15.7249 5.04917C15.8739 5.07918 15.9694 5.16922 15.9694 5.32679C15.9694 5.48435 15.8701 5.57064 15.7211 5.60065C15.6638 5.6119 15.5988 5.6044 15.5377 5.6044C14.5329 5.60065 13.5281 5.60065 12.5272 5.60065Z" fill="white"/>
<path d="M12.5311 13.0522C11.5301 13.0522 10.5254 13.0522 9.52442 13.0522C9.46329 13.0522 9.40216 13.0559 9.34104 13.0484C9.19204 13.0259 9.08889 12.9246 9.10799 12.7933C9.12327 12.6958 9.21496 12.5907 9.30283 12.527C9.35632 12.4857 9.45947 12.5007 9.5397 12.5007C11.5378 12.5007 13.5359 12.5007 15.5378 12.5007C15.5836 12.5007 15.6333 12.497 15.6791 12.5045C15.8663 12.5232 15.9848 12.6395 15.9695 12.8008C15.9504 12.9772 15.8396 13.0559 15.6639 13.0559C15.171 13.0559 14.682 13.0559 14.1892 13.0559C13.639 13.0522 13.0851 13.0522 12.5311 13.0522Z" fill="white"/>
</svg>
