<svg width="40" height="39" viewBox="0 0 40 39" fill="none" xmlns="http://www.w3.org/2000/svg">
<path d="M36.5246 3.26466H33.1379V3.02884C33.1379 1.42103 31.8304 0.134766 30.2442 0.134766C28.6366 0.134766 27.3505 1.44246 27.3505 3.02884V3.26466H13.0536V3.02884C13.0536 1.42103 11.7461 0.134766 10.1599 0.134766C8.5523 0.134766 7.2662 1.44246 7.2662 3.02884V3.26466H3.87954C2.27194 3.26466 0.98584 4.57235 0.98584 6.15873V35.6568C0.98584 37.2647 2.29333 38.5723 3.90093 38.5723H36.5246C38.1322 38.5723 39.4397 37.2647 39.4397 35.6568V6.15873C39.4397 4.57235 38.1322 3.26466 36.5246 3.26466ZM29.3869 3.02884C29.3869 2.55722 29.7727 2.17134 30.2657 2.17134C30.7372 2.17134 31.1231 2.55722 31.1231 3.02884V5.53704C31.1231 6.00866 30.7372 6.39454 30.2657 6.39454C29.7941 6.39454 29.3869 6.00866 29.3869 5.53704V3.02884ZM9.28107 3.02884C9.28107 2.55722 9.6669 2.17134 10.1599 2.17134C10.6315 2.17134 11.0173 2.55722 11.0173 3.02884V5.53704C11.0173 6.00866 10.6315 6.39454 10.1599 6.39454C9.68834 6.39454 9.28107 6.00866 9.28107 5.53704V3.02884ZM3.00071 6.15873C3.00071 5.6871 3.38652 5.30122 3.85809 5.30122H7.24474V5.53704C7.24474 7.14485 8.55227 8.43111 10.1384 8.43111C11.746 8.43111 13.0321 7.12342 13.0321 5.53704V5.30122H27.3291V5.53704C27.3291 7.14485 28.6366 8.43111 30.2228 8.43111C31.8304 8.43111 33.1165 7.12342 33.1165 5.53704V5.30122H36.5032C36.9748 5.30122 37.3606 5.6871 37.3606 6.15873V10.1676H2.97925V6.15873H3.00071ZM37.4034 35.6568C37.4034 36.1499 36.9962 36.5572 36.5246 36.5572H3.90093C3.40793 36.5572 3.00071 36.1499 3.00071 35.6568V12.2041H37.382V35.6568H37.4034Z" fill="#6E6F71"/>
<path d="M11.4028 15.5918H8.89502V18.1H11.4028V15.5918Z" fill="#6E6F71"/>
<path d="M16.419 15.5918H13.9111V18.1H16.419V15.5918Z" fill="#6E6F71"/>
<path d="M21.4561 15.5918H18.9482V18.1H21.4561V15.5918Z" fill="#6E6F71"/>
<path d="M26.4717 15.5918H23.9639V18.1H26.4717V15.5918Z" fill="#6E6F71"/>
<path d="M31.5088 15.5918H29.001V18.1H31.5088V15.5918Z" fill="#6E6F71"/>
<path d="M11.4028 20.6074H8.89502V23.1156H11.4028V20.6074Z" fill="#6E6F71"/>
<path d="M16.419 20.6074H13.9111V23.1156H16.419V20.6074Z" fill="#6E6F71"/>
<path d="M21.4561 20.6074H18.9482V23.1156H21.4561V20.6074Z" fill="#6E6F71"/>
<path d="M26.4717 20.6074H23.9639V23.1156H26.4717V20.6074Z" fill="#6E6F71"/>
<path d="M31.5088 20.6074H29.001V23.1156H31.5088V20.6074Z" fill="#6E6F71"/>
<path d="M11.4028 25.6445H8.89502V28.1527H11.4028V25.6445Z" fill="#6E6F71"/>
<path d="M16.419 25.6445H13.9111V28.1527H16.419V25.6445Z" fill="#6E6F71"/>
<path d="M21.4561 25.6445H18.9482V28.1527H21.4561V25.6445Z" fill="#6E6F71"/>
<path d="M26.4717 25.6445H23.9639V28.1527H26.4717V25.6445Z" fill="#6E6F71"/>
<path d="M31.5088 25.6445H29.001V28.1527H31.5088V25.6445Z" fill="#6E6F71"/>
<path d="M11.4028 30.6621H8.89502V33.1703H11.4028V30.6621Z" fill="#6E6F71"/>
<path d="M16.419 30.6621H13.9111V33.1703H16.419V30.6621Z" fill="#6E6F71"/>
<path d="M21.4561 30.6621H18.9482V33.1703H21.4561V30.6621Z" fill="#6E6F71"/>
<path d="M26.4717 30.6621H23.9639V33.1703H26.4717V30.6621Z" fill="#6E6F71"/>
<path d="M31.5088 30.6621H29.001V33.1703H31.5088V30.6621Z" fill="#6E6F71"/>
</svg>
