<svg width="21" height="21" viewBox="0 0 21 21" fill="none" xmlns="http://www.w3.org/2000/svg">
<path d="M19.407 15.8882C18.6817 15.1575 16.925 14.0911 16.0727 13.6613C14.9629 13.1023 14.8715 13.0566 13.9991 13.7047C13.4172 14.1372 13.0304 14.5236 12.3494 14.3784C11.6684 14.2331 10.1885 13.4142 8.89276 12.1227C7.59698 10.8311 6.73055 9.30841 6.58484 8.62974C6.43914 7.95107 6.83194 7.5688 7.26037 6.98558C7.86418 6.1635 7.8185 6.02649 7.30239 4.91668C6.9 4.05349 5.80245 2.31342 5.06892 1.59182C4.28424 0.816781 4.28424 0.953795 3.77862 1.16388C3.36698 1.33703 2.97207 1.54754 2.59886 1.79277C1.86807 2.27826 1.46248 2.68153 1.17885 3.28759C0.895211 3.89364 0.76778 5.31447 2.23255 7.97527C3.69732 10.6361 4.72499 11.9966 6.85204 14.1176C8.97909 16.2385 10.6147 17.379 13.0057 18.7199C15.9636 20.3763 17.0981 20.0535 17.7061 19.7703C18.314 19.4871 18.7191 19.0852 19.2055 18.3545C19.4514 17.9819 19.6624 17.5875 19.8358 17.1762C20.0464 16.6724 20.1834 16.6724 19.407 15.8882Z" stroke="white" stroke-width="1.5" stroke-miterlimit="10"/>
</svg>
