<svg width="15" height="17" viewBox="0 0 15 17" fill="none" xmlns="http://www.w3.org/2000/svg">
<path d="M1.18524 15.4421C1.18524 15.3087 1.18524 15.19 1.18524 15.0719C1.18524 13.3695 1.18524 11.6664 1.18524 9.96405C1.18524 9.87582 1.15614 9.77033 1.19563 9.70266C1.25522 9.60115 1.36331 9.52552 1.45061 9.43861C1.5393 9.52353 1.65431 9.59651 1.70974 9.69802C1.7527 9.77696 1.72291 9.89307 1.72291 9.99258C1.72291 11.6844 1.72291 13.3755 1.72291 15.0672C1.72291 15.186 1.72291 15.3048 1.72291 15.4441C2.77954 15.4441 3.80083 15.4441 4.85469 15.4441C4.86301 15.3306 4.87756 15.2245 4.87756 15.1183C4.87894 13.9022 4.87686 12.6862 4.88102 11.4701C4.88171 11.2943 4.87132 11.1722 4.65099 11.0972C4.24566 10.9592 4.04057 10.591 4.11748 10.2367C4.20478 9.83137 4.52558 9.57727 4.98495 9.57395C5.88569 9.56732 6.78642 9.57196 7.68716 9.57196C8.42645 9.57196 9.16505 9.57063 9.90435 9.57263C10.4282 9.57395 10.7497 9.80018 10.848 10.2281C10.9333 10.5996 10.7192 10.9187 10.2695 11.133C10.1898 11.1709 10.099 11.283 10.0984 11.3619C10.0887 12.6775 10.0921 13.9931 10.0949 15.3087C10.0949 15.3499 10.115 15.391 10.1302 15.4474C11.1598 15.4474 12.1811 15.4474 13.2246 15.4474C13.2246 12.6298 13.2246 9.82739 13.2246 7.00644C13.1421 6.99848 13.0645 6.98454 12.9876 6.98454C11.579 6.98322 10.1704 6.97924 8.7618 6.99051C8.63847 6.99118 8.51652 7.09335 8.39389 7.14841C8.22413 7.22537 8.062 7.3428 7.88393 7.37C7.63658 7.40848 7.37121 7.41246 7.12524 7.36934C6.92707 7.33484 6.74416 7.21277 6.55777 7.12453C6.47394 7.08472 6.39703 6.98985 6.31665 6.98919C4.8055 6.98123 3.29365 6.98322 1.7236 6.98322C1.7236 7.33484 1.7236 7.67187 1.7236 8.0089C1.7236 8.17476 1.7236 8.34062 1.7236 8.50648C1.72291 8.69954 1.72776 8.9198 1.4513 8.91781C1.17346 8.91582 1.18593 8.6929 1.18593 8.50117C1.18593 8.00624 1.18593 7.51198 1.18593 7.03231C1.13189 7.0071 1.11249 6.99051 1.09239 6.98985C0.146623 6.95071 0.00666304 6.81006 0.00666304 5.90048C0.00666304 5.78969 0.00319868 5.67889 0.00804878 5.56876C0.0274492 5.11629 0.299055 4.84893 0.770209 4.84561C1.69381 4.83831 2.61741 4.83898 3.54101 4.84627C3.73085 4.8476 3.84726 4.81244 3.94426 4.62999C4.03433 4.45949 4.20547 4.32547 4.34959 4.1835C4.68217 3.85576 4.68563 3.54328 4.35721 3.22151C4.22002 3.08749 4.06828 2.9621 3.9595 2.80885C3.79113 2.57067 3.84241 2.32255 4.01147 2.09897C4.26229 1.76658 4.31494 1.23782 4.88864 1.21924C5.08819 1.21261 5.29259 1.2962 5.49283 1.34331C5.9529 1.45211 6.23212 1.29886 6.35892 0.860323C6.39287 0.743558 6.41781 0.624139 6.45384 0.508037C6.56886 0.135183 6.75109 -0.00546632 7.19937 0.0210713C7.68023 0.0489358 8.28718 -0.198528 8.51306 0.492114C8.55463 0.618168 8.57958 0.748866 8.61699 0.876246C8.73824 1.29222 9.02579 1.45145 9.46091 1.34596C9.60572 1.3108 9.75122 1.27829 9.89534 1.23915C10.2051 1.15555 10.4365 1.25971 10.6069 1.50917C10.645 1.56423 10.679 1.62262 10.7129 1.67967C11.191 2.47315 11.3628 2.5647 10.5314 3.30709C10.3118 3.50347 10.3332 3.88163 10.5349 4.10123C10.7303 4.3142 10.8938 4.55768 11.1065 4.7514C11.1938 4.83102 11.3753 4.81708 11.5146 4.84229C11.7169 4.87945 12.0481 4.73017 12.0488 5.0818C12.0495 5.42878 11.7169 5.33855 11.5167 5.31732C11.0947 5.2722 10.8418 5.40887 10.6582 5.78504C10.458 6.19372 10.2612 6.23552 9.77617 6.12539C9.46299 6.0544 9.13942 5.87063 8.8394 6.15392C8.75972 6.22888 8.69944 6.32243 8.58443 6.46308C8.77358 6.479 8.87128 6.4936 8.96966 6.49426C10.6436 6.49559 12.3183 6.48962 13.9923 6.50023C14.3166 6.50222 14.4441 6.41531 14.4323 6.08624C14.4025 5.22444 14.5383 5.3339 13.6355 5.32594C13.3812 5.32395 13.1241 5.34651 12.8754 5.31267C12.7763 5.2994 12.6959 5.16274 12.6066 5.08246C12.6952 5.00285 12.7812 4.85954 12.8733 4.8549C13.3569 4.83301 13.8433 4.83367 14.327 4.85291C14.6727 4.86684 14.9311 5.1362 14.9561 5.49114C14.9755 5.76647 14.9755 6.04445 14.9568 6.31978C14.9298 6.71054 14.6387 6.9653 14.2334 6.9799C14.0976 6.98454 13.9611 6.98056 13.8045 6.98056C13.8045 9.81146 13.8045 12.6145 13.8045 15.4633C14.0124 15.4633 14.2161 15.4587 14.4191 15.4653C14.521 15.4686 14.6318 15.4713 14.7219 15.5098C14.9595 15.6113 15.0732 16.1858 14.9498 16.6476C14.8785 16.9149 14.6796 16.9985 14.4018 16.9985C9.79488 16.9945 5.18796 16.9959 0.580362 16.9952C0.166717 16.9952 0.00458442 16.8519 0.00874166 16.4631C0.0156704 15.73 -0.182491 15.3844 0.984999 15.4613C1.03904 15.4653 1.09447 15.4514 1.18524 15.4421ZM4.38215 2.49504C4.61427 2.89642 5.13808 3.07091 5.14778 3.67928C5.15748 4.30557 4.63575 4.49664 4.37453 4.90399C4.43758 5.00815 4.50063 5.11298 4.56369 5.2178C4.89765 5.77111 4.71127 5.70875 5.3979 5.56544C5.59537 5.52431 5.83649 5.43077 5.99239 5.49844C6.41366 5.68221 6.8564 5.89053 6.86749 6.4445C6.86887 6.51881 6.88758 6.60904 6.9347 6.66344C7.01022 6.75101 7.11069 6.87043 7.20977 6.87972C7.96084 6.94673 7.96153 6.93943 8.16108 6.24945C8.17009 6.21761 8.17286 6.18377 8.18187 6.15193C8.29342 5.76978 8.93849 5.41153 9.34104 5.50772C10.1475 5.70079 10.1475 5.70079 10.5473 4.98427C10.5633 4.95574 10.5737 4.92456 10.5848 4.89935C10.3478 4.49332 9.82259 4.32149 9.81913 3.70715C9.81497 3.08285 10.3485 2.89908 10.591 2.48642C10.5168 2.3597 10.4233 2.24094 10.3755 2.10826C10.2383 1.73009 9.98611 1.68631 9.62581 1.81103C9.42627 1.88003 9.1602 1.97424 8.99876 1.90325C8.5969 1.72545 8.18048 1.54499 8.10011 1.00827C8.02528 0.505383 7.97193 0.537891 7.46474 0.503393C7.09198 0.478182 6.9056 0.592294 6.86264 0.945907C6.84739 1.07594 6.80166 1.20399 6.75871 1.32938C6.65893 1.62328 5.97992 1.97689 5.66743 1.90325C4.80827 1.70024 4.80827 1.70024 4.39393 2.46253C4.38839 2.47182 4.38631 2.4831 4.38215 2.49504ZM5.42423 11.1715C5.42423 12.6158 5.42423 14.023 5.42423 15.4421C6.02426 15.4421 6.6042 15.4421 7.18829 15.4421C7.18829 14.0057 7.18829 12.5906 7.18829 11.1715C6.58895 11.1715 6.01733 11.1715 5.42423 11.1715ZM7.78277 11.1702C7.78277 12.6158 7.78277 14.0303 7.78277 15.4454C8.38419 15.4454 8.95581 15.4454 9.54128 15.4454C9.54128 14.0124 9.54128 12.5973 9.54128 11.1702C8.94749 11.1702 8.37518 11.1702 7.78277 11.1702ZM0.565118 16.4757C5.19974 16.4757 9.79626 16.4757 14.4004 16.4757C14.4004 16.2933 14.4004 16.1347 14.4004 15.9629C9.77963 15.9629 5.18311 15.9629 0.565118 15.9629C0.565118 16.138 0.565118 16.2973 0.565118 16.4757ZM6.27439 6.49492C6.29587 6.46507 6.31735 6.43455 6.33883 6.4047C6.26885 6.32044 6.20718 6.22756 6.1275 6.15259C5.81432 5.86001 5.47966 6.06634 5.15886 6.13401C4.7078 6.22888 4.53805 6.17117 4.30178 5.79035C4.25467 5.71472 4.19993 5.64174 4.16598 5.5608C4.0856 5.3684 3.94357 5.31798 3.73362 5.3213C2.9389 5.33258 2.14348 5.32196 1.34876 5.32661C0.42793 5.33191 0.565118 5.21448 0.536711 6.1015C0.52701 6.41398 0.64757 6.50222 0.956591 6.49957C2.23563 6.48895 3.51468 6.49492 4.79303 6.49492C5.28705 6.49492 5.78106 6.49492 6.27439 6.49492ZM7.48345 10.0848C6.67625 10.0848 5.86906 10.0855 5.06186 10.0841C4.85261 10.0835 4.6503 10.1007 4.64267 10.3608C4.63505 10.6209 4.83599 10.6587 5.04593 10.6587C6.6714 10.6607 8.29758 10.6607 9.92306 10.6587C10.133 10.6587 10.3332 10.6189 10.3249 10.3595C10.3166 10.0994 10.1136 10.0835 9.90435 10.0835C9.09715 10.0855 8.28996 10.0848 7.48345 10.0848Z" fill="white"/>
<path d="M2.01876 12.6692C2.01876 12.3939 2.01114 12.1179 2.02014 11.8432C2.03123 11.5035 2.18089 11.3602 2.52871 11.3562C3.01164 11.3509 3.49527 11.3589 3.9782 11.3536C4.31217 11.3496 4.46945 11.5234 4.47499 11.8193C4.48608 12.3919 4.48538 12.9651 4.47499 13.5376C4.46945 13.8402 4.28861 14.002 3.97058 14.0047C3.48765 14.0087 3.00402 14.0113 2.52109 14.0034C2.20445 13.9987 2.03192 13.8295 2.02153 13.5283C2.01114 13.2424 2.01945 12.9558 2.01876 12.6692ZM2.57652 11.8578C2.57652 12.4104 2.57652 12.9352 2.57652 13.4706C3.03936 13.4706 3.48141 13.4706 3.93247 13.4706C3.93247 12.9246 3.93247 12.3998 3.93247 11.8578C3.48003 11.8578 3.04629 11.8578 2.57652 11.8578Z" fill="white"/>
<path d="M12.9488 12.6559C12.9488 12.9213 12.9523 13.1867 12.9481 13.4521C12.9412 13.8442 12.7846 14.0014 12.3862 14.006C11.9359 14.012 11.4855 14.012 11.0351 14.006C10.6617 14.0007 10.4982 13.8581 10.4912 13.5071C10.4794 12.9545 10.4794 12.4012 10.4905 11.8485C10.4982 11.4896 10.6513 11.3596 11.031 11.3563C11.4931 11.3529 11.9546 11.3523 12.4167 11.3563C12.7895 11.3596 12.9364 11.4982 12.9475 11.8591C12.9551 12.1245 12.9488 12.3906 12.9488 12.6559ZM12.3959 11.8598C11.9192 11.8598 11.4855 11.8598 11.0421 11.8598C11.0421 12.4118 11.0421 12.9445 11.0421 13.4647C11.5118 13.4647 11.9546 13.4647 12.3959 13.4647C12.3959 12.9187 12.3959 12.4018 12.3959 11.8598Z" fill="white"/>
<path d="M7.49455 4.99179C6.71161 4.99644 6.13652 4.46237 6.12266 3.71732C6.10881 3.01009 6.72824 2.40703 7.47307 2.40238C8.24909 2.39708 8.82833 2.93712 8.84427 3.67951C8.85951 4.3874 8.24285 4.98715 7.49455 4.99179ZM7.49317 2.90063C7.03102 2.89731 6.65756 3.24761 6.65133 3.68946C6.64509 4.16581 6.99984 4.50814 7.49109 4.50018C7.94838 4.49288 8.31699 4.13065 8.31561 3.69078C8.31422 3.22903 7.97679 2.90461 7.49317 2.90063Z" fill="white"/>
</svg>
