<svg width="38" height="45" viewBox="0 0 38 45" fill="none" xmlns="http://www.w3.org/2000/svg">
<g clip-path="url(#clip0_855_1530)">
<path d="M18.9606 0C20.1005 0.0487541 21.0807 0.428245 21.8488 1.11739C23.6012 2.68674 25.627 3.39829 27.9329 3.68423C30.3997 3.98993 31.5684 5.1508 31.872 7.63594C32.1586 9.98404 32.9634 11.9737 34.437 13.829C36.0061 15.8055 35.9603 17.6477 34.3663 19.6703C32.9909 21.4149 32.1978 23.2715 31.9165 25.4931C31.5487 28.3999 30.2885 29.5147 27.2929 29.8388C25.449 30.0378 23.8851 30.6663 22.4273 31.8377C19.7982 33.9513 18.0982 33.9434 15.4507 31.818C14.0112 30.6624 12.4748 29.9548 10.6427 29.8546C10.2121 29.8309 9.78417 29.7057 9.36016 29.6069C7.617 29.2037 6.5295 28.1206 6.13166 26.3667C5.972 25.6618 5.83982 24.9463 5.76785 24.2268C5.64091 22.9394 5.16847 21.8247 4.36626 20.814C3.82447 20.1315 3.31932 19.4054 2.89661 18.6425C2.15852 17.3116 2.20825 15.9373 2.9542 14.6223C3.33109 13.9582 3.76165 13.3151 4.24586 12.7261C5.13707 11.6417 5.69064 10.4386 5.7757 9.02609C5.7914 8.76387 5.85029 8.50561 5.88563 8.24471C6.29393 5.1956 7.48221 3.90955 10.517 3.57091C12.4526 3.35481 14.129 2.7355 15.6039 1.44154C16.567 0.598225 17.6951 0.00790606 18.9606 0ZM18.9292 31.6005C19.6516 31.5202 20.2575 31.3001 21.4824 30.2552C23.0424 28.9243 24.8104 28.2563 26.827 28.0428C29.3894 27.7714 29.9391 27.2232 30.2165 24.659C30.4403 22.585 31.0829 20.735 32.4844 19.1709C32.7737 18.8481 32.9935 18.4593 33.2317 18.093C33.8494 17.1443 33.8324 16.1877 33.2081 15.2574C32.7567 14.5854 32.2751 13.9331 31.7869 13.2861C31.075 12.34 30.6078 11.2951 30.4416 10.1145C30.3278 9.31071 30.1995 8.50956 30.0647 7.70841C29.8553 6.45794 29.129 5.7174 27.8818 5.50394C27.6031 5.4565 27.3257 5.38403 27.0443 5.36426C24.8876 5.21405 23.024 4.43135 21.3398 3.03066C19.3781 1.39937 18.5287 1.40069 16.5618 3.03725C14.8762 4.44057 13.0061 5.20746 10.8547 5.36558C10.6387 5.38139 10.4241 5.43015 10.2108 5.47231C8.62338 5.79383 8.1143 6.30904 7.80545 7.91133C7.75572 8.1696 7.70207 8.42918 7.68244 8.6914C7.52802 10.7694 6.7873 12.5706 5.45377 14.1967C3.75641 16.2654 3.75903 17.0784 5.43937 19.1683C6.72056 20.7613 7.4351 22.5072 7.6759 24.5365C8.00699 27.322 8.44671 27.7411 11.2146 28.0613C13.1357 28.2839 14.854 28.8861 16.3197 30.1867C16.7411 30.5609 17.2253 30.8771 17.7187 31.1512C18.0916 31.3581 18.5235 31.4543 18.9292 31.6005Z" fill="#5C5C5C"/>
<path d="M27.4579 42.0833C28.1568 40.6642 28.7915 39.3742 29.4275 38.0829C30.0177 36.8851 30.0622 36.8601 31.3944 37.0353C32.6665 37.2027 33.9372 37.3753 35.3152 37.5611C35.17 37.2844 35.0784 37.0959 34.975 36.9141C33.7775 34.8229 32.5775 32.7331 31.3787 30.6433C31.3028 30.5102 31.2217 30.3797 31.1523 30.2427C30.871 29.6919 30.9704 29.1833 31.4101 28.9105C31.8773 28.6206 32.4126 28.7695 32.7371 29.323C33.4896 30.6077 34.2225 31.9056 34.9645 33.1969C35.8806 34.7926 36.7914 36.3923 37.714 37.9841C37.9587 38.4057 38.1825 38.8932 37.786 39.2451C37.5086 39.4915 37.0034 39.618 36.6226 39.5784C34.9318 39.4058 33.2462 39.1713 31.5659 38.9156C31.1772 38.8564 31.0228 38.9776 30.8697 39.2965C30.0897 40.9159 29.2901 42.5234 28.5036 44.1402C28.2955 44.5672 28.0835 44.9822 27.5365 45.0007C26.9894 45.0191 26.7512 44.6317 26.5222 44.2074C24.8249 41.0661 23.1171 37.9287 21.4145 34.79C21.3202 34.6174 21.2208 34.4448 21.1488 34.2616C20.9617 33.7846 21.0912 33.3722 21.5205 33.1258C21.972 32.8688 22.413 32.9532 22.7323 33.3946C22.8723 33.5883 22.9757 33.8096 23.0909 34.0218C24.52 36.6611 25.949 39.2991 27.4579 42.0833Z" fill="#5C5C5C"/>
<path d="M2.45121 37.3592C4.03602 37.2616 5.52922 37.1852 7.01849 37.0732C8.79044 36.9401 8.78913 36.927 9.46441 38.5661C9.88187 39.5794 10.298 40.5927 10.7181 41.6047C10.7325 41.639 10.7757 41.6627 10.8699 41.7523C10.9956 41.5191 11.1199 41.303 11.2324 41.0803C12.3723 38.8336 13.5108 36.5857 14.6507 34.339C14.6703 34.2995 14.6886 34.26 14.7096 34.2218C15.0289 33.6407 15.5066 33.4457 15.9986 33.6934C16.4868 33.9398 16.6359 34.4563 16.3415 35.0493C15.4516 36.8334 14.5447 38.6096 13.6443 40.3872C12.9913 41.6772 12.333 42.9646 11.6865 44.2585C11.4785 44.6762 11.218 45.0188 10.7076 44.9977C10.2012 44.9766 9.96432 44.6288 9.78765 44.1887C9.14247 42.5824 8.46981 40.9854 7.82594 39.3792C7.68592 39.03 7.53149 38.8784 7.11141 38.9114C5.11175 39.0669 3.10948 39.1973 1.1059 39.279C0.765641 39.2935 0.274888 39.1262 0.108686 38.8732C-0.0562069 38.6202 -0.0221813 38.0891 0.13486 37.7914C1.66732 34.8595 3.24165 31.9501 4.81076 29.038C5.12484 28.4556 5.62868 28.2817 6.11289 28.5465C6.58925 28.8061 6.72535 29.3345 6.41781 29.9103C5.21383 32.1728 3.99676 34.4286 2.78624 36.6885C2.68547 36.8756 2.59517 37.0706 2.45121 37.3592Z" fill="#5C5C5C"/>
<path d="M7.69741 16.6851C7.73013 10.3549 12.7868 5.31878 19.0593 5.36754C25.2533 5.41497 30.238 10.5144 30.2066 16.7694C30.1752 22.9967 25.0962 28.0593 18.9101 28.0303C12.7123 28.0013 7.666 22.8953 7.69741 16.6851ZM28.3823 16.7365C28.3876 11.4802 24.1619 7.2057 18.9612 7.20702C13.7749 7.20833 9.53872 11.4486 9.52301 16.6548C9.50862 21.8952 13.7422 26.1816 18.9442 26.1908C24.1069 26.2 28.3771 21.9228 28.3823 16.7365Z" fill="#5C5C5C"/>
<path d="M18.1229 17.9955C19.3399 16.7582 20.5047 15.575 21.6694 14.3917C22.0999 13.9555 22.5305 13.5194 22.9637 13.0872C23.6023 12.4494 24.0996 12.3572 24.5406 12.7881C24.9829 13.2203 24.8966 13.75 24.2776 14.3732C22.643 16.019 21.0085 17.6648 19.374 19.3106C19.2195 19.4661 19.069 19.6242 18.9107 19.7757C18.344 20.3199 17.8925 20.3265 17.3311 19.7704C16.3365 18.7848 15.3498 17.7913 14.3683 16.7925C13.8893 16.305 13.8487 15.7239 14.2453 15.3457C14.6339 14.9728 15.2032 15.0334 15.6861 15.5196C16.487 16.3221 17.2775 17.1338 18.1229 17.9955Z" fill="#5C5C5C"/>
</g>
<defs>
<clipPath id="clip0_855_1530">
<rect width="38" height="45" fill="white"/>
</clipPath>
</defs>
</svg>
