<svg width="25" height="25" viewBox="0 0 25 25" fill="none" xmlns="http://www.w3.org/2000/svg">
<g clip-path="url(#clip0_249_826)">
<path d="M22.9367 8.28672C22.2296 8.47869 21.8117 9.20753 22.0036 9.91471C22.2309 10.7524 22.3461 11.6224 22.3461 12.4999C22.3461 15.1299 21.3219 17.6025 19.4623 19.4623C17.6028 21.3221 15.1299 22.3464 12.4999 22.3464C9.86979 22.3464 7.3972 21.3221 5.5374 19.4626C3.67761 17.6031 2.6536 15.1299 2.6536 12.4999C2.6536 9.86979 3.67788 7.3972 5.5374 5.5374C7.3972 3.67761 9.86979 2.6536 12.4999 2.6536C13.8158 2.6536 15.0928 2.9084 16.2954 3.41131C16.9713 3.69392 17.7485 3.37522 18.0314 2.69905C18.314 2.02289 17.9953 1.24592 17.3191 0.96305C15.7906 0.324047 14.1693 0 12.4999 0C10.8131 0 9.17571 0.330731 7.63382 0.982835C6.14513 1.61248 4.80857 2.5135 3.66103 3.66103C2.5135 4.80857 1.61248 6.14513 0.982835 7.63382C0.330731 9.17598 0 10.8131 0 12.4999C0 14.1867 0.330731 15.824 0.982835 17.3659C1.61248 18.8546 2.5135 20.1912 3.66103 21.3387C4.80857 22.4862 6.14513 23.3873 7.63382 24.0169C9.17571 24.669 10.8128 24.9997 12.4999 24.9997C14.1867 24.9997 15.824 24.669 17.3659 24.0169C18.8546 23.3873 20.1912 22.4862 21.3387 21.3387C22.4862 20.1912 23.3873 18.8546 24.0169 17.3659C24.669 15.824 24.9997 14.1869 24.9997 12.4999C24.9997 11.3876 24.8535 10.2839 24.5647 9.21983C24.373 8.51265 23.6445 8.09502 22.9367 8.28672Z" fill="url(#paint0_linear_249_826)"/>
<path d="M8.35678 10.9597C7.83863 10.4415 6.99857 10.4415 6.48041 10.9597C5.96226 11.4778 5.96226 12.3179 6.48041 12.8361L10.912 17.2676C11.1614 17.5171 11.4991 17.6561 11.8502 17.6561C11.8748 17.6561 11.8991 17.6553 11.9237 17.654C12.3007 17.6331 12.6507 17.4527 12.8865 17.1578L22.3587 5.31079C22.8162 4.73836 22.7234 3.90365 22.151 3.44592C21.5785 2.98819 20.7438 3.08123 20.2861 3.65366L11.7398 14.3429L8.35678 10.9597Z" fill="url(#paint1_linear_249_826)"/>
</g>
<defs>
<linearGradient id="paint0_linear_249_826" x1="22.5821" y1="1.55647" x2="8.43871" y2="16.9081" gradientUnits="userSpaceOnUse">
<stop stop-color="#B4E06A"/>
<stop offset="1" stop-color="#77DF68"/>
</linearGradient>
<linearGradient id="paint1_linear_249_826" x1="21.8364" y1="0.869256" x2="7.69297" y2="16.2209" gradientUnits="userSpaceOnUse">
<stop stop-color="#B4E06A"/>
<stop offset="1" stop-color="#77DF68"/>
</linearGradient>
<clipPath id="clip0_249_826">
<rect width="25" height="25" fill="white"/>
</clipPath>
</defs>
</svg>
