<svg width="27" height="27" viewBox="0 0 27 27" fill="none" xmlns="http://www.w3.org/2000/svg">
<g clip-path="url(#clip0_249_858)">
<path d="M25.9382 8.24481C25.2582 6.63702 24.2851 5.19354 23.0458 3.95421C21.8065 2.71458 20.363 1.74148 18.7552 1.06146C17.0899 0.357189 15.3219 0 13.4999 0C11.6778 0 9.90977 0.357189 8.24452 1.06146C6.63674 1.74148 5.19325 2.71458 3.95392 3.95392C2.71458 5.19325 1.74148 6.63674 1.06146 8.24452C0.357189 9.91006 0 11.6781 0 13.4999C0 15.3216 0.357189 17.0897 1.06146 18.7549C1.74148 20.3627 2.71458 21.8062 3.95392 23.0455C5.19325 24.2848 6.63674 25.2579 8.24452 25.938C9.90977 26.6422 11.6778 26.9994 13.4999 26.9994C15.3216 26.9994 17.0899 26.6422 18.7552 25.938C20.363 25.2579 21.8065 24.2848 23.0458 23.0455C24.2851 21.8062 25.2582 20.3627 25.9382 18.7549C26.6425 17.0897 26.9997 15.3216 26.9997 13.4996C26.9997 11.6775 26.6428 9.91006 25.9382 8.24481ZM21.0193 21.0193C19.0107 23.0279 16.3403 24.1341 13.4999 24.1341C10.6594 24.1341 7.98869 23.0279 5.9804 21.0196C3.97211 19.0107 2.86589 16.3403 2.86589 13.4999C2.86589 10.6594 3.97211 7.98897 5.9804 5.9804C7.98897 3.97182 10.6594 2.86589 13.4999 2.86589C16.3403 2.86589 19.0107 3.97211 21.0193 5.9804C23.0279 7.98897 24.1338 10.6594 24.1338 13.4999C24.1338 16.3403 23.0279 19.0107 21.0193 21.0193Z" fill="url(#paint0_linear_249_858)"/>
<path d="M19.8389 7.3189C19.2865 6.75236 18.3792 6.74081 17.8124 7.2932L13.4998 11.4983L9.18701 7.2932C8.62047 6.74081 7.7132 6.75207 7.16081 7.3189C6.60843 7.88544 6.61969 8.7927 7.18651 9.34538L11.4474 13.5L7.18622 17.6543C6.61969 18.2067 6.60814 19.1139 7.16053 19.6808C7.44119 19.9687 7.81369 20.1133 8.18647 20.1133C8.54713 20.1133 8.90807 19.9779 9.18672 19.7065L13.4996 15.5013L17.8124 19.7065C18.091 19.9782 18.452 20.1133 18.8126 20.1133C19.1854 20.1133 19.5579 19.9687 19.8389 19.6808C20.3913 19.1142 20.38 18.207 19.8132 17.6543L15.5523 13.4997L19.8132 9.34509C20.38 8.7927 20.3916 7.88544 19.8389 7.3189Z" fill="url(#paint1_linear_249_858)"/>
</g>
<defs>
<linearGradient id="paint0_linear_249_858" x1="26.681" y1="0.863917" x2="6.26328" y2="20.4373" gradientUnits="userSpaceOnUse">
<stop stop-color="#FD8047"/>
<stop offset="1" stop-color="#DF324E"/>
</linearGradient>
<linearGradient id="paint1_linear_249_858" x1="26.6809" y1="0.863714" x2="6.26323" y2="20.4371" gradientUnits="userSpaceOnUse">
<stop stop-color="#FD8047"/>
<stop offset="1" stop-color="#DF324E"/>
</linearGradient>
<clipPath id="clip0_249_858">
<rect width="27" height="27" fill="white"/>
</clipPath>
</defs>
</svg>
