<svg width="99" height="84" viewBox="0 0 99 84" fill="none" xmlns="http://www.w3.org/2000/svg">
<path d="M20.2532 5.13383e-06C14.7523 5.61649e-06 10.0016 1.8822 6.00094 5.64657C2.00031 9.66189 -4.80901e-07 14.4301 0 19.9512C1.15853e-06 33.2519 3.25051 45.9253 9.75153 57.9713C16.5026 70.0173 24.6289 78.4243 34.1303 83.1925L40.1313 79.4282C30.1297 69.8918 23.6287 56.9674 20.6282 40.6552C26.1291 40.6552 30.7548 38.6475 34.5054 34.6322C38.506 30.6169 40.5063 25.8487 40.5063 20.3276C40.5063 14.5556 38.506 9.66189 34.5054 5.64657C30.7548 1.88219 26.0041 4.62922e-06 20.2532 5.13383e-06ZM78.7623 0C73.2614 4.82668e-07 68.3857 1.88219 64.135 5.64657C60.1344 9.66189 58.1341 14.4301 58.1341 19.9512C58.1341 33.001 61.2596 45.4234 67.5106 57.2184C73.7615 69.2644 82.0128 77.9224 92.2644 83.1925L98.2654 79.4282C88.7639 69.8918 82.1378 56.9674 78.3873 40.6552C83.8881 40.6552 88.6388 38.6475 92.6395 34.6322C96.6401 30.6169 98.6404 25.8487 98.6404 20.3276C98.6404 14.5556 96.6401 9.66189 92.6395 5.64657C88.8889 1.88219 84.2632 -4.82668e-07 78.7623 0Z" fill="#202444" fill-opacity="0.5"/>
</svg>
