<svg width="15" height="15" viewBox="0 0 15 15" fill="none" xmlns="http://www.w3.org/2000/svg">
<g clip-path="url(#clip0_1442_546)">
<path d="M11.3664 15.0001C10.3356 15.0001 9.46837 14.7315 8.63087 14.3538C7.28543 13.7469 6.09804 12.9113 5.00743 11.9419C3.5506 10.6469 2.26987 9.20834 1.28291 7.53659C0.755498 6.64326 0.321429 5.70977 0.11327 4.69233C-0.104909 3.62636 -0.0281741 2.58995 0.528442 1.6255C0.671605 1.37756 0.864301 1.15193 1.06158 0.939959C1.26573 0.720183 1.49393 0.519094 1.72757 0.328323C2.19629 -0.0543325 2.72284 -0.104256 3.25454 0.187756C3.4564 0.298481 3.65339 0.431518 3.81946 0.587704C4.43077 1.16252 5.01745 1.76133 5.52167 2.42986C5.82317 2.82953 6.06454 3.26016 6.14729 3.75968C6.21343 4.1599 6.15731 4.53977 5.92653 4.88198C5.78795 5.08726 5.63104 5.2811 5.48101 5.47912C5.05696 6.03832 5.03463 6.70099 5.45381 7.26633C6.07141 8.09914 6.79209 8.84186 7.61241 9.48752C8.19136 9.94325 8.8648 9.95664 9.4804 9.55502C9.57546 9.4931 9.67223 9.43286 9.763 9.36536C10.4625 8.84688 11.1978 8.84995 11.9285 9.26886C12.3036 9.4839 12.664 9.74077 12.9796 10.0317C13.4915 10.5036 13.9714 11.0101 14.4421 11.5216C14.6036 11.697 14.7207 11.9218 14.8184 12.141C15.0056 12.5613 14.9661 12.9861 14.6655 13.337C14.1263 13.9653 13.5193 14.5198 12.6924 14.7833C12.23 14.9306 11.7558 14.9956 11.3664 15.0001ZM0.844831 3.86956C0.870314 4.04109 0.893506 4.2868 0.944186 4.52722C1.15521 5.52597 1.59128 6.43743 2.12699 7.30398C3.27459 9.15981 4.75689 10.73 6.4883 12.0797C7.46123 12.838 8.51262 13.4722 9.69199 13.8853C10.4161 14.1388 11.1554 14.2434 11.9265 14.1221C12.7915 13.986 13.4116 13.4856 13.9625 12.8742C14.0854 12.7379 14.1011 12.5633 14.0141 12.4029C13.9279 12.2442 13.8374 12.0791 13.7123 11.9505C13.2235 11.4485 12.7285 10.9515 12.2194 10.4693C11.9457 10.2102 11.6287 10.0004 11.2648 9.86767C10.9533 9.75387 10.6592 9.76642 10.3812 9.95747C10.2409 10.0537 10.0951 10.1424 9.95541 10.2394C9.09643 10.838 7.94798 10.8118 7.09617 10.1449C6.20341 9.44569 5.4183 8.63993 4.75288 7.73127C4.12469 6.87391 4.17193 5.77224 4.78781 5.00247C4.92554 4.83039 5.05982 4.65524 5.18781 4.47618C5.30978 4.30549 5.3493 4.11528 5.31551 3.90638C5.2551 3.53153 5.075 3.20745 4.83763 2.92241C4.45969 2.46835 4.06284 2.02768 3.6554 1.59817C3.4335 1.36417 3.18611 1.1483 2.92584 0.95502C2.68504 0.776243 2.46429 0.79465 2.24725 0.980958C2.01132 1.18344 1.77453 1.38927 1.56837 1.61909C1.0109 2.24132 0.847122 2.99464 0.844831 3.86956Z" fill="white"/>
<path d="M15 7.63483C14.9934 7.87274 14.9023 8.02474 14.7125 8.09196C14.5364 8.15443 14.3222 8.10479 14.2312 7.94944C14.1728 7.84959 14.1447 7.72352 14.1356 7.60694C14.08 6.89769 13.932 6.2074 13.652 5.55198C12.6034 3.09679 10.7354 1.60717 8.05659 1.08617C7.93061 1.06163 7.80262 1.04685 7.67521 1.03039C7.38 0.992183 7.2125 0.810337 7.24543 0.560997C7.27836 0.310263 7.48766 0.169974 7.77971 0.207069C8.4437 0.291019 9.09566 0.431028 9.71584 0.678416C12.5402 1.80407 14.261 3.82584 14.87 6.73955C14.9318 7.03407 14.9576 7.33613 15 7.63483Z" fill="white"/>
<path d="M12.3209 7.21017C12.324 7.40596 12.2719 7.56745 12.0924 7.66729C11.9378 7.7532 11.7809 7.7426 11.6346 7.64247C11.5169 7.56187 11.4699 7.4464 11.4599 7.30835C11.3365 5.64413 10.2038 4.26551 8.56286 3.79081C8.34038 3.72638 8.10788 3.69347 7.87854 3.65415C7.62886 3.61148 7.47625 3.41959 7.50889 3.17583C7.53838 2.95773 7.74969 2.80461 7.98448 2.8311C9.98646 3.05757 11.64 4.45098 12.1494 6.35115C12.2252 6.63284 12.2648 6.92346 12.3209 7.21017Z" fill="white"/>
</g>
<defs>
<clipPath id="clip0_1442_546">
<rect width="15" height="15" fill="white"/>
</clipPath>
</defs>
</svg>
