<svg width="16" height="15" viewBox="0 0 16 15" fill="none" xmlns="http://www.w3.org/2000/svg">
<path d="M1.25776 12.8212C1.25776 12.6551 1.25776 12.5363 1.25776 12.4175C1.25776 9.95864 1.25776 7.49976 1.25776 5.04029C1.25776 4.0385 1.62188 3.66838 2.62247 3.65158C2.69085 3.65038 2.75924 3.64198 2.82883 3.63658C2.71605 2.93173 2.84142 2.67979 3.46769 2.34806C4.8246 1.62881 6.18091 0.907762 7.53903 0.191513C8.20309 -0.158812 9.15928 -0.0160426 9.67877 0.517844C9.73276 0.573632 9.76575 0.731999 9.72856 0.776389C9.67337 0.842975 9.5318 0.897564 9.45442 0.872969C9.27686 0.815981 9.11129 0.715202 8.94813 0.619223C8.53182 0.373275 8.1281 0.382273 7.70099 0.612624C6.34048 1.34507 4.97277 2.06552 3.60446 2.78536C3.3975 2.89394 3.22354 3.01811 3.22774 3.27426C3.23194 3.51541 3.3999 3.63718 3.59546 3.73976C4.97157 4.46561 6.34828 5.19025 7.71959 5.9263C8.1251 6.14345 8.51022 6.15725 8.91214 5.9299C9.22407 5.75353 9.545 5.59217 9.89473 5.40681C9.551 5.01269 9.21927 4.63117 8.88634 4.25025C8.66919 4.00191 8.44963 3.75596 8.23308 3.50761C8.1251 3.38344 8.00453 3.24547 8.18389 3.0997C8.35845 2.95753 8.47423 3.0979 8.5822 3.22087C9.0891 3.79975 9.60259 4.37263 10.0987 4.9611C10.2457 5.13566 10.3536 5.17646 10.5672 5.05888C11.3788 4.61078 12.203 4.18487 13.0237 3.75296C13.2258 3.64678 13.4106 3.52621 13.413 3.26946C13.4154 3.01332 13.2384 2.89034 13.0327 2.78236C12.1401 2.31506 11.2522 1.83936 10.3614 1.36906C10.2031 1.28568 10.0321 1.1957 10.1479 0.988744C10.2547 0.797385 10.4226 0.890965 10.5666 0.967749C11.4124 1.41645 12.2582 1.86576 13.104 2.31446C13.8053 2.68638 13.9097 2.87594 13.8221 3.65278C13.9433 3.65278 14.062 3.65218 14.1808 3.65278C14.9325 3.65758 15.3782 4.09009 15.3818 4.84293C15.3884 6.20224 15.3836 7.56155 15.3836 8.92146C15.3836 10.1008 15.3836 11.2808 15.3836 12.4601C15.3836 12.5681 15.3836 12.6755 15.3836 12.766C15.4304 12.7936 15.4466 12.8116 15.4633 12.8122C16.0404 12.82 16.0002 12.8434 15.999 13.4049C15.9972 14.3959 15.4094 14.9904 14.4178 14.991C10.3596 14.9928 6.30089 14.9802 2.24275 15C1.26856 15.0048 0.480323 14.3305 0.655486 13.0342C0.666284 12.9544 0.799456 12.865 0.894235 12.8296C0.988416 12.7942 1.10659 12.8212 1.25776 12.8212ZM10.0567 8.15483C9.90852 8.18362 9.82034 8.19682 9.73516 8.21841C8.55701 8.51235 7.39866 8.43917 6.2625 8.02285C5.2841 7.66473 4.78321 6.93768 4.78201 5.8999C4.78201 5.65516 4.78201 5.41101 4.78201 5.17106C4.08556 5.17106 3.4401 5.17106 2.78383 5.17106C2.78383 7.37139 2.78383 9.55253 2.78383 11.7553C3.04718 11.7553 3.28653 11.7529 3.52528 11.7559C3.70164 11.7583 3.92719 11.7217 3.93559 11.9808C3.94399 12.2448 3.72084 12.2184 3.54147 12.2196C3.26133 12.2214 2.98119 12.2094 2.70165 12.2232C2.41851 12.2364 2.31413 12.1242 2.31533 11.8368C2.32313 9.58732 2.32373 7.3384 2.31473 5.08888C2.31353 4.79434 2.42091 4.70376 2.70285 4.71216C3.24634 4.72715 3.79102 4.71635 4.39869 4.71635C3.79042 4.27005 3.20075 4.0439 2.4929 4.10748C1.92362 4.15847 1.72026 4.31804 1.72026 4.89032C1.71966 7.41938 1.72026 9.94904 1.72026 12.4781C1.72026 12.5843 1.72026 12.6899 1.72026 12.7966C6.14252 12.7966 10.5246 12.7966 14.9223 12.7966C14.9223 11.3342 14.9223 9.89566 14.9223 8.45656C14.9223 7.23702 14.9235 6.01748 14.9217 4.79794C14.9211 4.44881 14.7579 4.18007 14.4736 4.13868C13.6811 4.0241 12.9361 4.13268 12.2768 4.71695C12.8449 4.71695 13.38 4.71575 13.9157 4.71755C14.3014 4.71875 14.3218 4.73915 14.3224 5.12607C14.323 7.3354 14.323 9.54473 14.3224 11.7541C14.3224 12.2046 14.3056 12.2214 13.8437 12.2214C10.8647 12.2214 7.88515 12.2226 4.90618 12.2184C4.71423 12.2184 4.41849 12.3035 4.42749 11.982C4.43648 11.6689 4.73042 11.7595 4.92178 11.7595C7.78078 11.7547 10.6404 11.7565 13.4994 11.7565C13.6163 11.7565 13.7327 11.7565 13.8575 11.7565C13.8575 9.53753 13.8575 7.3552 13.8575 5.16866C13.1856 5.16866 12.5396 5.16866 11.8599 5.16866C11.8599 5.4602 11.8653 5.73734 11.8587 6.01388C11.8389 6.82971 11.4742 7.44518 10.7669 7.85129C10.4388 8.04025 10.383 8.22201 10.5744 8.56154C10.6968 8.77869 10.8317 8.98985 10.9457 9.2112C11.1065 9.52493 11.0285 9.86386 10.7639 10.0714C10.512 10.2694 10.0039 10.2718 9.74896 10.0762C9.48801 9.87646 9.40823 9.52973 9.5672 9.2166C9.68477 8.98565 9.82874 8.76789 9.94572 8.53694C9.9979 8.43077 10.0141 8.30539 10.0567 8.15483ZM1.11979 13.2735C1.049 13.7036 1.12519 14.0912 1.48691 14.3167C1.71726 14.4601 2.025 14.5435 2.29794 14.5447C6.31349 14.5585 10.329 14.5549 14.3446 14.5525C14.4832 14.5525 14.6247 14.5411 14.7597 14.5111C15.3296 14.3845 15.6403 13.8686 15.5011 13.2723C13.7399 13.2723 11.9751 13.2723 10.1899 13.2723C9.98051 13.9886 9.44182 14.1817 8.75377 14.1398C8.46523 14.1224 8.17369 14.1224 7.88515 14.1398C7.1965 14.1817 6.65961 13.9856 6.45086 13.2729C4.66384 13.2735 2.89901 13.2735 1.11979 13.2735ZM5.24511 5.12307C5.24511 5.51059 5.22352 5.83992 5.24991 6.16505C5.3027 6.82131 5.65423 7.28621 6.2571 7.53576C7.30028 7.96767 8.38125 8.05645 9.48561 7.8177C10.0333 7.69952 10.0321 7.69292 10.0321 7.12844C10.0321 6.71513 10.0321 6.30122 10.0321 5.84831C9.71836 6.01388 9.45682 6.13865 9.20787 6.28442C8.6086 6.63595 8.02552 6.61855 7.42145 6.28022C6.7178 5.88611 5.99855 5.52198 5.24511 5.12307ZM11.3674 5.13986C11.0981 5.28263 10.8347 5.41641 10.5786 5.56337C10.5306 5.59097 10.485 5.66955 10.4844 5.72474C10.4778 6.29882 10.4802 6.8735 10.4802 7.46017C11.3326 7.09905 11.5234 6.22563 11.3674 5.13986ZM6.98234 13.2705C6.96315 13.3071 6.94335 13.3443 6.92416 13.3809C7.10352 13.4769 7.27808 13.6437 7.46284 13.6557C8.03032 13.6923 8.6008 13.6743 9.17068 13.6671C9.42143 13.6641 9.58519 13.5237 9.70157 13.2705C8.76937 13.2705 7.87556 13.2705 6.98234 13.2705ZM10.2552 8.91426C10.1485 9.10143 10.0429 9.2394 9.99071 9.39536C9.96011 9.48654 9.98891 9.6851 10.0321 9.6983C10.1713 9.73969 10.3362 9.74269 10.4772 9.7049C10.521 9.6935 10.5582 9.49314 10.5276 9.40256C10.4742 9.24539 10.3668 9.10742 10.2552 8.91426Z" fill="#FFFBFB"/>
<path d="M5.89054 11.1572C5.20068 11.1572 4.51143 11.1584 3.82158 11.1566C3.65601 11.156 3.44546 11.1932 3.45206 10.9328C3.45865 10.6743 3.67281 10.7229 3.83537 10.7223C5.21448 10.7199 6.59419 10.7199 7.9733 10.7223C8.14546 10.7223 8.38001 10.6725 8.37281 10.9466C8.36621 11.222 8.12626 11.153 7.9595 11.1548C7.27025 11.1602 6.58039 11.1572 5.89054 11.1572Z" fill="#FFFBFB"/>
<path d="M5.15628 9.76685C5.62538 9.76685 6.09389 9.76805 6.56299 9.76625C6.72555 9.76565 6.87612 9.78784 6.88212 9.99C6.88812 10.2012 6.72435 10.2192 6.56898 10.2198C5.64158 10.2221 4.71358 10.2216 3.78617 10.2204C3.61941 10.2204 3.44305 10.2066 3.45265 9.9792C3.46104 9.77524 3.62121 9.76505 3.78018 9.76565C4.23848 9.76805 4.69738 9.76685 5.15628 9.76685Z" fill="#FFFBFB"/>
</svg>
