<svg width="46" height="31" viewBox="0 0 46 31" fill="none" xmlns="http://www.w3.org/2000/svg">
<path d="M8.35469 9.10653L2.71735 5.33351C2.503 5.18345 2.28866 5.11914 2.05288 5.11914C1.43127 5.11914 0.852539 5.6122 0.852539 6.31964V14.2944V22.2692C0.852539 22.4407 0.895427 22.5693 0.938296 22.7194C0.938296 22.7408 0.959752 22.7623 0.959752 22.7837C1.08836 23.041 1.3027 23.2339 1.55992 23.3625C1.58136 23.384 1.60274 23.384 1.64561 23.384C1.75279 23.4268 1.88142 23.4483 2.01003 23.4483C2.03147 23.4483 2.03144 23.4483 2.05288 23.4483C2.05288 23.4483 2.0529 23.4483 2.07433 23.4483C2.16007 23.4483 2.2458 23.4268 2.33154 23.4054C2.35298 23.4054 2.39586 23.4054 2.4173 23.384C2.52447 23.3411 2.63163 23.2982 2.73881 23.2339L8.37615 19.4609V14.2944V9.10653H8.35469ZM2.6745 7.47727L6.53279 10.0712V14.2944H2.6745V7.47727Z" fill="#6E6F71"/>
<path d="M45.2226 0.230469L10.0054 9.10563V14.2935V19.46L13.735 20.4032L13.7778 20.4247L13.5421 21.3679C13.5207 21.4322 13.5207 21.518 13.4992 21.5823C13.3278 22.3755 13.3492 23.1901 13.5421 23.9619C13.6707 24.4549 13.8422 24.948 14.1208 25.4196C14.4852 26.0413 14.9567 26.5558 15.514 26.9846C15.9642 27.3061 16.4572 27.5634 16.993 27.7349C17.1217 27.7778 17.2503 27.8421 17.4003 27.8849L27.0031 30.3503C27.4318 30.4575 27.8819 30.5218 28.332 30.5218C28.6964 30.5218 29.0394 30.4789 29.3823 30.4146C30.1968 30.2431 30.9685 29.9001 31.6115 29.407C32.2975 28.8711 32.8762 28.1422 33.2192 27.3061C33.3263 27.0489 33.4335 26.7702 33.4978 26.4915L33.6907 25.6983L33.755 25.4839L45.2012 28.378V0.230469H45.2226ZM11.8059 10.5205L43.4006 2.54573V14.2721H35.9842H33.8193H17.4646H15.3426H11.8059V10.5205ZM27.539 28.3351C27.5175 28.3351 27.5175 28.3351 27.539 28.3351L17.9148 25.8698C17.0574 25.6554 16.3501 25.1195 15.8999 24.3477C15.4927 23.6617 15.364 22.8471 15.514 22.0539C15.5355 21.9896 15.5355 21.9253 15.557 21.8396L15.6641 21.4108L15.7927 20.8963L31.7831 24.9266L31.5258 25.9341C31.1614 27.3919 29.8539 28.3995 28.3535 28.3995C28.3321 28.3995 28.332 28.3995 28.3106 28.3995C28.0319 28.4209 27.7747 28.3994 27.539 28.3351Z" fill="#6E6F71"/>
</svg>
