<svg width="21" height="21" viewBox="0 0 21 21" fill="none" xmlns="http://www.w3.org/2000/svg">
<g clip-path="url(#clip0_1_166)">
<path fill-rule="evenodd" clip-rule="evenodd" d="M9.62497 0.874986H3.14963C1.89865 0.874986 0.874986 1.8987 0.874986 3.14967V17.8503C0.874986 19.1013 1.89865 20.125 3.14963 20.125H9.64548C10.042 20.4599 10.4743 20.7539 10.9358 21H3.14963C1.415 21 0 19.5849 0 17.8503V3.14967C0 1.41504 1.415 0 3.14963 0H10.0522H10.0625H10.0744H10.5L15.75 5.25V7.11621C15.4646 7.06494 15.1723 7.03078 14.875 7.01367V6.12499H10.0625C9.82152 6.12499 9.62497 5.92848 9.62497 5.68751V0.874986ZM14.6836 18.4843L18.2878 14.552C18.3784 14.4528 18.4006 14.3195 18.3476 14.1982C18.2929 14.0769 18.1801 14.0017 18.0468 14.0017H16.4062V11.0451C16.4062 10.8657 16.2593 10.7187 16.0781 10.7187H12.7968C12.6174 10.7187 12.4704 10.8657 12.4704 11.0451V14.0017H10.8298C10.6965 14.0017 10.582 14.0769 10.529 14.1982C10.476 14.3195 10.4983 14.4528 10.5871 14.552L14.1931 18.4843L14.1965 18.4878L14.1982 18.4912L14.2016 18.4946L14.205 18.4963L14.2085 18.4997L14.2102 18.5031L14.2136 18.5066L14.217 18.5083L14.2204 18.5117L14.2221 18.5134L14.2255 18.5168L14.229 18.5202L14.2324 18.522L14.2358 18.5254L14.2392 18.5271L14.2426 18.5305L14.246 18.5322L14.2495 18.5339L14.2529 18.5373L14.2563 18.539L14.2597 18.5425L14.2631 18.5441L14.2665 18.5459L14.27 18.5476L14.2734 18.5493L14.2802 18.5544L14.2837 18.5561L14.2871 18.5578L14.2905 18.5595L14.2939 18.5613C14.3059 18.5664 14.3161 18.5715 14.3281 18.5749L14.3315 18.5766L14.3349 18.5784H14.3383L14.3435 18.58L14.3469 18.5818H14.3503L14.3537 18.5835L14.3606 18.5852L14.3657 18.5869H14.3691L14.3742 18.5886H14.3759L14.3811 18.5903H14.3845H14.3896L14.393 18.592H14.3964H14.3998H14.405L14.4084 18.5937H14.4135H14.4152H14.4204H14.4238H14.4289H14.4323H14.4357H14.4392H14.4443H14.4477H14.4528H14.4546H14.4597H14.4631H14.4682L14.4716 18.592H14.4751H14.4785H14.4836L14.487 18.5903H14.4905H14.4939L14.499 18.5886H14.5024L14.5058 18.5869H14.5092L14.5144 18.5852L14.5229 18.5835L14.5246 18.5818H14.5297L14.5331 18.58L14.5366 18.5784H14.54L14.5451 18.5766L14.5485 18.5749C14.5588 18.5715 14.5708 18.5664 14.581 18.5613L14.5844 18.5595L14.5895 18.5578L14.593 18.5561L14.5964 18.5544L14.6032 18.5493L14.6066 18.5476L14.6101 18.5459L14.6135 18.5441L14.6169 18.5425L14.6203 18.539L14.6238 18.5373L14.6272 18.5339L14.6306 18.5322L14.634 18.5305L14.6374 18.5271L14.6408 18.5254L14.6425 18.522L14.6459 18.5202L14.6494 18.5168L14.6528 18.5134L14.6562 18.5117L14.6596 18.5083L14.6613 18.5066L14.6648 18.5031L14.6682 18.4997L14.6716 18.4963L14.6733 18.4946L14.6767 18.4912L14.6801 18.4878L14.6836 18.4843ZM16.8027 14.8767H15.5312V11.592H13.3437V14.8767H12.0723L14.4375 17.4572L16.8027 14.8767ZM14.5092 5.25L10.5 1.23387V5.25H14.5092ZM14.4375 20.1267C17.5803 20.1267 20.1267 17.5786 20.1267 14.4375C20.1267 11.2964 17.5803 8.74999 14.4375 8.74999C11.2964 8.74999 8.74999 11.2964 8.74999 14.4375C8.74999 17.5786 11.2964 20.1267 14.4375 20.1267ZM14.4375 21C18.0622 21 21 18.0622 21 14.4375C21 10.8127 18.0622 7.875 14.4375 7.875C10.8127 7.875 7.87496 10.8127 7.87496 14.4375C7.87496 18.0622 10.8127 21 14.4375 21ZM9.6472 8.74999C10.0437 8.41505 10.4743 8.12109 10.9358 7.875H2.18749C1.94652 7.875 1.74997 8.07155 1.74997 8.31251C1.74997 8.55348 1.94652 8.74999 2.18749 8.74999H9.6472ZM7.65795 11.375C7.79465 11.0725 7.95359 10.7803 8.1279 10.5H2.18749C1.94652 10.5 1.74997 10.6965 1.74997 10.9375C1.74997 11.1784 1.94652 11.375 2.18749 11.375H7.65795ZM7.01363 14C7.03073 13.7043 7.0649 13.4121 7.11617 13.125H2.18749C1.94652 13.125 1.74997 13.3215 1.74997 13.5625C1.74997 13.8034 1.94652 14 2.18749 14H7.01363ZM7.3281 16.625C7.23922 16.3413 7.16916 16.049 7.11617 15.75H2.18749C1.94652 15.75 1.74997 15.9465 1.74997 16.1875C1.74997 16.4284 1.94652 16.625 2.18749 16.625H7.3281Z" fill="white"/>
</g>
<defs>
<clipPath id="clip0_1_166">
<rect width="21" height="21" fill="white"/>
</clipPath>
</defs>
</svg>
