<svg width="21" height="12" viewBox="0 0 21 12" fill="none" xmlns="http://www.w3.org/2000/svg">
<path d="M16.4 11.9093C15.5255 11.9093 14.6501 11.9015 13.7755 11.9109C11.8918 11.9314 10.0073 11.9699 8.12364 11.9833C6.33434 11.9959 4.54425 11.9455 2.75652 11.9998C1.46036 12.0383 0.734412 11.1276 0.710031 10.065C0.686435 9.03073 0.983735 8.1231 1.82294 7.46322C2.42304 6.9921 2.93978 6.99289 3.56898 7.40895C4.21234 7.83445 4.86829 7.85018 5.51952 7.43491C5.98985 7.13525 6.48692 6.8875 6.87152 6.44627C7.20421 6.06481 7.69893 5.88156 8.2133 5.89257C8.45476 5.89807 8.73397 5.97594 8.92588 6.11672C9.95384 6.87019 10.9732 6.92446 11.9586 6.15762C12.3826 5.82729 12.7947 5.8438 13.2462 5.96257C13.8006 6.10807 14.1616 6.52649 14.5824 6.88199C14.9914 7.22805 15.5058 7.48603 16.0154 7.6685C16.5809 7.87063 17.1276 7.67243 17.5806 7.27918C17.8417 7.05266 18.1304 7.06367 18.4308 7.1321C19.3628 7.34446 20.1352 8.30006 20.2343 9.4169C20.2697 9.81409 20.2642 10.2357 20.1713 10.6203C19.9558 11.5153 19.318 11.9809 18.4049 11.9856C17.7363 11.9896 17.0686 11.9864 16.4 11.9864C16.4 11.9605 16.4 11.9353 16.4 11.9093ZM13.2501 11.2322C13.8549 11.2573 14.3779 10.8421 14.5659 10.1861C14.7476 9.55139 14.702 8.9159 14.4975 8.29377C14.2922 7.66928 13.9674 7.12188 13.3799 6.78368C13.011 6.57132 12.6681 6.51784 12.2615 6.81357C11.1619 7.61659 9.85159 7.62917 8.75363 6.83323C8.30296 6.50604 7.93645 6.57525 7.53612 6.82458C6.46883 7.48839 5.96075 9.4051 6.55771 10.5109C6.80152 10.9624 7.17197 11.2329 7.73511 11.2691C7.73511 10.6454 7.71623 10.0563 7.75005 9.47038C7.75791 9.33825 7.93173 9.14713 8.06229 9.1141C8.15667 9.08972 8.32813 9.26511 8.42251 9.38544C8.47442 9.45229 8.44139 9.58757 8.44217 9.69218C8.44296 10.2113 8.44296 10.7304 8.44296 11.2471C9.83586 11.2471 11.1761 11.2471 12.5414 11.2471C12.5414 10.7091 12.5454 10.2003 12.5399 9.69139C12.5367 9.41612 12.5407 9.11331 12.8914 9.09994C13.2595 9.08578 13.254 9.39252 13.2517 9.66622C13.2469 10.1893 13.2501 10.7115 13.2501 11.2322ZM5.78221 8.12467C4.8966 8.55253 4.08336 8.54781 3.28899 8.06883C2.73528 7.73456 2.35855 7.79277 1.95586 8.30242C1.47294 8.91354 1.31879 9.61982 1.46429 10.3741C1.54923 10.8169 1.79934 11.1606 2.34203 11.255C2.34203 10.8405 2.3381 10.4512 2.3436 10.0618C2.34754 9.82353 2.39866 9.60173 2.70304 9.6033C3.01135 9.60488 3.04831 9.82903 3.04989 10.0681C3.05146 10.4582 3.05067 10.8476 3.05067 11.2518C4.11088 11.2518 5.12154 11.2518 6.18176 11.2518C5.49907 10.2734 5.50615 9.23994 5.78221 8.12467ZM18.6424 11.2337C18.6778 11.2573 18.7139 11.2801 18.7493 11.3037C18.9412 11.1464 19.1803 11.0214 19.318 10.8255C19.8906 10.0146 19.4509 8.37399 18.5684 7.92647C18.3002 7.79041 18.0745 7.78333 17.8134 7.98231C17.3871 8.30714 16.8885 8.48489 16.345 8.42433C15.9698 8.38265 15.601 8.28119 15.225 8.2049C15.4798 9.24623 15.4814 10.2781 14.8089 11.251C15.8692 11.251 16.8798 11.251 17.9337 11.251C17.9337 10.8499 17.9329 10.4732 17.9337 10.0957C17.9345 9.84633 17.9558 9.59701 18.2908 9.6033C18.6219 9.61038 18.6384 9.86521 18.6408 10.1098C18.6455 10.485 18.6424 10.8594 18.6424 11.2337Z" fill="white"/>
<path d="M10.4918 3.10694e-05C11.998 -0.00704749 13.2289 1.19631 13.2415 2.68752C13.2548 4.20705 12.0381 5.43951 10.5202 5.44501C8.99434 5.45052 7.75716 4.22278 7.76975 2.71584C7.78312 1.20181 8.98018 0.00710963 10.4918 3.10694e-05ZM10.5107 0.70946C9.38366 0.710246 8.4894 1.59585 8.48075 2.71898C8.47289 3.82796 9.38366 4.73637 10.5036 4.73637C11.6228 4.73637 12.5313 3.83661 12.5336 2.72449C12.536 1.60686 11.6339 0.708673 10.5107 0.70946Z" fill="white"/>
<path d="M4.58043 6.93447C3.36842 6.93447 2.39079 5.95605 2.38843 4.74011C2.38607 3.52732 3.36842 2.53711 4.57413 2.53711C5.77041 2.53632 6.77792 3.54069 6.7795 4.73539C6.78186 5.93246 5.77985 6.93447 4.58043 6.93447ZM4.57885 6.22661C5.3803 6.22582 6.05512 5.55965 6.07007 4.75584C6.08501 3.95046 5.38502 3.24339 4.57571 3.24575C3.75853 3.24811 3.08842 3.93316 3.0955 4.75899C3.10258 5.56673 3.7719 6.22818 4.57885 6.22661Z" fill="white"/>
<path d="M18.6093 4.73385C18.6093 5.95057 17.6341 6.93371 16.4276 6.93135C15.2171 6.92977 14.2442 5.95293 14.2395 4.73542C14.2356 3.52813 15.2219 2.53399 16.4244 2.5332C17.6278 2.53399 18.6093 3.52184 18.6093 4.73385ZM17.8999 4.72992C17.8983 3.9088 17.2518 3.25128 16.4394 3.2442C15.6135 3.23713 14.9474 3.90723 14.9497 4.74329C14.9513 5.5644 15.5978 6.21877 16.4126 6.22585C17.244 6.23214 17.9015 5.57069 17.8999 4.72992Z" fill="white"/>
</svg>
