<svg width="22" height="23" viewBox="0 0 22 23" fill="none" xmlns="http://www.w3.org/2000/svg">
<path d="M4.58333 20.125C4.07917 20.125 3.64757 19.9373 3.28854 19.562C2.92951 19.1866 2.75 18.7354 2.75 18.2083V4.79167C2.75 4.26458 2.92951 3.81337 3.28854 3.43802C3.64757 3.06267 4.07917 2.875 4.58333 2.875H11V4.79167H4.58333V18.2083H17.4167V11.5H19.25V18.2083C19.25 18.7354 19.0705 19.1866 18.7115 19.562C18.3524 19.9373 17.9208 20.125 17.4167 20.125H4.58333ZM8.89167 15.0458L7.60833 13.7042L16.1333 4.79167H12.8333V2.875H19.25V9.58333H17.4167V6.13333L8.89167 15.0458Z" fill="#FFA300"/>
</svg>
