<svg width="42" height="40" viewBox="0 0 42 40" fill="none" xmlns="http://www.w3.org/2000/svg">
<path d="M5.96582 39.765H10.8101V28.7246L5.96582 33.5909V39.765Z" fill="#6E6F71"/>
<path d="M16.5541 23L14.1963 25.3581V39.7642H19.0406V25.5082L17.0042 23.4502L16.5541 23Z" fill="#6E6F71"/>
<path d="M23.4566 25.81L22.4277 26.8175V39.7658H27.272V21.9727L24.4854 24.781L23.4566 25.81Z" fill="#6E6F71"/>
<path d="M30.6582 18.5851V39.7654H35.5025V13.7402L32.716 16.5271L30.6582 18.5851Z" fill="#6E6F71"/>
<path d="M36.1244 2.35633L30.9372 3.72834L32.1804 4.97172L33.1021 5.91497L30.6585 8.35886L27.2719 11.7246L22.4276 16.5909L21.3987 17.6199L19.0409 15.2618L16.5545 12.7536L14.1967 15.1117L10.81 18.4988L5.96574 23.3437L0.435547 28.8746L3.50076 31.9616L5.96574 29.4963L10.81 24.63L14.1967 21.2643L16.5545 18.9061L19.0409 21.4143L21.3987 23.751L22.4276 22.722L27.2719 17.8771L30.6585 14.49L35.5028 9.64511L36.1673 8.98054L38.5251 11.3387L39.9183 6.15078L41.3116 0.962891L36.1244 2.35633Z" fill="#6E6F71"/>
</svg>
