<svg width="19" height="19" viewBox="0 0 19 19" fill="none" xmlns="http://www.w3.org/2000/svg">
<g clip-path="url(#clip0_1442_479)">
<path d="M4.52934 8.82973C4.89919 7.46578 5.09931 6.02265 5.67821 4.75406C6.51975 2.91147 8.13495 1.8966 10.0986 1.44314C10.4488 1.36217 10.7632 1.12105 11.0938 0.953704C10.8222 0.753969 10.5488 0.554234 10.279 0.3545C10.6489 -0.0773595 11.7548 -0.133141 12.4981 0.277125C12.482 0.332907 12.482 0.410281 12.4445 0.437273C12.1819 0.637007 11.9121 0.827745 11.6459 1.02028C11.9639 1.16424 12.2694 1.37837 12.6018 1.43955C15.5892 1.99017 17.8476 4.67849 17.9065 7.79687C17.919 8.40147 17.7779 9.03487 18.623 9.29218C18.8321 9.35516 19.0482 9.92018 18.9911 10.1973C18.9267 10.5122 18.5926 10.8109 18.3068 11.025C18.146 11.1474 17.8494 11.1078 17.6135 11.1078C13.4201 11.1114 9.22485 11.115 5.03141 11.1096C4.05765 11.1078 3.46267 10.5788 3.73246 9.88239C3.89506 9.46493 4.34531 9.16083 4.66513 8.80454C4.62047 8.81534 4.57401 8.82254 4.52934 8.82973ZM5.39412 8.97909C9.41781 8.97909 13.3557 8.97909 17.3401 8.97909C17.5635 6.39333 16.8023 4.29881 14.6475 2.88627C12.5303 1.49893 10.2951 1.47733 8.1689 2.8143C5.96765 4.19805 5.1404 6.31955 5.39412 8.97909ZM11.3546 9.58009C11.3546 9.58189 11.3546 9.58189 11.3546 9.58369C10.4916 9.58369 9.62865 9.58369 8.76387 9.58369C7.51317 9.58369 6.26246 9.5513 5.01354 9.60528C4.74554 9.61608 4.49004 9.93277 4.22917 10.1073C4.47395 10.2639 4.7098 10.4348 4.96709 10.568C5.06179 10.6166 5.20115 10.5788 5.32086 10.5788C9.3392 10.5806 13.3593 10.5824 17.3777 10.5824C17.5849 10.5824 17.8172 10.6166 17.9941 10.5374C18.1817 10.4546 18.3193 10.2549 18.4783 10.1073C18.305 9.93817 18.1602 9.70785 17.953 9.61788C17.7493 9.52971 17.4849 9.58009 17.2472 9.58009C15.2836 9.57829 13.3182 9.58009 11.3546 9.58009Z" fill="white"/>
<path d="M5.32264 14.38C5.73359 14.2505 6.11952 14.0219 6.49295 14.0381C6.98608 14.0579 7.46492 14.3062 7.96163 14.3854C8.16889 14.4178 8.40653 14.2702 8.62987 14.2037C8.50658 14.0291 8.42082 13.761 8.25466 13.6944C7.20406 13.277 6.15526 12.8163 5.06357 12.5554C4.59009 12.442 3.93972 12.6454 3.4984 12.9171C2.61219 13.4605 1.8171 14.1515 0.98091 14.7759C0.725409 14.9666 0.455614 15.1358 0.192966 15.3157C0.128644 15.2653 0.064322 15.2149 0 15.1628C0.101843 14.9756 0.157232 14.7327 0.31089 14.6139C1.29716 13.842 2.25663 13.0107 3.32866 12.3791C3.85932 12.066 4.65441 11.9364 5.25475 12.0696C6.3786 12.3161 7.45063 12.8055 8.53874 13.2122C9.25522 13.4785 9.30703 14.0453 9.06583 14.8641C9.44461 14.7219 9.71083 14.6499 9.95204 14.5276C11.0151 13.9913 12.0782 13.4515 13.1306 12.8919C13.7524 12.5608 14.3027 12.6004 14.6886 13.2068C15.0871 13.8294 14.8244 14.353 14.2884 14.7615C12.675 15.9923 11.083 17.2537 9.42138 18.4161C9.0158 18.6986 8.37615 18.7184 7.8455 18.7184C7.4149 18.7184 6.97358 18.5385 6.55548 18.3873C5.328 17.9482 4.14341 17.6999 3.12498 18.8516C3.03028 18.9595 2.79622 18.9397 2.53 19.0027C3.16607 17.7809 4.27027 17.2285 5.35659 17.5074C6.1624 17.7161 6.95214 18.0238 7.77045 18.1426C8.24572 18.211 8.8675 18.1444 9.24271 17.8799C10.8293 16.766 12.3588 15.5712 13.8775 14.3638C14.0901 14.1947 14.1187 13.788 14.2312 13.4911C13.915 13.4677 13.5434 13.3238 13.2914 13.4407C12.1854 13.9553 11.1295 14.5797 10.0217 15.089C9.65009 15.2599 9.15695 15.3103 8.75494 15.2311C7.65789 15.0152 6.5805 14.7003 5.32264 14.38Z" fill="white"/>
<path d="M15.3569 7.65768C15.0567 5.66933 14.4939 3.9203 12.0157 3.62879C12.8662 3.11596 13.6863 3.33729 14.4546 4.10564C15.4391 5.08812 15.9376 6.79756 15.3569 7.65768Z" fill="white"/>
</g>
<defs>
<clipPath id="clip0_1442_479">
<rect width="19" height="19" fill="white"/>
</clipPath>
</defs>
</svg>
