<svg width="17" height="18" viewBox="0 0 17 18" fill="none" xmlns="http://www.w3.org/2000/svg">
<g clip-path="url(#clip0_1442_501)">
<path d="M11.718 3.08554C11.0576 2.86702 10.429 2.6591 9.75931 2.43814C9.76684 2.5368 9.75512 2.58409 9.77354 2.60203C10.7973 3.59922 11.2945 4.85896 11.6377 6.18882C11.7088 6.4636 11.8227 6.58183 12.1123 6.65276C13.4876 6.99114 14.7968 7.47302 15.9042 8.46287C15.8749 8.31692 15.854 8.16853 15.8138 8.02584C15.4321 6.65847 14.7214 5.48108 13.686 4.48226C13.5403 4.3412 13.4742 4.12187 13.3704 3.93841C13.4139 3.90661 13.4575 3.874 13.501 3.8422C13.6224 3.94004 13.753 4.02892 13.8634 4.13736C16.2901 6.50844 17.092 9.33287 16.0139 12.5022C14.9399 15.6577 12.571 17.4759 9.18759 17.9317C5.80751 18.3875 2.40651 16.5749 0.88472 13.5972C-0.690641 10.5111 -0.128132 6.86068 2.29853 4.426C4.6758 2.04187 8.23166 1.30723 11.3464 2.55474C11.5891 2.65177 11.8227 2.74227 11.718 3.08554ZM8.42167 9.9501C8.42167 10.9685 8.43172 11.9869 8.41581 13.0045C8.41163 13.2923 8.5012 13.3999 8.79584 13.3681C9.55674 13.2866 10.3193 13.2124 11.0819 13.1414C11.3288 13.1186 11.4385 12.9996 11.4786 12.759C11.7858 10.9073 11.7892 9.05727 11.4812 7.20476C11.4376 6.94222 11.3079 6.83051 11.0517 6.80687C10.3034 6.73756 9.55423 6.67152 8.80756 6.58509C8.4719 6.54595 8.41247 6.68538 8.41665 6.97646C8.43088 7.96795 8.42167 8.95943 8.42167 9.9501ZM8.03411 6.52149C7.0447 6.63809 6.13648 6.73593 5.23328 6.86394C5.1387 6.87699 5.019 7.05718 4.99723 7.1746C4.64985 9.03526 4.65822 10.8976 4.98133 12.7623C5.02402 13.0077 5.13702 13.1186 5.37977 13.1414C6.11388 13.2107 6.84966 13.2703 7.58042 13.3632C7.97133 13.413 8.04583 13.2621 8.04248 12.9164C8.02658 11.0574 8.03411 9.19752 8.03327 7.33848C8.03411 7.10937 8.03411 6.88025 8.03411 6.52149ZM4.55191 6.98299C4.27149 7.058 4.00196 7.12078 3.73912 7.20313C2.73715 7.5195 1.77452 7.91169 1.01614 8.65775C0.233481 9.42745 0.151449 10.3064 0.846215 11.0981C1.81638 12.2038 3.16824 12.6147 4.55275 12.9686C4.48495 11.9453 4.37027 10.9734 4.37027 10.0023C4.37111 9.01732 4.48411 8.03155 4.55191 6.98299ZM11.831 12.9539C13.0046 12.7868 14.5565 12.097 15.2923 11.4406C16.3228 10.5217 16.3395 9.43723 15.3015 8.53055C14.3431 7.69235 13.1729 7.27244 11.9315 7.01723C11.9139 7.01397 11.8896 7.04332 11.8411 7.07512C12.1918 9.00998 12.1826 10.9636 11.831 12.9539ZM6.75172 2.53517C4.19448 2.55229 0.37662 6.27036 0.616858 8.48081C0.83617 8.30225 1.03958 8.1196 1.25973 7.95898C2.19222 7.28059 3.26952 6.92346 4.37613 6.6283C4.52178 6.58916 4.71849 6.46441 4.75281 6.34211C5.14623 4.9462 5.63675 3.60248 6.75172 2.53517ZM9.68397 17.4384C12.5677 17.0715 15.4564 14.4411 15.8799 11.4683C15.8381 11.4854 15.7937 11.4903 15.7686 11.5148C14.7516 12.5014 13.4658 12.9718 12.114 13.3004C11.8269 13.3706 11.7047 13.4896 11.636 13.766C11.2987 15.113 10.778 16.376 9.68397 17.4384ZM0.563286 11.4039C0.861282 14.1933 4.17105 17.3936 6.72243 17.418C6.51065 17.1693 6.29469 16.941 6.10886 16.6915C5.45343 15.8077 5.09768 14.7966 4.79885 13.7595C4.75197 13.5972 4.59125 13.3828 4.44226 13.3445C3.02761 12.9784 1.68161 12.4957 0.563286 11.4039ZM11.2376 13.5377C10.403 13.6046 9.59943 13.6837 8.79417 13.7244C8.50454 13.7391 8.41247 13.8206 8.41581 14.1036C8.43005 15.1497 8.42084 16.1958 8.42335 17.2419C8.42335 17.3438 8.44679 17.4458 8.45934 17.546C9.64044 17.4531 11.2844 15.0551 11.2376 13.5377ZM8.42335 2.2979C8.42335 3.60737 8.41749 4.79944 8.43674 5.99069C8.43758 6.06651 8.62676 6.19208 8.73892 6.20431C9.22275 6.25813 9.71159 6.27036 10.1971 6.31276C10.5487 6.34374 10.8986 6.39918 11.2493 6.44403C11.2895 6.41141 11.3305 6.37962 11.3707 6.347C11.0375 5.56425 10.7596 4.75296 10.352 4.00853C10.0841 3.52013 9.65467 3.10511 9.24702 2.70558C9.06036 2.52294 8.75399 2.45526 8.42335 2.2979ZM5.1094 13.5165C5.32285 14.1215 5.49529 14.6792 5.71711 15.2174C6.02097 15.9544 6.41522 16.6475 7.06646 17.1506C7.3226 17.3487 7.64236 17.4694 7.99393 17.6577C7.99393 16.2741 7.99393 15.0217 7.99393 13.7823C7.03884 13.6951 6.12811 13.6111 5.1094 13.5165ZM5.20064 6.41712C6.01678 6.35026 6.82957 6.26465 7.64488 6.22551C7.96547 6.21002 8.04081 6.09995 8.03662 5.81131C8.02323 4.80678 8.03411 3.80143 8.03411 2.79609C8.03411 2.66481 8.02323 2.53354 8.01737 2.40634C6.86724 2.37862 5.50784 4.46514 5.20064 6.41712Z" fill="white"/>
<path d="M13.1779 2.73541C13.1779 3.46272 13.1855 4.09544 13.1738 4.72735C13.1704 4.92874 13.1168 5.12932 13.0859 5.3299C12.9201 5.17091 12.7042 5.03963 12.597 4.84884C12.155 4.05875 12.0169 3.18386 11.9558 2.30082C11.9366 2.01871 11.8177 1.87276 11.5917 1.72354C11.0853 1.38924 10.5897 1.03701 10.121 0.655416C9.99039 0.548604 9.96947 0.313779 9.89832 0.13766C10.09 0.10586 10.3068 0.000678338 10.4684 0.0544924C11.02 0.23795 11.5666 0.449944 12.0881 0.705154C12.4062 0.860888 12.6456 0.838058 12.9779 0.722276C13.784 0.440975 14.621 0.241211 15.4481 0.0194317C15.5644 -0.0115521 15.7025 -0.00258312 15.8214 0.0259547C15.9294 0.0520463 16.024 0.129506 16.1244 0.184135C16.0549 0.27301 16.0039 0.395315 15.9118 0.445052C15.4004 0.721461 14.8772 0.975855 14.3632 1.24656C14.2184 1.32239 14.0903 1.42838 13.8794 1.57189C14.4294 1.88009 14.9257 2.16303 15.4297 2.43373C15.4899 2.46634 15.6021 2.45574 15.6691 2.42313C16.1278 2.19809 16.4668 2.46471 16.8209 2.67426C17.0502 2.81043 17.0695 2.95719 16.8309 3.10151C16.3186 3.41135 16.0474 3.85572 16.0215 4.4436C16.0089 4.7249 15.8817 4.80889 15.6155 4.6613C15.2673 4.46725 14.8755 4.32374 14.8445 3.8386C14.8387 3.7481 14.7516 3.63231 14.6679 3.58258C14.205 3.30698 13.7346 3.04933 13.1779 2.73541ZM12.602 4.04081C12.6431 4.03837 12.6841 4.03592 12.7251 4.03347C12.7569 3.5785 12.7569 3.11863 12.8306 2.66937C12.8892 2.31142 13.0758 2.24864 13.3989 2.42231C13.8376 2.65877 14.2619 2.92132 14.7056 3.14799C14.9952 3.29638 15.1819 3.48881 15.2589 3.80925C15.2949 3.95764 15.4439 4.07995 15.5326 4.20144C15.8206 3.71467 16.0658 3.29883 16.3404 2.83489C16.2416 2.81124 16.0784 2.71421 15.9788 2.75743C15.5284 2.95067 15.1777 2.77455 14.8161 2.5438C14.5022 2.34322 14.169 2.17036 13.8426 1.98854C13.3303 1.70235 13.3102 1.50747 13.7924 1.16828C14.1096 0.944871 14.4511 0.754076 14.7826 0.548604C14.7642 0.509466 14.7449 0.470329 14.7265 0.431191C14.1146 0.674985 13.4935 0.901657 12.8942 1.17236C12.6414 1.28651 12.4497 1.30037 12.1986 1.17236C11.688 0.912256 11.1556 0.690477 10.6324 0.453206C10.609 0.493974 10.5864 0.534742 10.5629 0.574695C11.0267 0.887795 11.4762 1.2221 11.9583 1.50503C12.2354 1.66728 12.3166 1.8646 12.3451 2.15977C12.4053 2.78923 12.5133 3.4138 12.602 4.04081Z" fill="white"/>
</g>
<defs>
<clipPath id="clip0_1442_501">
<rect width="17" height="18" fill="white"/>
</clipPath>
</defs>
</svg>
