<svg width="18" height="14" viewBox="0 0 18 14" fill="none" xmlns="http://www.w3.org/2000/svg">
<g clip-path="url(#clip0_1442_485)">
<path d="M12.687 9.99969C12.687 9.4709 12.687 8.95527 12.687 8.44016C12.687 8.35229 12.6634 8.25442 12.695 8.17971C12.7331 8.09079 12.8082 7.97188 12.8877 7.95504C13.0459 7.92084 13.0947 8.05028 13.0974 8.18813C13.0985 8.2318 13.0985 8.276 13.0985 8.31967C13.0985 9.31042 13.1012 10.3012 13.098 11.2919C13.0953 12.0975 12.658 12.5221 11.8377 12.5226C10.8651 12.5231 9.89185 12.5226 8.89987 12.5226C8.89987 12.8772 8.89987 13.2124 8.89987 13.5776C9.11983 13.5776 9.33175 13.5802 9.54367 13.5765C9.69389 13.5744 9.82318 13.6081 9.82211 13.7817C9.82104 13.9506 9.6971 13.9932 9.54474 13.9932C8.85641 13.9916 8.16809 13.9927 7.47976 13.9927C6.21953 13.9927 4.95877 13.9927 3.69854 13.9927C3.63577 13.9927 3.55958 14.0143 3.51398 13.9864C3.426 13.9332 3.35571 13.8522 3.27846 13.7822C3.3643 13.7138 3.4437 13.5991 3.53759 13.5865C3.75487 13.557 3.97859 13.577 4.21465 13.577C4.21465 13.2208 4.21465 12.8915 4.21465 12.5216C4.11915 12.5216 4.02473 12.5216 3.93084 12.5216C3.02791 12.5216 2.12499 12.5226 1.22207 12.521C0.469362 12.52 0.00368315 12.0654 0.00261016 11.3214C-7.23231e-05 8.93685 0.000464173 6.5523 0.00207366 4.16723C0.00261016 3.51374 0.37011 3.0623 0.968841 2.96549C1.12872 2.93971 1.2961 2.93655 1.32346 3.13754C1.34868 3.3238 1.20329 3.35221 1.04556 3.37484C0.646943 3.43166 0.423224 3.72105 0.423224 4.16408C0.422151 5.82095 0.422687 7.47782 0.422687 9.13521C0.422687 9.41513 0.422687 9.69504 0.422687 9.99916C4.50382 9.99969 8.57422 9.99969 12.687 9.99969ZM0.422151 10.448C0.422151 10.7637 0.420005 11.0436 0.422687 11.3235C0.427516 11.8312 0.702738 12.1059 1.21509 12.1064C4.78011 12.1075 8.34513 12.1075 11.9102 12.1064C12.3925 12.1064 12.6731 11.8349 12.6865 11.3603C12.6924 11.1504 12.6698 10.9378 12.6924 10.73C12.7197 10.4769 12.613 10.428 12.3758 10.4285C8.48945 10.4353 4.60253 10.4332 0.716151 10.4343C0.628165 10.4338 0.541253 10.4422 0.422151 10.448ZM8.44975 12.5431C7.17396 12.5431 5.92231 12.5431 4.66906 12.5431C4.66906 12.893 4.66906 13.2219 4.66906 13.5565C5.9368 13.5565 7.18845 13.5565 8.44975 13.5565C8.44975 13.2135 8.44975 12.8915 8.44975 12.5431Z" fill="white"/>
<path d="M11.7085 4.65521C12.4108 4.27322 13.1077 3.89912 13.7971 3.51292C13.8889 3.46136 13.9592 3.3556 14.0133 3.26089C14.4694 2.46061 15.4109 2.05862 16.2972 2.29276C17.213 2.5348 17.8166 3.32403 17.801 4.25901C17.786 5.1519 17.1481 5.92799 16.2478 6.13266C15.7999 6.23421 15.3642 6.18475 14.9372 6.00691C14.8347 5.96429 14.6764 5.96797 14.5767 6.01585C14.0965 6.24789 13.6287 6.50518 13.1533 6.74721C13.0315 6.8093 12.9602 6.87086 12.9795 7.02608C13.0063 7.24601 12.9044 7.44332 12.6984 7.52066C11.8706 7.83162 11.436 8.51352 11.0127 9.20489C10.8834 9.41641 10.7445 9.48691 10.4891 9.42693C9.93435 9.29592 9.3721 9.19279 8.81093 9.09019C8.60384 9.05231 8.51264 8.95287 8.48152 8.74766C8.37368 8.02893 8.37208 7.98105 9.10547 8.05313C9.79916 8.12154 10.2884 7.9458 10.6613 7.34703C10.8169 7.09658 10.8689 6.94557 10.6989 6.69354C10.4145 6.27157 10.4344 6.31471 9.94508 6.33207C9.29592 6.3547 8.90857 6.63882 8.70792 7.22181C8.68002 7.30336 8.62262 7.37544 8.5797 7.45226C8.32272 7.9137 8.31682 7.91528 7.87474 7.59959C7.48417 7.32072 7.48525 7.32125 7.63439 6.87507C7.80393 6.36785 7.9756 5.86116 8.13709 5.35132C8.18913 5.18716 8.27658 5.10928 8.45952 5.10034C8.92359 5.07771 9.38659 5.03983 9.84959 4.99932C9.94294 4.99142 10.0395 4.95722 10.1227 4.91355C10.3357 4.80306 10.5417 4.68047 10.7509 4.56208C11.1656 4.32741 11.3239 4.34004 11.7085 4.65521ZM17.3793 4.22323C17.3831 3.35402 16.6711 2.64003 15.7972 2.63687C14.9189 2.63371 14.2011 3.33666 14.1963 4.20482C14.1915 5.06824 14.9136 5.78013 15.7913 5.77803C16.6588 5.77593 17.3756 5.07403 17.3793 4.22323ZM11.8931 5.02931C12.1909 5.53179 12.4709 6.00533 12.7579 6.4894C13.3111 6.19948 13.84 5.92272 14.3894 5.63492C13.9291 5.17663 13.7478 4.64627 13.7676 4.00856C13.126 4.35846 12.5213 4.68731 11.8931 5.02931ZM11.7177 7.60274C11.9773 7.457 12.223 7.33335 12.4489 7.18129C12.5074 7.14183 12.5525 6.98609 12.5203 6.92979C12.1377 6.25789 11.7429 5.5923 11.3373 4.93355C11.3019 4.87567 11.1431 4.82989 11.0814 4.85936C10.8282 4.98038 10.5905 5.13243 10.3399 5.27713C10.8056 6.06216 11.2568 6.82403 11.7177 7.60274ZM8.08773 7.28337C8.12582 7.27705 8.16391 7.27127 8.20147 7.26495C8.3769 6.95189 8.56146 6.64303 8.72294 6.32313C8.80825 6.15371 8.92735 6.07899 9.1119 6.05426C9.4676 6.00638 9.82115 5.94167 10.1844 5.88221C9.89036 5.2987 9.988 5.41656 9.46492 5.44182C9.21598 5.45392 8.9649 5.46023 8.71973 5.49917C8.62959 5.51337 8.50942 5.59861 8.47937 5.67911C8.31843 6.11319 8.17411 6.55411 8.04159 6.99766C8.01745 7.08132 8.07056 7.18761 8.08773 7.28337ZM11.1018 7.44858C10.8802 7.71692 10.6543 7.97474 10.4478 8.24624C10.3239 8.40934 10.186 8.48038 9.97298 8.46985C9.61889 8.45144 9.2632 8.46512 8.91125 8.46512C8.84366 8.64454 8.94827 8.69347 9.08508 8.72083C9.53091 8.80975 9.97727 8.89604 10.422 8.99022C10.561 9.01969 10.6543 8.99759 10.7327 8.8671C10.8641 8.64875 11.0159 8.44249 11.1592 8.23098C11.4129 7.85372 11.4129 7.85372 11.1018 7.44858Z" fill="white"/>
<path d="M3.27856 0.470486C3.39337 0.546253 3.49745 0.611497 3.59724 0.682002C3.82901 0.845637 4.19007 0.706731 4.2346 0.434708C4.30542 0.00483704 4.30542 0.00431085 4.75768 0.00431085C4.99911 0.00431085 5.24107 0.0143078 5.48142 0.00115391C5.72069 -0.012 5.83336 0.0869176 5.8355 0.317901C5.83711 0.518893 5.91008 0.648328 6.12575 0.725673C6.29582 0.786707 6.40097 0.757769 6.53027 0.658325C6.82266 0.433129 6.84895 0.439443 7.10754 0.692525C7.29102 0.871945 7.46645 1.06084 7.65959 1.22921C7.842 1.38863 7.87902 1.54595 7.69822 1.71801C7.53459 1.87427 7.52279 2.02739 7.62204 2.23048C7.69071 2.37202 7.76958 2.4178 7.91872 2.43411C8.31305 2.47673 8.32431 2.49777 8.32485 2.89292C8.32539 3.14705 8.31787 3.40171 8.327 3.65532C8.33504 3.86999 8.24974 3.9747 8.02441 3.9989C7.56302 4.04836 7.42407 4.36458 7.70734 4.72658C7.84951 4.9081 7.84683 5.04543 7.67247 5.20117C7.46753 5.38375 7.26902 5.57474 7.08501 5.77784C6.9144 5.96568 6.75828 5.99356 6.56407 5.81625C6.44067 5.70365 6.32211 5.62525 6.11824 5.72101C5.92993 5.80941 5.83336 5.90727 5.83658 6.10563C5.84033 6.34819 5.72445 6.45079 5.47176 6.43817C5.17776 6.42396 4.88161 6.42712 4.58708 6.43711C4.3757 6.44395 4.27698 6.36293 4.25767 6.15351C4.24157 5.9783 4.23782 5.80415 3.99371 5.72838C3.80969 5.67103 3.67879 5.65998 3.54466 5.79836C3.34401 6.00514 3.16858 5.96778 2.9851 5.76048C2.80966 5.56211 2.61652 5.37743 2.41802 5.2017C2.24205 5.04595 2.24151 4.90863 2.38368 4.72815C2.66535 4.37037 2.52639 4.04888 2.07091 3.99943C1.85416 3.97575 1.74901 3.88841 1.75867 3.66426C1.76993 3.41066 1.76081 3.15599 1.76135 2.90186C1.76189 2.49461 1.76349 2.48146 2.1884 2.43411C2.34828 2.41622 2.40246 2.3415 2.47274 2.2147C2.58165 2.01792 2.54624 1.87322 2.40032 1.728C2.22864 1.55648 2.23668 1.40179 2.42285 1.23657C2.6412 1.04242 2.84024 0.827747 3.0527 0.627281C3.11439 0.568878 3.19379 0.528364 3.27856 0.470486ZM6.79476 0.98349C6.69712 1.054 6.62523 1.12818 6.53724 1.16238C6.44014 1.20027 6.31835 1.23552 6.22393 1.21026C6.02757 1.15817 5.83711 1.07715 5.65578 0.985069C5.5796 0.946659 5.48034 0.847741 5.48356 0.780393C5.50073 0.425237 5.29686 0.384723 5.01252 0.417345C4.90039 0.430498 4.78504 0.419449 4.63912 0.419449C4.69384 0.816172 4.4948 0.966127 4.16003 1.10345C3.81828 1.24394 3.5613 1.27603 3.32846 0.996118C3.13102 1.17659 2.9513 1.34075 2.75226 1.5228C3.0645 1.76641 3.02051 2.01792 2.88746 2.35413C2.74958 2.70139 2.55697 2.85819 2.18411 2.84714C2.18411 3.05129 2.1943 3.22597 2.18143 3.39908C2.16962 3.55956 2.23937 3.61375 2.39173 3.63059C2.50225 3.64269 2.66588 3.65953 2.70612 3.72951C2.84078 3.96312 2.97222 4.2141 3.02051 4.47349C3.04358 4.59714 2.87565 4.75446 2.79571 4.89705C2.78767 4.91126 2.78713 4.92967 2.78874 4.92283C2.95935 5.10541 3.12137 5.27851 3.30109 5.47056C3.54788 5.19906 3.79574 5.19012 4.1493 5.33481C4.49748 5.4774 4.67828 5.64525 4.65789 6.02987C4.88805 6.02987 5.09353 6.04197 5.29579 6.02198C5.35319 6.01619 5.44815 5.91516 5.44601 5.86044C5.43474 5.56159 5.6091 5.4432 5.86877 5.37954C5.96265 5.35639 6.05493 5.31429 6.13755 5.26483C6.29743 5.17013 6.43745 5.18012 6.57641 5.30272C6.64079 5.35954 6.7159 5.40427 6.75238 5.43057C6.95732 5.25799 7.14563 5.09962 7.3554 4.92336C7.03028 4.6808 6.99487 4.41351 7.21752 4.11255C7.25293 4.06467 7.27063 4.00048 7.28136 3.94102C7.31999 3.72425 7.44929 3.63532 7.67086 3.62164C7.75241 3.61638 7.88707 3.53535 7.89565 3.47537C7.92409 3.2728 7.90638 3.06392 7.90638 2.83293C7.4906 2.87661 7.34896 2.66614 7.20572 2.34834C7.05228 2.00897 7.04209 1.75799 7.34091 1.51386C7.1526 1.33128 6.98253 1.16607 6.79476 0.98349Z" fill="white"/>
<path d="M14.7842 12.0964C15.4677 12.0964 16.1088 12.0964 16.7913 12.0964C16.7913 11.9869 16.7913 11.8859 16.7913 11.7854C16.7913 10.1028 16.7913 8.42012 16.7913 6.73694C16.7913 6.65802 16.7666 6.56279 16.8031 6.50438C16.8508 6.42756 16.9426 6.34233 17.0246 6.33233C17.0777 6.32601 17.1636 6.43914 17.2033 6.51438C17.2328 6.57015 17.2113 6.65171 17.2113 6.72169C17.2113 8.40434 17.2113 10.087 17.2113 11.7702C17.2113 11.8728 17.2113 11.9759 17.2113 12.1048C17.4013 12.1048 17.5595 12.108 17.7183 12.1043C17.8932 12.1001 17.9946 12.1795 17.9962 12.3505C18.0011 12.8062 18.0005 13.2618 17.9962 13.7175C17.9946 13.8732 17.9093 13.9595 17.7441 13.9595C16.4393 13.959 15.1346 13.959 13.8298 13.9595C13.6646 13.9595 13.5809 13.8753 13.5803 13.7169C13.5787 13.2613 13.5782 12.8056 13.5819 12.35C13.5835 12.1764 13.6844 12.1006 13.8588 12.1053C14.017 12.1095 14.1758 12.1064 14.3631 12.1064C14.3631 11.9833 14.3631 11.8896 14.3631 11.7954C14.3631 10.1038 14.3631 8.41223 14.3631 6.72063C14.3631 6.65065 14.3416 6.56857 14.3711 6.51333C14.4108 6.43809 14.4983 6.32549 14.5509 6.33233C14.6329 6.34285 14.7236 6.42862 14.7708 6.50596C14.8068 6.56436 14.7832 6.6596 14.7832 6.73852C14.7837 8.42117 14.7837 10.1038 14.7837 11.787C14.7842 11.8812 14.7842 11.9759 14.7842 12.0964ZM17.5644 12.5357C16.3749 12.5357 15.2005 12.5357 14.0154 12.5357C14.0154 12.8767 14.0154 13.2029 14.0154 13.5344C15.2107 13.5344 16.3857 13.5344 17.5644 13.5344C17.5644 13.1929 17.5644 12.8719 17.5644 12.5357Z" fill="white"/>
<path d="M10.5556 2.95444C11.0197 2.95391 11.4837 2.95444 11.9478 2.95391C12.2456 2.95339 12.5186 3.03547 12.7236 3.24698C12.7885 3.31433 12.7745 3.45534 12.7965 3.56215C12.6855 3.56163 12.5701 3.58162 12.465 3.55689C12.2466 3.50638 12.0353 3.38168 11.819 3.37694C10.9091 3.3559 9.99817 3.37116 9.08828 3.36432C8.99117 3.36379 8.88387 3.32275 8.80286 3.26961C8.76799 3.24646 8.75833 3.11544 8.79052 3.0823C8.84953 3.02074 8.94664 2.96128 9.02926 2.9597C9.53786 2.94918 10.047 2.95444 10.5556 2.95444Z" fill="white"/>
<path d="M6.87362 11.3401C6.76739 11.4075 6.6676 11.5169 6.55387 11.5327C6.38219 11.5564 6.2486 11.4269 6.28615 11.2633C6.30976 11.1607 6.45837 11.0192 6.55279 11.0176C6.66009 11.016 6.76954 11.1512 6.87791 11.227C6.8763 11.2649 6.87523 11.3022 6.87362 11.3401Z" fill="white"/>
<path d="M16.6732 4.20177C16.6764 4.68005 16.2875 5.07151 15.7998 5.08098C15.3191 5.08993 14.9103 4.70057 14.9022 4.22545C14.8937 3.73612 15.2939 3.33256 15.7885 3.33203C16.2698 3.33098 16.67 3.72455 16.6732 4.20177ZM15.7885 4.669C16.0418 4.66795 16.2569 4.44538 16.2499 4.19177C16.2429 3.95027 16.0289 3.74296 15.7864 3.74401C15.5332 3.74507 15.3175 3.96763 15.325 4.22071C15.332 4.46222 15.5471 4.67005 15.7885 4.669Z" fill="white"/>
<path d="M3.58217 3.22736C3.57895 2.42655 4.22489 1.78674 5.03822 1.78516C5.85155 1.78358 6.51144 2.42076 6.5168 3.2121C6.52163 3.99818 5.85208 4.66114 5.05378 4.66114C4.23991 4.66061 3.58538 4.02343 3.58217 3.22736ZM5.05431 2.19925C4.4749 2.19819 4.01083 2.64385 4.00492 3.20684C3.99902 3.78035 4.47704 4.25652 5.05217 4.24968C5.61549 4.24284 6.09619 3.77035 6.09726 3.22104C6.09887 2.66753 5.62246 2.20082 5.05431 2.19925Z" fill="white"/>
</g>
<defs>
<clipPath id="clip0_1442_485">
<rect width="18" height="14" fill="white"/>
</clipPath>
</defs>
</svg>
