<svg width="17" height="17" viewBox="0 0 17 17" fill="none" xmlns="http://www.w3.org/2000/svg">
<path d="M14.6651 9.65421C14.4483 9.42575 14.2215 9.19994 14.0106 8.96019C13.8856 8.81806 13.7639 8.7915 13.6096 8.89842C13.5824 8.91702 13.5524 8.93894 13.5212 8.94292C12.91 9.02129 12.8801 9.42376 12.8914 9.93315C12.9226 11.3597 12.902 12.787 12.902 14.26C13.176 14.26 13.4341 14.26 13.6961 14.26C13.6961 14.8445 13.7446 15.3884 13.6834 15.9204C13.611 16.5506 13.0044 16.9956 12.3201 16.9983C10.9015 17.0029 9.48299 16.9996 8.06444 16.9996C5.88108 16.9996 3.69772 17.0003 1.51437 16.9989C0.566005 16.9983 0.00403847 16.4404 0.000713226 15.4993C-0.000616874 15.1028 0.000713226 14.7063 0.000713226 14.2707C0.273384 14.2707 0.522112 14.2707 0.816064 14.2707C0.816064 14.0581 0.816064 13.8848 0.816064 13.7114C0.816064 11.4202 0.814069 9.12954 0.816729 6.83826C0.817394 6.05258 1.10736 5.76833 1.89943 5.76766C3.28473 5.76567 4.67003 5.767 6.05533 5.767C6.21893 5.767 6.38319 5.767 6.57872 5.767C6.57872 5.2058 6.57872 4.68047 6.57872 4.11462C6.93984 4.11462 7.26971 4.10067 7.59691 4.11993C7.79177 4.13122 7.87091 4.05618 7.92212 3.88217C7.97133 3.71348 8.07708 3.5594 8.11166 3.39004C8.13494 3.27648 8.1203 3.10579 8.04914 3.03074C7.82303 2.79165 7.56233 2.5851 7.32158 2.37192C7.88953 1.81005 8.39164 1.31394 8.92302 0.788606C9.13317 0.993825 9.37459 1.21565 9.59738 1.45407C9.72241 1.58757 9.82682 1.6221 9.99774 1.53178C10.2199 1.41423 10.4593 1.32922 10.7107 1.22163C10.7107 0.830446 10.7107 0.434619 10.7107 0.0195312C11.4362 0.0195312 12.1412 0.0195312 12.9027 0.0195312C12.9027 0.334998 12.912 0.661755 12.8987 0.987848C12.8914 1.1665 12.9612 1.23491 13.1162 1.33054C13.6715 1.6739 14.0845 1.54174 14.4343 1.03235C14.5008 0.935381 14.6052 0.864318 14.6664 0.805873C15.1845 1.3239 15.6892 1.82799 16.2605 2.39848C16.051 2.58311 15.7897 2.789 15.5622 3.02742C15.4904 3.10247 15.4744 3.27183 15.4957 3.38672C15.6134 4.03559 16.0238 4.2428 16.6456 4.11861C16.7513 4.09735 16.865 4.11595 16.9994 4.11595C16.9994 4.84185 16.9994 5.55448 16.9994 6.293C16.6057 6.293 16.2113 6.293 15.8136 6.293C15.6846 6.5819 15.5502 6.84557 15.4531 7.12185C15.4279 7.19291 15.4944 7.32773 15.5589 7.39348C15.7903 7.62792 16.0397 7.8451 16.2638 8.05164C15.7132 8.60421 15.2144 9.10431 14.6651 9.65421ZM2.48467 14.2726C4.41265 14.2726 6.32068 14.2726 8.22871 14.2726C8.22871 14.4699 8.22871 14.6213 8.22871 14.8086C6.94516 14.8086 5.67691 14.8086 4.41199 14.8086C4.3794 15.2742 4.43659 15.3446 4.84427 15.3446C6.19565 15.3466 7.54703 15.3459 8.89908 15.3446C9.30343 15.3439 9.3573 15.2715 9.29212 14.8192C9.1345 14.8113 8.9729 14.8033 8.80131 14.7953C8.80131 14.616 8.80131 14.4573 8.80131 14.2587C9.62199 14.2587 10.4247 14.2587 11.2287 14.2587C11.2287 12.9623 11.2287 11.7064 11.2287 10.4399C11.0485 10.4273 10.8889 10.4153 10.7113 10.4027C10.7113 9.98363 10.7113 9.5878 10.7113 9.18732C10.5125 9.10896 10.3083 9.06579 10.1494 8.95753C9.86606 8.76427 9.66854 8.84064 9.48166 9.08438C9.31606 9.30089 9.14182 9.51076 8.99285 9.69672C8.3943 9.10364 7.89286 8.60686 7.33887 8.05829C7.561 7.88162 7.79243 7.69766 8.02454 7.51303C8.00326 7.48314 7.98197 7.45392 7.96003 7.42403C6.13979 7.42403 4.31955 7.42403 2.48467 7.42403C2.48467 9.70469 2.48467 11.9654 2.48467 14.2726ZM7.15332 4.6539C7.15332 5.03578 7.15332 5.38246 7.15332 5.76434C7.46989 5.76434 7.7665 5.75638 8.06244 5.76966C8.14491 5.77364 8.27326 5.81947 8.29854 5.87924C8.49672 6.36406 8.67496 6.85619 8.89442 7.43864C8.67097 7.63124 8.39563 7.86901 8.17683 8.05762C8.44019 8.33789 8.67895 8.59093 8.95827 8.8878C9.19369 8.62613 9.43644 8.35648 9.63662 8.13333C10.154 8.3359 10.6169 8.50791 11.0705 8.70317C11.1509 8.7377 11.2341 8.86389 11.2407 8.95288C11.262 9.2471 11.2487 9.5433 11.2487 9.85545C11.6371 9.85545 11.9836 9.85545 12.3633 9.85545C12.3633 9.47091 12.3633 9.11028 12.3633 8.79747C12.9206 8.56503 13.4341 8.35051 14.0346 8.10013C14.2374 8.33922 14.4722 8.6155 14.7109 8.8971C14.9889 8.62148 15.231 8.37973 15.5409 8.07223C15.245 7.8265 14.957 7.58741 14.7302 7.39879C14.9404 6.85752 15.1106 6.39461 15.3042 5.94167C15.3381 5.86197 15.4684 5.78161 15.5595 5.77497C15.8535 5.75372 16.1508 5.767 16.4587 5.767C16.4587 5.37449 16.4587 5.02848 16.4587 4.65125C16.1361 4.65125 15.8382 4.66254 15.5416 4.64394C15.4578 4.63863 15.3368 4.56557 15.3062 4.49318C15.1113 4.02828 14.9371 3.55541 14.7169 2.98359C14.9337 2.79697 15.2157 2.55522 15.4964 2.31414C15.2184 2.03188 14.9776 1.78747 14.6823 1.48795C14.4276 1.77685 14.1809 2.05645 13.9834 2.28026C13.4547 2.07704 12.9905 1.90768 12.5362 1.71508C12.4564 1.68121 12.3766 1.55104 12.37 1.46005C12.3487 1.1665 12.362 0.870295 12.362 0.56147C11.9729 0.56147 11.6264 0.56147 11.2474 0.56147C11.2474 0.881585 11.2587 1.17912 11.2401 1.47466C11.2347 1.55967 11.1636 1.6832 11.0904 1.71375C10.6255 1.90901 10.152 2.08368 9.56745 2.30882C9.38456 2.087 9.14781 1.80009 8.9177 1.52115C8.62641 1.80474 8.38034 2.04317 8.07375 2.34203C8.3697 2.58909 8.65633 2.82951 8.89376 3.02809C8.65101 3.60921 8.44019 4.11396 8.21474 4.65457C8.07575 4.65457 7.90017 4.65457 7.7246 4.65457C7.54171 4.6539 7.35616 4.6539 7.15332 4.6539ZM0.540068 14.8265C0.540068 15.0477 0.540734 15.2343 0.540068 15.4209C0.538073 16.1223 0.870598 16.4583 1.57023 16.4583C3.6525 16.4597 5.73411 16.4603 7.81638 16.461C9.27816 16.4617 10.7399 16.4623 12.2017 16.4603C12.7032 16.4597 13.1002 16.2066 13.1527 15.8055C13.1953 15.4847 13.1614 15.1533 13.1614 14.8272C12.0541 14.8272 10.9847 14.8272 9.91793 14.8272C9.84478 15.5425 9.61667 15.8785 9.11987 15.8839C7.6142 15.9011 6.10853 15.8978 4.60286 15.8799C4.16924 15.8746 3.88061 15.5365 3.85534 15.1022C3.85002 15.0158 3.84603 14.9301 3.84071 14.8259C2.74471 14.8265 1.66533 14.8265 0.540068 14.8265ZM7.99793 6.85287C7.89219 6.30761 7.89219 6.30761 7.41801 6.30761C5.57981 6.30761 3.74095 6.30761 1.90276 6.30761C1.41594 6.30761 1.38402 6.33816 1.38335 6.80837C1.38269 9.17537 1.38269 11.5424 1.38402 13.9087C1.38402 14.0243 1.39665 14.1405 1.40264 14.2454C1.5975 14.2454 1.7478 14.2454 1.93069 14.2454C1.93069 11.7742 1.93069 9.32547 1.93069 6.85221C3.96507 6.85287 5.96554 6.85287 7.99793 6.85287ZM12.3387 14.2461C12.3387 12.9636 12.3387 11.7011 12.3387 10.4505C12.1512 10.4505 11.9916 10.4505 11.8446 10.4505C11.8446 11.733 11.8446 12.9875 11.8446 14.2461C12.0241 14.2461 12.1744 14.2461 12.3387 14.2461Z" fill="white"/>
<path d="M1.0927 4.92071C0.483515 4.91872 -0.00130653 4.43389 0.00135367 3.83152C0.00401387 3.24309 0.518762 2.73237 1.10401 2.73635C1.69391 2.741 2.19602 3.25106 2.19269 3.84281C2.19003 4.44784 1.70521 4.9227 1.0927 4.92071ZM1.64336 3.84281C1.64735 3.55723 1.41325 3.31814 1.12063 3.30884C0.807394 3.29888 0.558665 3.52867 0.554675 3.83218C0.550685 4.10847 0.797418 4.36549 1.0774 4.37877C1.36604 4.39139 1.63937 4.13304 1.64336 3.84281Z" fill="white"/>
<path d="M1.08795 2.18839C0.487415 2.18241 -0.0040569 1.68364 0.0012635 1.08458C0.00658389 0.48885 0.510692 -0.00527067 1.10791 4.2452e-05C1.70712 0.00535557 2.19726 0.504125 2.1926 1.10517C2.18795 1.70622 1.69115 2.1937 1.08795 2.18839ZM1.64527 1.09521C1.64527 0.822248 1.39122 0.562569 1.11456 0.551943C0.82792 0.541317 0.55259 0.806973 0.551925 1.09455C0.551925 1.38145 0.829916 1.64977 1.11522 1.63848C1.39188 1.62785 1.64527 1.36817 1.64527 1.09521Z" fill="white"/>
<path d="M2.75195 1.10186C2.75195 0.884687 2.75195 0.733263 2.75195 0.558594C3.65842 0.558594 4.55091 0.558594 5.44274 0.558594C5.58307 1.03877 5.5425 1.09655 5.06234 1.09788C4.4199 1.09987 3.77746 1.1012 3.13502 1.10252C3.01598 1.10186 2.89693 1.10186 2.75195 1.10186Z" fill="white"/>
<path d="M2.75525 3.57013C2.75525 3.37288 2.75525 3.21349 2.75525 3.00429C3.18088 3.00429 3.59654 3.00429 4.01286 3.00429C4.44315 3.00429 4.8741 2.99432 5.30305 3.01558C5.37222 3.0189 5.4906 3.15903 5.4886 3.23408C5.48594 3.34698 5.40015 3.55486 5.34562 3.55619C4.4897 3.57611 3.63245 3.57013 2.75525 3.57013Z" fill="white"/>
<path d="M5.49198 1.67383C5.49198 1.85115 5.49198 1.99262 5.49198 2.16264C4.58352 2.16264 3.68504 2.16264 2.76062 2.16264C2.76062 2.01254 2.76062 1.85514 2.76062 1.67383C3.66243 1.67383 4.56157 1.67383 5.49198 1.67383Z" fill="white"/>
<path d="M5.48403 4.13281C5.48403 4.30217 5.48403 4.4516 5.48403 4.6276C4.57823 4.6276 3.67908 4.6276 2.75732 4.6276C2.75732 4.46688 2.75732 4.30947 2.75732 4.13281C3.66778 4.13281 4.56692 4.13281 5.48403 4.13281Z" fill="white"/>
<path d="M13.1514 6.61776C13.2651 6.73996 13.3828 6.86549 13.5005 6.99167C12.4424 7.91084 10.9647 7.87963 10.0416 6.93522C9.14443 6.01738 9.1145 4.5669 9.97109 3.56737C10.7725 2.63292 12.2655 2.48282 13.2731 3.2353C14.3252 4.02164 14.5832 5.44356 13.857 6.56264C13.714 6.46966 13.571 6.37734 13.432 6.28702C13.9228 5.06766 13.702 4.12192 12.8168 3.58729C11.9775 3.08055 10.968 3.24659 10.3342 3.99574C9.73433 4.70437 9.74564 5.74575 10.3615 6.45638C11.0624 7.26663 12.0108 7.3264 13.1514 6.61776Z" fill="white"/>
<path d="M1.63798 15.3633C1.63798 15.5353 1.63798 15.6854 1.63798 15.874C1.4797 15.8846 1.32142 15.8946 1.12988 15.9072C1.12988 15.7146 1.12988 15.5486 1.12988 15.3633C1.29482 15.3633 1.44578 15.3633 1.63798 15.3633Z" fill="white"/>
<path d="M2.20862 15.8731C2.20862 15.7038 2.20862 15.5524 2.20862 15.373C2.36757 15.373 2.52585 15.373 2.71206 15.373C2.71206 15.5245 2.71206 15.6839 2.71206 15.8731C2.56043 15.8731 2.40215 15.8731 2.20862 15.8731Z" fill="white"/>
</svg>
