<svg width="17" height="17" viewBox="0 0 17 17" fill="none" xmlns="http://www.w3.org/2000/svg">
<path d="M-6.83594e-05 11.1017C0.0915723 10.8991 0.245635 10.8249 0.465107 10.8282C1.09032 10.8377 1.71554 10.8313 2.34075 10.8316C2.63394 10.8316 2.73421 10.9076 2.82319 11.2084C3.16685 11.1513 3.51315 11.0939 3.89433 11.0308C3.79007 10.9228 3.70706 10.8309 3.61774 10.7455C2.91583 10.074 2.42675 9.27487 2.21159 8.31368C1.95892 7.18502 2.06683 6.09452 2.55989 5.04757C2.64755 4.86155 2.78634 4.79976 2.93044 4.87607C3.06591 4.94798 3.08948 5.08573 3.00813 5.27141C2.30954 6.86699 2.42675 8.3893 3.45306 9.80088C3.74026 10.1959 4.11313 10.5264 4.45081 10.8823C4.47737 10.9103 4.5398 10.9197 4.58163 10.9126C5.30513 10.7908 6.02763 10.6615 6.75146 10.5416C7.32022 10.4477 7.88534 10.4886 8.4478 10.6068C8.78249 10.677 9.12349 10.7192 9.45485 10.8019C9.96054 10.9282 10.3593 11.2081 10.5164 11.7385C10.6903 12.3262 10.3171 12.9161 9.68993 13.0163C9.39542 13.0636 9.0853 13.0359 8.78481 13.0103C8.38903 12.9765 7.99624 12.909 7.60146 12.8604C7.38298 12.8333 7.2422 12.9424 7.21165 13.1521C7.18741 13.3182 7.31358 13.4924 7.50052 13.5261C8.30403 13.6713 9.10489 13.8445 9.91438 13.9377C10.2577 13.9772 10.6203 13.8475 10.9729 13.7885C11.0098 13.7824 11.0413 13.7344 11.0718 13.7024C12.2134 12.5163 13.3712 11.3458 14.4908 10.1388C15.6469 8.89201 15.9056 7.41764 15.4334 5.79269C15.4258 5.76602 15.4142 5.74003 15.4029 5.71437C15.3985 5.70491 15.3902 5.69715 15.378 5.68061C14.522 6.08608 13.6547 6.12288 12.7908 5.70694C11.9278 5.29167 11.4019 4.58909 11.1578 3.64444C10.7631 3.79434 10.4114 3.99928 10.0963 4.26363C9.8835 4.44223 9.68794 4.64244 9.48474 4.83285C9.17894 5.11982 9.03749 5.12523 8.74032 4.82576C8.34985 4.4321 7.94544 4.05836 7.44739 3.8092C6.48517 3.32742 5.4987 3.1863 4.50161 3.67787C4.21407 3.81966 3.96438 4.04722 3.71138 4.25316C3.5437 4.38956 3.42483 4.41893 3.30796 4.29705C3.2027 4.18733 3.21632 4.03776 3.35478 3.89664C4.0889 3.14848 4.97774 2.81762 6.01202 2.88649C7.19804 2.96516 8.15927 3.51513 8.98038 4.35647C9.01558 4.39226 9.0511 4.42771 9.08729 4.46249C9.0946 4.46958 9.10622 4.47228 9.09294 4.46586C9.43559 4.18361 9.75667 3.88854 10.1086 3.63904C10.3689 3.4547 10.6664 3.32236 10.9546 3.18191C11.0516 3.13464 11.0958 3.09548 11.0958 2.97799C11.0954 2.55225 11.1834 2.14272 11.3594 1.75446C11.4563 1.54008 11.5719 1.47289 11.7243 1.54278C11.8744 1.61131 11.9046 1.75008 11.8156 1.95838C11.2193 3.35071 11.8883 4.89463 13.2935 5.36831C14.7272 5.85178 16.2768 4.86763 16.4727 3.34869C16.6755 1.77607 15.4852 0.441474 13.9273 0.50292C13.4289 0.522502 12.9787 0.694686 12.5766 0.996515C12.5241 1.03602 12.4561 1.09713 12.4063 1.08767C12.3136 1.07045 12.2008 1.03028 12.148 0.960053C12.0713 0.857755 12.1078 0.734187 12.2117 0.647758C12.569 0.350318 12.9764 0.155513 13.4266 0.0623307C15.0881 -0.2817 16.647 0.788206 16.9584 2.48068C16.9714 2.55158 16.9853 2.62281 16.9989 2.69371C16.9989 2.89628 16.9989 3.09885 16.9989 3.30142C16.9903 3.32134 16.976 3.34059 16.9734 3.36118C16.8734 4.16268 16.5059 4.81192 15.9036 5.33286C15.867 5.3646 15.8521 5.46116 15.8697 5.51281C16.1257 6.26907 16.212 7.04086 16.1068 7.83527C15.9713 8.85791 15.5619 9.7472 14.8553 10.4893C14.1783 11.2003 13.4943 11.9046 12.8143 12.6122C12.5066 12.9326 12.2004 13.255 11.8783 13.592C11.9232 13.5947 11.9438 13.6007 11.9627 13.5967C12.4704 13.4914 12.9757 13.3739 13.4857 13.2837C13.7434 13.2381 14.0136 13.202 14.2706 13.2317C15.0051 13.3165 15.3361 14.0792 14.9314 14.7071C14.7265 15.0252 14.4237 15.1929 14.0777 15.305C12.5876 15.7882 11.0967 16.2703 9.60958 16.7625C8.85686 17.0117 8.10548 17.0883 7.33185 16.8668C6.19198 16.5407 5.04813 16.2288 3.90595 15.9111C3.54603 15.8111 3.18577 15.7125 2.82718 15.614C2.71163 15.9357 2.62729 15.9934 2.29327 15.9934C1.68499 15.9934 1.07638 15.989 0.468096 15.9955C0.252939 15.9978 0.0938965 15.9259 -0.000732422 15.725C-6.83594e-05 14.1852 -6.83594e-05 12.6436 -6.83594e-05 11.1017ZM2.80128 13.41C2.80128 13.9107 2.80493 14.4114 2.79862 14.9117C2.79696 15.039 2.83083 15.0923 2.95999 15.1274C4.40134 15.5214 5.84368 15.9127 7.27905 16.3297C7.9813 16.5336 8.66495 16.5559 9.35823 16.3094C9.81046 16.1487 10.2707 16.012 10.7272 15.8638C11.808 15.5127 12.8887 15.1615 13.9695 14.8101C14.2122 14.7311 14.4303 14.6163 14.5472 14.3678C14.6907 14.0633 14.5641 13.7962 14.2394 13.7361C14.1222 13.7142 13.9947 13.703 13.8792 13.7257C12.8837 13.9208 11.8896 14.1234 10.8955 14.3263C10.4626 14.4147 10.0333 14.5116 9.58468 14.4242C8.87546 14.2861 8.16325 14.1649 7.45271 14.0339C6.96794 13.9444 6.65384 13.5356 6.72356 13.0913C6.80292 12.5852 7.1738 12.2945 7.65923 12.357C8.15196 12.4208 8.64403 12.4944 9.13843 12.542C9.32071 12.5595 9.5186 12.547 9.69259 12.4927C10.0731 12.3732 10.1764 11.9741 9.92667 11.6574C9.75269 11.4366 9.51894 11.3208 9.248 11.2732C9.0252 11.2341 8.80175 11.1979 8.58128 11.148C7.92253 10.9991 7.26345 10.9515 6.59308 11.072C5.38249 11.2898 4.17024 11.4984 2.957 11.7003C2.82253 11.7226 2.79796 11.7715 2.79895 11.8917C2.80427 12.3975 2.80128 12.9039 2.80128 13.41ZM0.510596 11.3465C0.510596 12.7331 0.510596 14.1065 0.510596 15.4772C1.1129 15.4772 1.70159 15.4772 2.29659 15.4772C2.29659 14.0954 2.29659 12.7256 2.29659 11.3465C1.69827 11.3465 1.10892 11.3465 0.510596 11.3465Z" fill="white"/>
<path d="M9.14942 7.14781C8.84229 7.69306 8.54612 8.21906 8.24928 8.74473C8.08127 9.04217 7.88737 9.04724 7.70807 8.75824C7.53475 8.47903 7.36309 8.19881 7.17317 7.8909C7.03869 8.11744 6.9102 8.31697 6.7993 8.52663C6.705 8.70456 6.57983 8.78221 6.37463 8.77647C5.91045 8.76296 5.44561 8.77411 4.9811 8.77107C4.81309 8.77005 4.71182 8.66911 4.71082 8.51819C4.70983 8.36795 4.81176 8.27308 4.98143 8.26734C5.01994 8.26599 5.05879 8.26701 5.09764 8.26701C5.47914 8.26701 5.86098 8.26363 6.24248 8.26937C6.33844 8.27072 6.3909 8.23797 6.43805 8.15492C6.5951 7.87773 6.7578 7.60359 6.92315 7.33147C7.06824 7.09244 7.26082 7.09176 7.41223 7.32978C7.59451 7.61676 7.77149 7.90711 7.96606 8.22109C8.00723 8.15188 8.03844 8.10259 8.06699 8.05161C8.34158 7.56443 8.61617 7.07725 8.8891 6.58939C8.95086 6.47933 9.01129 6.37534 9.15838 6.375C9.30779 6.37433 9.3659 6.48304 9.42533 6.59277C9.79422 7.27678 10.1628 7.96112 10.5317 8.64514C10.5712 8.71806 10.6127 8.78997 10.6678 8.88822C10.8365 8.60327 11.0161 8.34837 11.1449 8.06916C11.291 7.75315 11.4906 7.63026 11.8429 7.65119C12.405 7.68495 12.9704 7.65997 13.5346 7.66031C13.7474 7.66065 13.8523 7.7464 13.85 7.91555C13.8477 8.08098 13.7397 8.16471 13.5259 8.16505C12.9562 8.16538 12.3867 8.16876 11.817 8.16201C11.7064 8.16066 11.6483 8.2005 11.5955 8.29233C11.3737 8.68059 11.1466 9.06581 10.9201 9.45136C10.7561 9.73091 10.5529 9.73091 10.3998 9.44968C9.99942 8.713 9.60098 7.9753 9.20188 7.23795C9.18992 7.21364 9.17498 7.19068 9.14942 7.14781Z" fill="white"/>
<path d="M14.3003 3.2424C14.3003 3.46624 14.3016 3.6624 14.2996 3.85821C14.2989 3.92506 14.2959 3.9936 14.2817 4.05876C14.2538 4.18638 14.1648 4.25019 14.0409 4.24512C13.9105 4.23972 13.8168 4.1668 13.8102 4.02803C13.7999 3.815 13.7996 3.60095 13.8049 3.38758C13.8075 3.27718 13.7707 3.23936 13.6621 3.24341C13.4689 3.2505 13.275 3.24747 13.0817 3.24308C12.9203 3.23936 12.8217 3.14584 12.8177 3.00303C12.8138 2.86258 12.9101 2.75117 13.0678 2.74475C13.3045 2.73496 13.5419 2.74239 13.8032 2.74239C13.8032 2.54826 13.8029 2.37068 13.8035 2.19275C13.8039 2.11983 13.8022 2.04623 13.8085 1.97364C13.8205 1.83589 13.8998 1.75959 14.0333 1.75081C14.1681 1.7417 14.2664 1.80956 14.282 1.94393C14.3019 2.11611 14.2963 2.291 14.3003 2.46487C14.3023 2.54826 14.3006 2.63165 14.3006 2.74003C14.5207 2.74003 14.7289 2.73395 14.9364 2.74307C15.0211 2.74678 15.1317 2.75691 15.1811 2.81059C15.2383 2.87271 15.2804 3.00033 15.2555 3.07427C15.2313 3.14686 15.1187 3.22822 15.0387 3.23531C14.8033 3.25624 14.5652 3.2424 14.3003 3.2424Z" fill="white"/>
</svg>
