<svg width="42" height="42" viewBox="0 0 42 42" fill="none" xmlns="http://www.w3.org/2000/svg">
<path d="M16.6081 12.7906C16.6081 12.7262 16.6081 12.6619 16.6081 12.5976C16.6081 12.1474 16.651 11.7401 16.7367 11.3328C16.7581 9.93935 17.294 9.31766 17.6155 8.9961C17.9585 8.6531 17.8942 7.34541 20.4449 7.17391C21.1308 7.13104 22.3312 7.77416 23.2957 8.28867C23.5101 8.37442 23.703 8.4816 23.8959 8.58879C24.1317 8.69598 24.3246 8.80316 24.4746 8.86747C25.3106 9.1676 25.6321 10.5825 25.6964 11.3328C25.7821 11.7187 25.8036 12.1474 25.8036 12.5976C25.8036 12.6619 25.8036 12.7048 25.8036 12.7906C25.8893 12.7906 26.6181 12.9192 26.5324 14.1411C26.4466 15.3845 26.1251 16.5636 25.4392 16.7565C25.2463 17.7426 24.9676 18.6859 24.5818 19.329C23.7244 20.6796 22.5026 21.58 21.2594 21.6014H21.238H21.2166C19.9733 21.58 18.7301 20.6796 17.8727 19.329C17.4869 18.7073 17.2083 17.7641 16.9939 16.7565C16.308 16.5636 16.0079 15.3845 15.9007 14.1411C15.815 12.9192 16.5224 12.812 16.6081 12.7906Z" fill="#6E6F71"/>
<path d="M0.767578 21.3653C0.767578 25.7814 2.16084 29.876 4.51866 33.1988C5.91191 35.1925 7.64815 36.9075 9.66301 38.301C9.81305 38.4081 9.9631 38.5153 10.1346 38.6225C11.9994 39.8659 14.1 40.7877 16.3292 41.3451C17.058 41.538 17.7868 41.6881 18.5584 41.7953C19.4801 41.9239 20.4232 41.9882 21.3878 41.9882C22.2452 41.9882 23.0597 41.9453 23.8957 41.8167C24.7531 41.731 25.589 41.5809 26.4035 41.3665C28.6756 40.8092 30.7977 39.8659 32.7053 38.6011C32.8768 38.4939 33.0269 38.3867 33.1769 38.2795C35.1489 36.9075 36.8637 35.1925 38.2355 33.2202C40.6148 29.876 42.008 25.7814 42.008 21.3867C42.008 10.0248 32.7696 0.785193 21.4092 0.785193C10.006 0.763756 0.767578 10.0033 0.767578 21.3653ZM2.78245 21.3653C2.78245 11.1395 11.1206 2.80032 21.3664 2.80032C31.6122 2.80032 39.9503 11.1395 39.9503 21.3653C39.9503 24.9025 38.9428 28.2253 37.2066 31.0551L34.313 24.8596C34.0343 24.2808 33.2626 23.702 32.6196 23.5948L25.9534 22.4157C25.2675 22.2871 24.7745 22.6944 24.8173 23.3375L26.2106 39.3085C25.3961 39.5443 24.5816 39.7158 23.7242 39.8016L22.9097 29.4687L21.7736 25.3527L22.7596 24.4308C22.8454 24.3451 22.8454 24.2165 22.7596 24.1521L21.3449 22.6086C21.2592 22.5229 21.1306 22.5229 21.0448 22.6086L19.6087 24.1521C19.523 24.2165 19.523 24.3237 19.6087 24.4308L20.5947 25.3527L19.4587 29.533L18.6656 39.7587C17.9154 39.6515 17.1866 39.5015 16.4578 39.2871L17.7653 23.3375C17.8082 22.6944 17.3152 22.2871 16.6293 22.4157L10.0703 23.5948C9.4058 23.7234 8.63414 24.3022 8.35549 24.881L5.48324 31.0765C3.7899 28.2253 2.78245 24.9025 2.78245 21.3653Z" fill="#6E6F71"/>
</svg>
