<svg width="151" height="151" viewBox="0 0 151 151" fill="none" xmlns="http://www.w3.org/2000/svg">
<path d="M75.1389 149.278C116.085 149.278 149.278 116.085 149.278 75.1389C149.278 34.1931 116.085 1 75.1389 1C34.1931 1 1 34.1931 1 75.1389C1 116.085 34.1931 149.278 75.1389 149.278Z" fill="white" stroke="url(#paint0_linear_1284_515)" stroke-width="1.64" stroke-miterlimit="10"/>
<path d="M58.5148 75.1378C58.5148 73.2711 59.503 71.5582 61.1281 70.6139C62.7532 69.6915 64.7296 69.6915 66.3547 70.6139C67.9798 71.5362 68.968 73.2711 68.968 75.1378H74.1946V67.3198C72.328 67.3198 70.6151 66.3316 69.6708 64.7065C68.7484 63.0814 68.7484 61.105 69.6708 59.4799C70.5931 57.8548 72.328 56.8666 74.1946 56.8666V50.4102C73.7774 50.4321 73.3821 50.4321 72.9648 50.476C67.9359 51.0909 63.2583 53.3968 59.7007 56.9983C56.143 60.5999 53.925 65.3214 53.4199 70.3723C53.2662 71.9535 53.2882 73.5346 53.4639 75.1158H58.5368L58.5148 75.1378Z" fill="#295198"/>
<path d="M81.9906 75.1378C81.9906 73.2711 82.9788 71.5582 84.6039 70.6139C86.229 69.6915 88.2054 69.6915 89.8305 70.6139C91.4556 71.5362 92.4438 73.2711 92.4438 75.1378H97.5167C97.6046 74.3032 97.6485 73.4687 97.6485 72.6342C97.6485 66.9684 95.4964 61.5222 91.6313 57.3717C87.7443 53.2431 82.4518 50.7396 76.786 50.4102V58.1622C76.786 58.5136 76.6542 58.843 76.4126 59.0846C76.1711 59.3261 75.8417 59.4579 75.4903 59.4579H74.1946C73.2723 59.4579 72.3938 59.963 71.9327 60.7536C71.4715 61.5442 71.4715 62.5543 71.9327 63.3669C72.3938 64.1794 73.2503 64.6626 74.1946 64.6626H75.4903C75.8417 64.6626 76.1711 64.7943 76.4126 65.0359C76.6542 65.2775 76.786 65.6069 76.786 65.9582V75.0938H82.0126L81.9906 75.1378Z" fill="#295198"/>
<path d="M115.261 43.1857C115.261 46.4359 112.626 49.0492 109.397 49.0492C106.169 49.0492 103.534 46.4139 103.534 43.1857C103.534 39.9575 106.169 37.3223 109.397 37.3223C112.626 37.3223 115.261 39.9575 115.261 43.1857Z" fill="#295198"/>
<path d="M94.3325 88.9066L96.0235 86.9082L100.943 91.0807L99.2517 93.0791L94.3325 88.9066Z" fill="#295198"/>
<path d="M48.7644 50.3226L50.4554 48.3242L56.6043 53.5289L54.9134 55.5273L48.7644 50.3226Z" fill="#295198"/>
<path d="M93.5419 54.2095L100.833 48.0605L102.524 50.059L95.2328 56.2079L93.5419 54.2095Z" fill="#295198"/>
<path d="M48.413 92.3983L54.9133 86.9082L56.6043 88.9066L50.1039 94.3968L48.413 92.3983Z" fill="#295198"/>
<path d="M103.249 93.4102H114.997V105.159H103.249V93.4102Z" fill="#295198"/>
<path d="M35.61 105.136H48.8083L42.1981 93.3867L35.588 105.136H35.61Z" fill="#295198"/>
<path d="M37.5205 50.3668L41.5612 48.1488L45.602 50.3668L44.8334 45.6453L48.0835 42.3073L43.5816 41.6265L41.5612 37.3223L39.5409 41.6265L35.0389 42.3073L38.2891 45.6453L37.5205 50.3668Z" fill="#295198"/>
<path d="M91.1262 77.7519C90.7748 77.7519 90.4454 77.6201 90.2039 77.3786C89.9623 77.137 89.8305 76.8076 89.8305 76.4562V75.1605C89.8305 74.2382 89.3254 73.3598 88.5349 72.8986C87.7443 72.4374 86.7341 72.4374 85.9216 72.8986C85.109 73.3598 84.6259 74.2162 84.6259 75.1605V76.4562C84.6259 76.8076 84.4941 77.137 84.2526 77.3786C84.011 77.6201 83.6816 77.7519 83.3302 77.7519H76.8079V82.9785C76.8079 83.3299 76.6762 83.6593 76.4346 83.9008C76.193 84.1424 75.8636 84.2742 75.5123 84.2742H74.2166C73.2942 84.2742 72.4158 84.7793 71.9546 85.5699C71.4935 86.3604 71.4935 87.3706 71.9546 88.1832C72.4158 88.9957 73.2723 89.4788 74.2166 89.4788H75.5123C75.8636 89.4788 76.193 89.6106 76.4346 89.8522C76.6762 90.0937 76.8079 90.4231 76.8079 90.7745V96.5941H86.5804V96.4842C86.5804 93.8709 87.7223 91.3894 89.6988 89.7204C93.3881 86.624 95.9795 82.4295 97.0775 77.7299H91.1482L91.1262 77.7519Z" fill="#295198"/>
<path d="M64.3783 96.616H74.1507V92.1141C72.2841 92.1141 70.5711 91.1259 69.6268 89.5008C68.7045 87.8757 68.7045 85.8993 69.6268 84.2742C70.5492 82.6491 72.2841 81.6609 74.1507 81.6609V77.7519H67.6284C67.2771 77.7519 66.9476 77.6201 66.7061 77.3786C66.4645 77.137 66.3328 76.8076 66.3328 76.4562V75.1605C66.3328 74.2382 65.8277 73.3598 65.0371 72.8986C64.2465 72.4374 63.2363 72.4374 62.4238 72.8986C61.6112 73.3598 61.1281 74.2162 61.1281 75.1605V76.4562C61.1281 76.8076 60.9963 77.137 60.7548 77.3786C60.5132 77.6201 60.1838 77.7519 59.8324 77.7519H53.9031C55.0231 82.4954 57.6364 86.7338 61.3916 89.8302C63.3242 91.4992 64.4222 93.9368 64.4002 96.5062V96.616H64.3783Z" fill="#295198"/>
<path d="M64.3783 103.643C64.3783 103.643 64.3783 103.775 64.3783 103.841H86.5365C86.5365 103.841 86.5365 103.709 86.5365 103.643V99.1191H64.3563V103.643H64.3783Z" fill="#295198"/>
<path d="M73.7115 112.977H77.2032C79.1797 112.977 81.1122 112.341 82.7153 111.177C84.3185 110.013 85.5043 108.344 86.0973 106.455H64.7736C65.3665 108.344 66.5524 109.991 68.1555 111.177C69.7586 112.341 71.6911 112.977 73.6676 112.977H73.7115Z" fill="#295198"/>
<defs>
<linearGradient id="paint0_linear_1284_515" x1="-0.800766" y1="75.1388" x2="151.078" y2="75.1388" gradientUnits="userSpaceOnUse">
<stop stop-color="#FBB11B"/>
<stop offset="0.04" stop-color="#F3A922"/>
<stop offset="0.09" stop-color="#DF9537"/>
<stop offset="0.16" stop-color="#BF7459"/>
<stop offset="0.23" stop-color="#924788"/>
<stop offset="0.25" stop-color="#863B96"/>
<stop offset="0.5" stop-color="#3F4DA1"/>
<stop offset="0.75" stop-color="#3D82C4"/>
<stop offset="1" stop-color="#00ACC1"/>
</linearGradient>
</defs>
</svg>
