<svg width="19" height="20" viewBox="0 0 19 20" fill="none" xmlns="http://www.w3.org/2000/svg">
<g clip-path="url(#clip0_860_2066)">
<path d="M13.2433 14.816C14.2178 14.3055 15.151 13.8015 16.0997 13.3269C16.5354 13.1102 16.9866 12.8896 17.4558 12.7831C18.0835 12.6408 18.6713 12.9742 18.893 13.4949C19.1444 14.0836 18.9343 14.5453 18.4444 14.8878C16.9531 15.9279 15.4836 17.0014 13.9484 17.9749C11.8486 19.3061 9.57864 19.6063 7.15917 18.9368C6.1589 18.6597 5.11222 18.5417 3.95082 18.3263C3.95082 18.7572 3.94953 19.0227 3.95082 19.2882C3.95211 19.7602 3.72267 19.9987 3.24187 19.9974C2.40401 19.9949 1.56616 19.991 0.7283 19.9987C0.242343 20.0038 0.00516535 19.7537 0.00387634 19.2972C-0.00385772 17.2451 -0.0012797 15.1943 0.00645436 13.1422C0.00774337 12.7074 0.253944 12.4676 0.693497 12.4638C1.55198 12.4561 2.41175 12.4522 3.27023 12.4676C3.42877 12.4702 3.68142 12.5305 3.72783 12.6356C3.99465 13.2333 4.43678 13.0601 4.85829 12.9216C6.05578 12.5292 7.2378 12.8537 8.42884 12.9537C9.3247 13.0294 10.2283 13.064 11.128 13.055C12.6039 13.0409 12.9687 13.3025 13.2433 14.816ZM3.97789 17.4811C5.31589 17.7325 6.62939 17.9197 7.91066 18.2339C9.67016 18.6662 11.3472 18.4981 12.8746 17.5773C14.5748 16.5525 16.1977 15.4008 17.8438 14.2888C17.974 14.2003 18.0217 13.99 18.108 13.8361C17.9044 13.7566 17.671 13.5719 17.5009 13.6181C17.1168 13.7232 16.743 13.9079 16.4014 14.1195C13.8865 15.6791 11.1783 16.4666 8.20198 16.1639C7.99831 16.1434 7.81527 15.9254 7.62321 15.7997C7.82043 15.6573 8.00863 15.4098 8.21616 15.3918C8.83359 15.3405 9.46134 15.4149 10.0814 15.3739C10.6563 15.3367 11.2428 15.2738 11.7867 15.102C12.0162 15.0289 12.301 14.6338 12.2791 14.412C12.2585 14.2093 11.8692 14.0272 11.6191 13.8746C11.5263 13.8181 11.3678 13.8758 11.2389 13.8707C9.99886 13.8143 8.74465 13.8528 7.52267 13.6706C6.29553 13.4872 5.15089 13.6963 3.9766 13.9618C3.97789 15.1712 3.97789 16.3627 3.97789 17.4811ZM0.88427 19.1099C1.64092 19.1099 2.33569 19.1099 3.04852 19.1099C3.04852 17.1656 3.04852 15.2648 3.04852 13.3577C2.30347 13.3577 1.60869 13.3577 0.88427 13.3577C0.88427 15.2828 0.88427 17.1681 0.88427 19.1099Z" fill="#939393"/>
<path d="M14.6896 1.68526C14.4498 1.66731 14.2049 1.64935 13.9381 1.62883C13.9097 1.38002 13.8852 1.17353 13.8543 0.904194C13.6429 0.887521 13.4354 0.85674 13.2291 0.85674C11.0816 0.852892 8.93285 0.867 6.78536 0.845197C6.29167 0.840067 6.11121 0.964473 6.1125 1.48903C6.11379 2.03668 6.30327 2.18289 6.82661 2.17135C8.1762 2.14185 9.52708 2.16109 11.0082 2.16109C10.343 2.6818 9.79649 3.06528 8.98957 2.9832C8.22389 2.90496 7.44404 2.98961 6.67193 2.9614C6.10992 2.94087 6.1357 3.27947 6.1241 3.66936C6.1125 4.07464 6.18468 4.32218 6.67579 4.30037C7.33834 4.27216 8.00218 4.29268 8.67763 4.29268C8.58482 4.94934 8.26128 5.22509 7.62837 5.12761C7.39764 5.0917 7.15659 5.1212 6.92071 5.12248C6.15761 5.12377 5.93075 5.40464 6.15375 6.13954C6.19113 6.26395 6.41413 6.39861 6.56107 6.41016C7.00449 6.44607 7.45436 6.42298 7.92484 6.42298C7.92484 6.72695 7.92484 6.97063 7.92484 7.28614C7.44662 7.28614 7.00062 7.29896 6.55463 7.28229C6.07512 7.26433 6.11894 7.5901 6.13312 7.88893C6.1473 8.18135 6.00164 8.58407 6.53787 8.58151C6.83821 8.58022 7.1437 8.61613 7.43889 8.57509C8.0473 8.49173 8.31412 8.74695 8.3051 9.42029C7.60775 9.42029 6.91039 9.42029 6.19499 9.42029C6.16664 9.64474 6.15246 9.78966 6.13054 9.93331C6.04031 10.522 6.23366 10.8093 6.88977 10.7464C7.42213 10.6964 7.96996 10.7926 8.49716 10.7221C9.16874 10.6323 9.49744 11.0171 9.92539 11.5326C8.60157 11.5326 7.38733 11.5698 6.17566 11.516C5.61752 11.4903 5.30558 11.0453 5.28237 10.5028C5.26304 10.0628 5.35843 9.61908 5.39323 9.17661C5.40354 9.03937 5.38936 8.90086 5.37776 8.76234C5.34425 8.34039 5.2914 7.91971 5.27335 7.49647C5.25531 7.07067 5.25402 6.6423 5.27206 6.21649C5.31976 5.03142 5.40096 3.84635 5.42417 2.66C5.43319 2.20469 5.2798 1.74811 5.27464 1.29152C5.26562 0.410414 5.68841 0.00513018 6.57654 0.00256509C8.83102 -0.00128254 11.0868 0 13.3426 0.00128254C14.4511 0.00256509 14.8571 0.491215 14.6896 1.68526Z" fill="#939393"/>
<path d="M18.4277 7.19739C18.4341 9.89459 16.2828 12.0493 13.5797 12.0518C10.8689 12.0557 8.71114 9.91639 8.70856 7.22176C8.70598 4.52329 10.8316 2.38914 13.5552 2.35579C16.217 2.32501 18.4212 4.51431 18.4277 7.19739ZM13.59 11.1835C15.8007 11.172 17.6221 9.35335 17.5937 7.18585C17.5653 4.99911 15.7311 3.19586 13.5475 3.20868C11.3613 3.22151 9.53224 5.05939 9.54642 7.22946C9.55931 9.42133 11.3717 11.1951 13.59 11.1835Z" fill="#939393"/>
<path d="M2.0379 17.4648C2.21708 17.7996 2.4014 17.9881 2.38078 18.151C2.36144 18.2985 2.07657 18.5512 1.98634 18.5217C1.80846 18.4639 1.58417 18.2536 1.56613 18.0856C1.54937 17.9432 1.79299 17.7701 2.0379 17.4648Z" fill="#939393"/>
<path d="M13.8376 6.92213C13.05 6.92213 12.2611 6.92213 11.4516 6.92213C11.4748 6.25521 11.7455 5.96407 12.408 6.03461C12.8708 6.08463 13.3439 6.04359 13.8221 5.96792C13.1157 5.39462 12.2431 5.81401 11.4568 5.59726C11.4812 5.04577 11.703 4.77515 12.3217 4.79824C13.4315 4.83928 14.5439 4.80978 15.6783 4.80978C15.6447 5.39719 15.4772 5.75758 14.8224 5.66139C14.8185 5.72936 14.8159 5.79606 14.812 5.86403C15.0815 5.94996 15.3509 6.03461 15.6718 6.13721C15.6125 6.46683 15.6628 6.8875 15.0853 6.93624C14.9938 6.94393 14.8855 7.0786 14.8352 7.17864C14.4692 7.91482 13.8492 8.20981 12.9056 8.20724C13.5475 8.7831 14.1005 9.28073 14.7179 9.83479C13.9832 9.9515 13.4006 9.94765 12.9056 9.38846C12.5679 9.00755 12.1167 8.72795 11.7571 8.36371C11.6114 8.21622 11.4464 7.88276 11.5148 7.77246C11.6424 7.56853 11.9182 7.38898 12.1618 7.33896C12.5125 7.26714 12.8901 7.34409 13.2523 7.30946C13.4637 7.29022 13.6648 7.17992 13.8711 7.10938C13.8595 7.0491 13.8479 6.98498 13.8376 6.92213Z" fill="#939393"/>
</g>
<defs>
<clipPath id="clip0_860_2066">
<rect width="19" height="20" fill="white"/>
</clipPath>
</defs>
</svg>
