<svg width="12" height="16" viewBox="0 0 12 16" fill="none" xmlns="http://www.w3.org/2000/svg">
<path d="M6.34618 0.00410256C6.54988 0.0287179 6.7581 0.0451282 6.95727 0.0779487C9.0893 0.426667 10.6193 1.49333 11.5065 3.27795C12.1493 4.57436 12.1538 5.89949 11.5382 7.22051C11.1851 7.97538 10.7913 8.70974 10.316 9.40308C8.84486 11.5528 7.36467 13.7026 5.89353 15.8482C5.86184 15.8974 5.82563 15.9426 5.78036 16C5.74415 15.9467 5.71246 15.9015 5.6853 15.8605C4.35901 13.8256 3.01914 11.799 1.72001 9.74769C0.995751 8.60308 0.416347 7.39692 0.0949589 6.10051C-0.0770517 5.40308 0.00442704 4.70974 0.208124 4.02872C0.683416 2.45744 1.73359 1.31282 3.33147 0.570256C4.02857 0.246154 4.77546 0.065641 5.55856 0.0205128C5.59024 0.0205128 5.62646 0.00410256 5.65814 0C5.88447 0.00410256 6.11533 0.00410256 6.34618 0.00410256ZM2.54385 5.25949C2.53479 6.97436 4.06931 8.37333 5.96595 8.38154C7.85354 8.38974 9.39711 6.99897 9.41069 5.2759C9.42427 3.56923 7.8807 2.16615 5.98406 2.15795C4.08741 2.14974 2.5529 3.53641 2.54385 5.25949Z" fill="#939393"/>
</svg>
