<svg width="86" height="100" viewBox="0 0 86 100" fill="none" xmlns="http://www.w3.org/2000/svg">
<g clip-path="url(#clip0_1056_1012)">
<path d="M85.2832 46.1147C85.2832 24.4453 66.62 7.04721 44.2142 8.58176C24.9638 9.90128 9.53552 25.4716 8.68945 44.4043C8.03251 58.919 15.7665 71.7232 27.5219 78.5358C36.092 83.5011 43.0098 90.8122 46.8918 99.8241L46.9614 100L47.0411 99.8143C50.8732 90.9002 57.6318 83.5304 66.1522 78.6727C77.589 72.1728 85.2832 60.0332 85.2832 46.1147Z" fill="#FFAD01"/>
<path d="M19.0517 46.1146C19.0517 30.9782 31.5475 18.7077 46.9619 18.7077C62.3763 18.7077 74.8721 30.9782 74.8721 46.1146C74.8721 61.251 62.3763 73.5215 46.9619 73.5215C31.5475 73.5215 19.0517 61.251 19.0517 46.1146Z" fill="white"/>
<g clip-path="url(#clip1_1056_1012)">
<path d="M46.3263 66.5226C38.7887 66.2328 32.8305 63.1627 28.7119 56.9137C26.9408 54.2256 25.9341 51.2513 25.6612 48.0758C25.2353 43.1176 26.468 38.5591 29.4431 34.501C32.4866 30.3508 36.5971 27.6987 41.6845 26.5273C45.1656 25.7255 48.6395 25.8414 52.0819 26.8013C52.3944 26.8882 52.7023 27.0243 53.0445 26.962C53.5874 26.8627 53.9512 26.5 53.9998 26.0004C54.0557 25.4243 53.7936 24.9931 53.2345 24.8078C51.9549 24.3845 50.6367 24.1123 49.2987 23.9498C44.5894 23.3782 40.0791 24.0851 35.8749 26.2287C29.218 29.6237 25.0354 34.9638 23.7118 42.1596C22.1973 50.3959 24.7779 57.4459 31.1152 63.0916C34.4603 66.0704 38.47 67.8065 42.9569 68.4713C52.0099 69.8122 61.0872 65.7068 65.909 58.1036C67.7829 55.1486 68.9093 51.9441 69.2812 48.4964C69.6044 45.4949 69.2803 42.5451 68.3771 39.6577C68.1745 39.0087 67.7468 38.7145 67.121 38.7628C66.5889 38.8032 66.2008 39.1685 66.1008 39.7139C66.0567 39.9554 66.1323 40.1784 66.2026 40.3997C66.9617 42.7883 67.239 45.2411 67.031 47.7201C66.5979 52.8908 64.4836 57.3168 60.6244 60.9137C57.6889 63.6501 54.1997 65.3599 50.2261 66.1353C48.9439 66.3856 47.6427 66.4734 46.3263 66.5226Z" fill="#5C5C5C"/>
<path d="M30.3277 46.0814C30.3736 53.8541 36.0194 60.3438 43.7316 61.6162C52.2525 63.0213 60.3285 57.668 62.1555 49.3974C62.4535 48.0468 62.5409 46.6768 62.4526 45.2972C62.4076 44.5912 61.9448 44.0897 61.3091 44.0467C60.5923 43.9984 60.0683 44.5367 60.134 45.2735C60.378 48.0134 59.7441 50.568 58.3196 52.9136C56.0586 56.637 52.6928 58.8544 48.3085 59.4744C41.3932 60.4527 34.8794 56.1654 33.083 49.5405C31.0552 42.062 36.0482 34.3772 43.8478 32.973C45.0012 32.7649 46.1583 32.6454 47.3343 32.7895C48.0231 32.8738 48.5751 32.411 48.6426 31.7515C48.7038 31.1543 48.2347 30.6063 47.5378 30.5475C46.233 30.4368 44.9283 30.4895 43.638 30.7196C40.1037 31.3484 37.0909 32.93 34.6453 35.496C32.3141 37.9426 30.9211 40.8335 30.4781 44.1547C30.3871 44.8379 30.3763 45.5247 30.3277 46.0814Z" fill="#5C5C5C"/>
<path d="M57.0877 39.4547C57.673 39.4547 58.2583 39.4477 58.8436 39.4574C59.2884 39.4644 59.6558 39.3256 59.9736 39.0148C62.2085 36.8273 64.4488 34.645 66.6891 32.4628C67.0691 32.093 67.1771 31.661 66.988 31.1798C66.7917 30.6783 66.3721 30.4957 65.8445 30.4957C64.899 30.4965 63.9526 30.4658 63.009 30.5018C62.5498 30.5194 62.4624 30.3639 62.4777 29.9547C62.5101 29.0634 62.4831 28.1694 62.4876 27.2772C62.4903 26.752 62.3301 26.3147 61.7961 26.1092C61.2639 25.9037 60.8128 26.0556 60.4121 26.4491C58.2205 28.5962 56.0252 30.7398 53.8209 32.8737C53.4535 33.2294 53.2906 33.6255 53.2969 34.1251C53.3122 35.2369 53.2933 36.3495 53.3068 37.4622C53.3104 37.7476 53.2248 37.9513 53.0159 38.1542C50.6955 40.4032 48.3832 42.6601 46.0699 44.9161C45.8898 45.0917 45.7044 45.2647 45.5432 45.4562C45.1389 45.9365 45.1641 46.5416 45.5927 46.9631C46.0321 47.396 46.693 47.4347 47.1685 46.9938C48.0059 46.2175 48.8127 45.4105 49.6303 44.614C51.297 42.9903 52.9655 41.3674 54.6241 39.7358C54.8312 39.532 55.0374 39.4407 55.3327 39.4521C55.9171 39.4741 56.5033 39.4583 57.0886 39.4583C57.0877 39.4574 57.0877 39.4565 57.0877 39.4547ZM60.1492 29.9565C60.1663 29.9688 60.187 29.9775 60.187 29.9854C60.1933 30.4965 60.1933 31.0085 60.2023 31.5196C60.2149 32.2669 60.6741 32.7122 61.4395 32.7192C61.9726 32.7236 62.5056 32.7201 63.1008 32.7201C63.0288 32.8263 63.0063 32.8773 62.9685 32.9141C61.5584 34.2902 60.1465 35.6637 58.7355 37.0389C58.65 37.1223 58.568 37.1987 58.4303 37.1978C57.5046 37.1943 56.579 37.1961 55.6101 37.1961C55.6101 36.3258 55.6182 35.496 55.6047 34.667C55.6002 34.414 55.6767 34.2323 55.8631 34.0522C57.2165 32.7455 58.5599 31.4283 59.9079 30.1154C59.9772 30.0487 60.0276 29.9442 60.1492 29.9565Z" fill="#5C5C5C"/>
<path d="M46.4224 55.1133C51.1182 55.1185 55.018 51.7095 55.5403 47.1395C55.5763 46.8207 55.6114 46.4984 55.6033 46.1779C55.588 45.5491 55.1261 45.0881 54.512 45.0521C53.9195 45.0178 53.4053 45.4051 53.3315 46.0242C53.2469 46.7338 53.219 47.4451 53.0056 48.1389C52.0853 51.1317 49.0373 53.1444 45.8462 52.8485C42.628 52.5499 40.1464 50.3141 39.6034 47.2238C38.9182 43.3239 42.0283 39.6074 46.0929 39.4669C46.2279 39.4625 46.3639 39.4617 46.4963 39.4415C47.1554 39.3449 47.5912 38.8707 47.5615 38.2902C47.5291 37.6605 47.0257 37.1934 46.3342 37.2039C44.3775 37.2337 42.5803 37.7773 41.0135 38.9277C38.3032 40.9168 37.0579 43.5961 37.2587 46.8857C37.5072 50.9718 40.9775 54.5337 45.1222 55.0342C45.5571 55.0878 45.9875 55.1124 46.4224 55.1133Z" fill="#5C5C5C"/>
<path d="M72.0575 24.1271C71.9593 24.0384 71.8522 23.9418 71.7315 23.8329C71.5289 23.9418 71.3966 24.0972 71.2804 24.2852C71.5244 24.1596 71.7306 23.7987 72.0305 24.1894C72.0332 24.1929 72.0602 24.1868 72.0629 24.1798C72.0674 24.1701 72.0611 24.1552 72.0575 24.1271Z" fill="#5C5C5C"/>
</g>
</g>
<defs>
<clipPath id="clip0_1056_1012">
<rect width="100" height="86" fill="white" transform="matrix(1.19249e-08 -1 -1 -1.19249e-08 86 100)"/>
</clipPath>
<clipPath id="clip1_1056_1012">
<rect width="44.9614" height="48.7731" fill="white" transform="matrix(1.19249e-08 -1 -1 -1.19249e-08 72.0645 68.7227)"/>
</clipPath>
</defs>
</svg>
