<svg width="138" height="138" viewBox="0 0 138 138" fill="none" xmlns="http://www.w3.org/2000/svg">
<path d="M68.827 136.654C106.287 136.654 136.654 106.287 136.654 68.827C136.654 31.3672 106.287 1 68.827 1C31.3672 1 1 31.3672 1 68.827C1 106.287 31.3672 136.654 68.827 136.654Z" fill="white" stroke="url(#paint0_linear_1284_574)" stroke-width="1.64" stroke-miterlimit="10"/>
<path d="M98.3406 44.1543H93.6192C92.9763 44.1543 92.4338 44.6767 92.4338 45.3397V58.3184H90.0631V50.061C90.0631 49.398 89.5407 48.8757 88.8777 48.8757H84.1564C83.5135 48.8757 82.971 49.398 82.971 50.061V58.3184H80.6003V54.7824C80.6003 54.1194 80.0779 53.597 79.4149 53.597H74.6935C74.0506 53.597 73.5082 54.1194 73.5082 54.7824V58.3184H71.1375V60.6891H101.836V58.3184H99.4657V45.3397C99.4657 44.6767 98.9433 44.1543 98.2803 44.1543H98.3406ZM75.9191 58.3184V55.9477H78.2898V58.3184H75.9191ZM85.3618 58.3184V51.2263H87.7326V58.3184H85.3618ZM94.8046 58.3184V46.5049H97.1753V58.3184H94.8046Z" fill="#FAA21E"/>
<path d="M78.0487 50.7455L83.2522 43.4725L87.0092 46.2853C87.4713 46.6469 88.1343 46.5866 88.5562 46.1848L95.9899 38.7512V40.6196H98.3606V35.8983C98.3606 35.2353 97.8382 34.7129 97.1752 34.7129H92.4538V37.0836H94.3223L87.6119 43.794L83.7143 40.8607C83.4531 40.6598 83.1317 40.5995 82.8303 40.6397C82.5088 40.6799 82.2276 40.8607 82.0467 41.1219L76.14 49.3793L78.0687 50.7455H78.0487Z" fill="#FAA21E"/>
<path d="M50.6045 36.9419L48.937 41.1409L43.5526 46.5252H39.3134C38.6705 46.5252 38.1281 47.0476 38.1281 47.7106V57.1533C38.1281 57.8163 38.6504 58.3387 39.3134 58.3387H43.9544L58.0984 60.3679C58.2592 60.388 58.44 60.4081 58.6007 60.4081C60.3084 60.4081 61.8354 59.1423 62.0965 57.4145L63.4828 48.4741C63.7038 47.4293 63.4426 46.3444 62.7796 45.5006C62.0965 44.6568 61.092 44.1947 60.0272 44.1947H56.3907L58.1386 39.5336C58.5404 38.4487 58.3998 37.2231 57.7368 36.2789C57.0738 35.3145 55.9889 34.752 54.8236 34.752H53.9195C52.473 34.752 51.1671 35.6159 50.6246 36.982L50.6045 36.9419ZM40.4988 48.8759H42.8695V55.968H40.4988V48.8759ZM53.8994 37.0624H54.8035C55.2053 37.0624 55.5469 37.2432 55.7679 37.5647C55.9889 37.8861 56.0492 38.288 55.9085 38.6496L53.5579 44.8979C53.4173 45.2595 53.4775 45.6613 53.6985 45.9828C53.9195 46.3042 54.2812 46.4851 54.6629 46.4851H60.0071C60.3687 46.4851 60.6902 46.6458 60.9313 46.9271C61.1523 47.2083 61.2527 47.57 61.1523 47.9919L59.766 56.9926C59.6655 57.6355 59.0628 58.0775 58.44 57.9771L45.2402 56.0885V48.1526L50.8054 42.5874C50.926 42.4669 51.0063 42.3463 51.0666 42.1856L52.8346 37.7656C53.0154 37.3236 53.4373 37.0222 53.9396 37.0222L53.8994 37.0624Z" fill="#FAA21E"/>
<path d="M75.2963 91.8106C77.1045 90.3038 78.2497 88.0134 78.2497 85.482C78.2497 80.9213 74.5328 77.2246 69.9923 77.2246C65.4517 77.2246 61.7349 80.9414 61.7349 85.482C61.7349 88.0134 62.8801 90.2837 64.6883 91.8106C60.2683 93.0964 57.0135 97.1749 57.0135 102.017V104.388C57.0135 105.051 57.5359 105.573 58.1989 105.573H81.8058C82.4487 105.573 82.9911 105.051 82.9911 104.388V102.017C82.9911 97.1749 79.7364 93.0964 75.3164 91.8106H75.2963ZM64.0856 85.482C64.0856 82.2273 66.7376 79.5752 69.9923 79.5752C73.247 79.5752 75.899 82.2273 75.899 85.482C75.899 88.7367 73.247 91.3887 69.9923 91.3887C66.7376 91.3887 64.0856 88.7367 64.0856 85.482ZM80.6204 103.182H59.3642V101.997C59.3642 97.4361 63.081 93.7394 67.6216 93.7394H72.3429C76.9036 93.7394 80.6003 97.4562 80.6003 101.997V103.182H80.6204Z" fill="#FAA21E"/>
<path d="M34.9737 69.2494C34.7326 69.4704 34.5719 69.7919 34.5719 70.1334V84.2975C34.5719 84.9003 35.034 85.4025 35.6166 85.4628L46.2447 86.6482C46.2447 86.6482 46.3251 86.6482 46.3653 86.6482C46.4055 86.6482 46.4456 86.6482 46.4858 86.6482L57.1139 85.4628C57.7167 85.4025 58.1587 84.9003 58.1587 84.2975V70.1334C58.1587 69.7919 58.018 69.4704 57.7568 69.2494C57.5157 69.0284 57.1742 68.9079 56.8327 68.9481L46.3452 70.1133L35.8577 68.9481C35.5162 68.9079 35.1947 69.0083 34.9335 69.2494H34.9737ZM55.8281 83.2327L47.5707 84.1569V72.3635L55.8281 71.4393V83.2327ZM36.9426 71.4393L45.2 72.3635V84.1569L36.9426 83.2327V71.4393Z" fill="#FAA21E"/>
<path d="M49.5598 74.9139L53.0958 73.7285L53.8392 75.9586L50.3032 77.144L49.5598 74.9139Z" fill="#FAA21E"/>
<path d="M49.5598 79.6365L53.0958 78.4512L53.8392 80.6813L50.3032 81.8666L49.5598 79.6365Z" fill="#FAA21E"/>
<path d="M95.9699 65.4121C90.7664 65.4121 86.5272 69.6513 86.5272 74.8548C86.5272 76.4219 86.9089 77.9087 87.592 79.1945L82.8706 83.9159C81.4442 85.3423 81.4442 87.693 82.8706 89.1194C83.5939 89.8427 84.5382 90.2043 85.4824 90.2043C86.4267 90.2043 87.371 89.8427 88.0943 89.1194L93.2978 83.9159C94.1416 84.1569 95.0457 84.2976 95.9699 84.2976C101.173 84.2976 105.413 80.0584 105.413 74.8548C105.413 69.6513 101.173 65.4121 95.9699 65.4121ZM91.0075 82.8711L86.4267 87.4519C85.9043 87.9742 85.0605 87.9742 84.5583 87.4519C84.0359 86.9295 84.0359 86.1058 84.5583 85.5834L88.9582 81.1835C88.9582 81.1835 89.0385 81.2639 89.0988 81.304C89.3399 81.5451 89.581 81.7862 89.8422 82.0072C89.8824 82.0474 89.9225 82.0876 89.9627 82.1278C90.2641 82.3889 90.6056 82.61 90.9271 82.831C90.9472 82.831 90.9874 82.8711 91.0075 82.8912V82.8711ZM95.9699 81.9269C95.0658 81.9269 94.2019 81.746 93.4184 81.4447C93.0768 81.3241 92.7554 81.1634 92.454 80.9826C92.4339 80.9826 92.4138 80.9625 92.3937 80.9424C92.1124 80.7817 91.8312 80.5808 91.5901 80.3799C91.5901 80.3799 91.5499 80.3598 91.5298 80.3397C91.2887 80.1388 91.0476 79.9178 90.8266 79.6767C90.7864 79.6164 90.7262 79.5762 90.686 79.5159C90.465 79.2749 90.2641 79.0137 90.0833 78.7525C89.3399 77.6274 88.8979 76.2813 88.8979 74.8348C88.8979 70.9371 92.0723 67.7427 95.99 67.7427C99.9077 67.7427 103.082 70.917 103.082 74.8348C103.082 78.7525 99.9077 81.9269 95.99 81.9269H95.9699Z" fill="#FAA21E"/>
<path d="M91.2485 74.8547H93.6193C93.6193 73.5488 94.6841 72.484 95.99 72.484V70.1133C93.3782 70.1133 91.2686 72.2228 91.2686 74.8347L91.2485 74.8547Z" fill="#FAA21E"/>
<path d="M83.5938 95.0067L84.7188 97.0761C89.4402 94.4843 93.3981 90.7072 96.2109 86.1064L94.2018 84.8809C91.61 89.12 87.9535 92.6159 83.5938 95.0067Z" fill="#FAA21E"/>
<path d="M97.758 64.4679L100.068 64.0058C99.9077 63.1821 99.6867 62.3583 99.4657 61.5547L97.1954 62.2177C97.4164 62.9611 97.5973 63.7245 97.758 64.488V64.4679Z" fill="#FAA21E"/>
<path d="M58.9423 41.483L59.7861 43.693C65.8937 41.3222 72.8452 41.1816 79.0533 43.2911L79.8167 41.061C73.0863 38.7908 65.5723 38.9515 58.9423 41.503V41.483Z" fill="#FAA21E"/>
<path d="M45.4412 88.5568C48.053 92.0325 51.4484 94.9859 55.2656 97.0753L56.4108 95.0059C52.8949 93.0772 49.7607 90.3649 47.3297 87.1504L45.4412 88.5768V88.5568Z" fill="#FAA21E"/>
<defs>
<linearGradient id="paint0_linear_1284_574" x1="127.5" y1="105.959" x2="10.104" y2="31.629" gradientUnits="userSpaceOnUse">
<stop stop-color="#FBB11B"/>
<stop offset="0.04" stop-color="#F3A922"/>
<stop offset="0.09" stop-color="#DF9537"/>
<stop offset="0.16" stop-color="#BF7459"/>
<stop offset="0.23" stop-color="#924788"/>
<stop offset="0.25" stop-color="#863B96"/>
<stop offset="0.5" stop-color="#3F4DA1"/>
<stop offset="0.75" stop-color="#3D82C4"/>
<stop offset="1" stop-color="#00ACC1"/>
</linearGradient>
</defs>
</svg>
