<?xml version="1.0" encoding="utf-8"?>
<!-- Svg Vector Icons : http://www.onlinewebfonts.com/icon -->
<!DOCTYPE svg PUBLIC "-//W3C//DTD SVG 1.1//EN" "http://www.w3.org/Graphics/SVG/1.1/DTD/svg11.dtd">
<svg version="1.1" xmlns="http://www.w3.org/2000/svg" xmlns:xlink="http://www.w3.org/1999/xlink" x="0px" y="0px" viewBox="0 0 256 256" enable-background="new 0 0 256 256" xml:space="preserve">
<metadata> Svg Vector Icons : http://www.onlinewebfonts.com/icon </metadata>
<g><g><g><path fill="#000000" d="M73.4,52.4c-10.4,2.1-24.8,5-32,6.5c-14,2.8-14.8,3.1-14.8,5.6c0,3.1-1.2,2.8,34.2,10.2l32.5,6.8l27.6-5.6l27.6-5.6l0.1,13l0.1,13l-3.5,15.4c-1.9,8.5-3.5,15.9-3.5,16.3c0,0.5,0.5,1.3,1.1,1.9c1,1,1.5,1,9.4,1c7.8,0,8.4,0,9.3-0.9c0.5-0.5,0.9-1.5,0.9-2.3c0-0.7-1.6-8.2-3.5-16.7l-3.4-15.4V82.3V68.8l2.2-0.3c3.9-0.6,5.4-3.5,3.3-5.9c-1-1.1-3.5-1.6-34.4-7.7c-18.3-3.5-33.6-6.5-33.9-6.4C92.5,48.5,83.8,50.3,73.4,52.4z M153.3,117.5c0.6,2.5,1.1,5,1.2,5.5c0.2,1,0.1,1.1-2.4,1.1c-2.3,0-2.6-0.1-2.4-0.8c0.1-0.4,0.7-2.9,1.2-5.5c0.6-2.6,1.1-4.7,1.2-4.7C152.3,113,152.8,115,153.3,117.5z"/><path fill="#000000" d="M154.7,50.1c-3.9,0.8-7.2,1.6-7.4,1.6c-0.1,0,3.1,0.8,7.3,1.6c8.7,1.8,10.9,2.9,12.8,6c2.9,4.9,1.3,11.3-3.3,14.1c-1.6,0.9-1.6,1-1.6,4.3c0,3,0.1,3.4,0.9,3.4c0.5,0,12.6-2.4,27-5.3c14.4-2.9,26.5-5.3,27-5.3c0.8,0,0.9,0.6,0.9,12.5v12.5l-3.5,15.3c-1.9,8.5-3.5,16.1-3.5,17c0,2.9,0.9,3.1,10.6,2.9l8.4-0.1l0.9-1.2l0.9-1.2l-3.5-16l-3.5-16V82.5V68.8l1.8-0.3c2.2-0.4,3.7-1.3,4.2-2.8c0.6-1.4-0.1-3.2-1.3-3.9c-0.9-0.4-66.8-13.4-67.7-13.3C162.1,48.6,158.7,49.3,154.7,50.1z M223,118.1c0.5,2.4,1.1,4.7,1.2,5.2c0.2,0.7-0.1,0.8-2.3,0.8c-1.4,0-2.6-0.2-2.6-0.5c0-0.6,1.8-8.6,2.2-9.9C221.8,112.6,221.8,112.5,223,118.1z"/><path fill="#000000" d="M58.5,85.7l0.1,4.1l3.2,0.8c16.4,4.1,44.2,4.1,62.8,0.1l3.3-0.7v-4.1c0-4.1,0-4.1-1-4c-0.6,0.1-8.4,1.7-17.5,3.5l-16.4,3.3l-16.5-3.5c-9-1.9-16.9-3.5-17.3-3.5C58.4,81.7,58.4,82,58.5,85.7z"/><path fill="#000000" d="M179.6,85.2c-9,1.8-16.5,3.4-16.7,3.4c-0.2,0-0.4,1.2-0.4,2.6v2.6l7.3-0.3c4-0.2,9.8-0.6,13-1c5.6-0.7,13.4-2.2,14.3-2.8c0.3-0.2,0.5-2,0.5-4.2c0-3.4-0.1-3.9-0.8-3.8C196.4,81.7,188.6,83.3,179.6,85.2z"/><path fill="#000000" d="M58.4,99.1c0,2.1-0.1,2.3-2,3.7c-1.1,0.8-2.6,2.3-3.4,3.4l-1.3,1.9l-0.1,8.3c-0.1,6.9,0,8.6,0.6,10.3c0.9,2.5,4.1,5.3,7.3,6.6l2.4,1l0.8,5.6c3.5,25.4,18.4,39.8,36.7,35.5c8.4-2,16.2-9.4,20.4-19.5c1.9-4.7,4-12.9,4.4-17.7l0.3-3.9l2.9-1.2c3.3-1.4,6-3.8,7-6.1c0.5-1.2,0.6-4,0.6-10.9c0-11.7-0.6-13.4-5.2-15.3c-1.5-0.6-1.7-0.9-1.7-2.4c0-1.3-0.1-1.6-0.8-1.4c-8.4,2.6-28.9,4.3-42.3,3.5c-10.2-0.6-21.2-2.1-25.7-3.5C58.5,96.8,58.4,97.1,58.4,99.1z"/><path fill="#000000" d="M191.8,98.1c-6.1,1.2-17.2,2.4-22.7,2.4c-2.2,0-4.2,0.2-4.6,0.4c-0.4,0.2,0.2,3.5,2.2,12.8c3.2,14.2,3.3,16.4,1.2,19.5c-0.7,1-2.1,2.4-3.2,3.1l-1.9,1.3h-10.7h-10.7l-2-1.4l-2-1.4l-1.8,1.4c-1,0.8-2.3,1.8-2.9,2.1c-0.9,0.7-0.9,0.8-0.3,4.4c0.7,4.2,2.5,10.3,4.1,13.9l1.1,2.4h3.1c9.7,0,21.8,5.1,29.6,12.4c3,2.8,3.1,2.8,7.5-0.4c7.5-5.6,13.4-17,15.1-29.1c1.2-8.8,0.8-7.8,3.6-8.8c3.4-1.2,6.7-4.5,7.4-7.3c0.4-1.4,0.5-4.9,0.4-10.8c-0.1-7.3-0.3-9-1-10.5c-1-2-2.7-3.5-4.5-3.9c-1.1-0.2-1.3-0.5-1.3-1.8c0-0.8-0.1-1.6-0.3-1.7C197,97.1,194.6,97.5,191.8,98.1z"/><path fill="#000000" d="M59.6,162.1c-0.7,0.9-1.2,1.8-1,2c0.2,0.4,6.9,5.2,8.4,6.2c0.3,0.2-0.4-1.1-1.6-2.8c-1.2-1.8-2.6-4.1-3-5.1c-0.5-1-1-1.9-1.2-1.9S60.2,161.2,59.6,162.1z"/><path fill="#000000" d="M124.3,162.4c-0.6,1.1-2,3.5-3.3,5.3l-2.3,3.4l4.3-3.1c2.3-1.7,4.5-3.2,4.7-3.5c0.4-0.3-1.7-4.1-2.3-4.1C125.4,160.5,124.8,161.3,124.3,162.4z"/><path fill="#000000" d="M193.6,162.4c-0.5,1.1-1.8,3.3-3,5.1c-1.2,1.8-2.1,3.2-1.9,3.2c0.1,0,8-5.5,8.9-6.3c0.2-0.2-2.4-3.9-2.8-3.9C194.6,160.5,194.1,161.3,193.6,162.4z"/><path fill="#000000" d="M39.5,166.7C21.9,170.5,10,184.8,10,202c0,2.8,0.1,3.4,1.2,4.3l1.1,1.2h80.8c80,0,80.9,0,82-0.9c1.4-1.2,1.8-3.2,1.2-8.3c-2-17.3-16.5-31-34.2-32.1l-4.1-0.2l-21.7,15.5c-16.1,11.5-22,15.5-23,15.5c-1,0-6.7-3.9-22.8-15.4L49.1,166l-3.3,0C44,166.1,41.2,166.4,39.5,166.7z"/><path fill="#000000" d="M193.6,175.7l-13.4,9.7l1.3,4c1.6,4.9,2.5,12.3,1.9,15.7l-0.4,2.4h30.4h30.4l1.1-1.2c1-0.9,1.2-1.5,1.2-4c0-14.8-9.3-28.2-23.2-33.6c-4.5-1.8-9.3-2.8-12.9-2.7h-2.9L193.6,175.7z"/><path fill="#000000" d="M100.8,182.2c-3.7,1-10.1,1.1-14.5,0.2c-1.8-0.4-3.3-0.7-3.4-0.7s2.2,1.7,5,3.7c2.9,2,5.4,3.6,5.8,3.5c0.8-0.3,10.4-7.2,10.4-7.5c0-0.1,0-0.1-0.1-0.1C103.8,181.3,102.5,181.7,100.8,182.2z"/></g></g></g>
</svg>