<svg width="49" height="48" viewBox="0 0 49 48" fill="none" xmlns="http://www.w3.org/2000/svg">
<path d="M7.12018 29.2624C7.51703 29.1203 7.91611 28.9699 8.31967 28.8334C11.0367 27.9163 13.6357 28.25 16.1012 29.6407C17.5751 30.472 18.9932 31.4014 20.4537 32.2572C22.8135 33.6401 25.189 34.9962 27.5556 36.368C28.7562 37.0639 28.9725 37.3263 29.4543 38.62C29.5532 38.5972 29.6583 38.5771 29.7617 38.5493C33.1248 37.6511 36.4936 36.7725 39.8483 35.8448C41.652 35.3461 43.2316 36.1117 44.0175 37.2767C45.4361 39.3783 44.3757 42.1881 41.9002 42.8601C38.7383 43.7181 35.5635 44.5299 32.4111 45.4203C30.182 46.0499 27.986 46.7948 25.7636 47.4506C24.9817 47.6818 24.174 47.8579 23.3652 47.961C22.0489 48.1287 20.8299 47.7147 19.6958 47.0996C17.8563 46.1017 16.0442 45.0525 14.2243 44.0184C13.553 43.6368 12.9007 43.2206 12.2233 42.8506C11.8756 42.6606 11.4961 42.5236 11.1216 42.3893C10.973 42.3358 10.798 42.3536 10.5962 42.3352C10.7673 42.9726 10.9249 43.5627 11.0831 44.1527C11.2429 44.7489 11.1328 44.9528 10.542 45.1083C9.75949 45.3144 8.98369 45.5707 8.1872 45.6961C6.76358 45.9206 5.46628 45.0459 5.07838 43.6535C4.62731 42.0349 4.20196 40.4097 3.76599 38.7866C3.07737 36.2231 2.38764 33.6596 1.70126 31.0949C1.26529 29.4652 2.11655 27.9781 3.74195 27.5291C4.42386 27.3407 5.10744 27.1597 5.79158 26.9791C6.21638 26.8671 6.47293 27.0176 6.58919 27.4382C6.75184 28.0288 6.91282 28.6194 7.07603 29.21C7.08161 29.2262 7.0995 29.2384 7.12018 29.2624ZM11.3905 29.4273C10.0831 29.4312 8.85401 29.7778 7.65229 30.2592C7.43207 30.3472 7.39294 30.4453 7.45443 30.672C8.09665 33.0266 8.72657 35.3851 9.35985 37.7425C9.65386 38.8362 9.94506 39.9299 10.2474 41.0214C10.2704 41.1044 10.3766 41.2326 10.4341 41.2281C11.3787 41.1462 12.1819 41.5223 12.9617 41.9781C14.3914 42.8138 15.8067 43.6741 17.251 44.4837C18.4745 45.1695 19.7153 45.8303 20.9774 46.4427C21.9897 46.9335 23.0768 46.9893 24.1712 46.7213C24.7223 46.5864 25.2757 46.4521 25.8145 46.2766C29.124 45.198 32.4564 44.1984 35.8279 43.3281C37.7562 42.8306 39.6779 42.3074 41.6001 41.7886C43.1813 41.3619 43.97 39.7054 43.2942 38.249C42.7604 37.0984 41.5179 36.5585 40.1954 36.9112C36.7155 37.8394 33.2372 38.7733 29.7561 39.6965C29.537 39.7544 29.4459 39.8569 29.3872 40.0715C28.8674 41.9814 26.7116 42.9409 24.9789 41.9831C22.7889 40.7724 20.6337 39.4992 18.4667 38.2467C18.3599 38.1849 18.2565 38.0835 18.2006 37.9754C18.0832 37.7475 18.1207 37.523 18.3102 37.3391C18.5069 37.1486 18.7512 37.1285 19.0295 37.2873C19.878 37.7715 20.7237 38.2601 21.5699 38.7476C22.8599 39.4903 24.1455 40.2414 25.4411 40.9735C26.284 41.4499 27.3175 41.2527 27.9217 40.5289C28.5326 39.7973 28.5544 38.7415 27.9183 38.0228C27.673 37.7458 27.3354 37.5363 27.01 37.3463C24.4652 35.857 21.9086 34.3867 19.3649 32.8963C18.0648 32.1346 16.7999 31.3128 15.4869 30.574C14.2243 29.8641 12.865 29.4245 11.3905 29.4273ZM5.63396 28.1782C5.11862 28.3147 4.6424 28.4395 4.1673 28.5665C2.97956 28.8841 2.48825 29.7293 2.80629 30.9116C3.52676 33.5916 4.24779 36.2716 4.96826 38.9515C5.35896 40.4035 5.74687 41.8566 6.14036 43.3075C6.36673 44.141 7.11962 44.7288 7.91611 44.6101C8.58293 44.511 9.23353 44.3037 9.92438 44.136C8.48958 38.8011 7.06652 33.508 5.63396 28.1782Z" fill="#575757"/>
<path d="M48.9985 15.6092C48.9985 20.5491 48.9985 25.4883 48.9985 30.4282C48.9985 31.0684 48.8476 31.2194 48.2126 31.2194C41.0034 31.2194 33.7936 31.2194 26.5844 31.2194C26.0657 31.2194 25.874 31.0305 25.874 30.5157C25.874 20.5903 25.874 10.6643 25.874 0.738958C25.874 0.195719 26.0613 0.000153531 26.5788 0.000710698C33.7696 0.000710698 40.9604 0.00126787 48.1511 0.00126787C48.2534 0.00126787 48.3562 -0.00318948 48.4585 0.00461087C48.7715 0.0280119 48.9711 0.226921 48.9957 0.540606C49.0035 0.642011 48.9985 0.74453 48.9985 0.847048C48.9985 5.7674 48.9985 10.6883 48.9985 15.6092ZM47.8616 30.0967C47.8616 20.422 47.8616 10.7813 47.8616 1.13789C40.8994 1.13789 33.958 1.13789 27.0115 1.13789C27.0115 10.8025 27.0115 20.4432 27.0115 30.0967C33.968 30.0967 40.9039 30.0967 47.8616 30.0967Z" fill="#575757"/>
<path d="M20.6309 15.0829C19.6852 15.5893 18.7982 16.0573 17.9223 16.546C17.8452 16.5889 17.8094 16.7633 17.8089 16.8769C17.8021 19.0031 17.8044 21.1292 17.8038 23.2554C17.8038 23.3668 17.8077 23.4794 17.7926 23.5891C17.7552 23.8616 17.5674 24.0393 17.293 24.0716C17.2192 24.08 17.1443 24.0772 17.0699 24.0772C12.9623 24.0772 8.8552 24.0778 4.74755 24.0772C4.10924 24.0772 3.95274 23.9201 3.95274 23.2916C3.95274 21.156 3.94939 19.0209 3.95833 16.8853C3.95945 16.6674 3.89014 16.556 3.69954 16.4563C2.60346 15.8824 1.51576 15.2924 0.421919 14.714C0.183251 14.5881 -0.00287545 14.431 0.00103713 14.1446C0.00494971 13.8604 0.19443 13.7078 0.43198 13.5813C3.77276 11.7989 7.11187 10.0137 10.4465 8.22134C10.7394 8.06366 10.992 8.05308 11.286 8.21076C14.6548 10.0193 18.0268 11.8212 21.3995 13.6231C21.6477 13.7557 21.7572 13.949 21.7561 14.231C21.7505 15.3915 21.7494 16.5521 21.7617 17.7127C21.7628 17.8397 21.8332 17.9968 21.9243 18.0866C22.2412 18.3969 22.4386 18.7708 22.5576 19.1847C22.8466 20.1932 22.8449 21.2039 22.5012 22.1985C22.4117 22.457 22.2748 22.7127 22.1065 22.9289C21.5912 23.5914 20.7461 23.5847 20.2671 22.8977C20.0541 22.5918 19.8948 22.2291 19.7953 21.8692C19.5488 20.9738 19.5706 20.0684 19.8395 19.1758C19.9697 18.7446 20.162 18.3456 20.5236 18.0487C20.5745 18.0069 20.6259 17.9294 20.6265 17.8681C20.6326 16.9583 20.6309 16.0501 20.6309 15.0829ZM1.75387 14.1407C1.87572 14.2126 1.9523 14.261 2.03222 14.3039C4.89455 15.835 7.75856 17.3639 10.6175 18.9011C10.8037 19.0014 10.9417 19.0064 11.1284 18.9056C13.9963 17.3645 16.8682 15.8311 19.7389 14.295C19.8149 14.2544 19.8864 14.2053 19.9882 14.1429C19.8898 14.0861 19.8356 14.0515 19.7786 14.0215C16.8754 12.4675 13.9712 10.9164 11.0714 9.35629C10.8998 9.2638 10.7819 9.30559 10.6365 9.38359C8.92395 10.3035 7.20968 11.22 5.49541 12.1371C4.26575 12.7957 3.03664 13.4537 1.75387 14.1407ZM5.08795 22.9434C8.95972 22.9434 12.8086 22.9434 16.6597 22.9434C16.6597 21.029 16.6597 19.1357 16.6597 17.2196C16.5619 17.2675 16.4948 17.2987 16.4294 17.3333C14.7229 18.2453 13.0137 19.1524 11.3129 20.0745C11.0099 20.2383 10.7556 20.2439 10.451 20.0784C8.79931 19.1819 7.13981 18.2999 5.48256 17.4141C5.36239 17.35 5.23942 17.292 5.08851 17.2168C5.08795 19.1424 5.08795 21.0306 5.08795 22.9434ZM21.1927 18.963C20.5952 19.67 20.608 21.6669 21.2005 22.2458C21.774 21.7432 21.7986 19.5469 21.1927 18.963Z" fill="#575757"/>
<path d="M34.2144 16.1695C34.2144 15.677 34.2138 15.1967 34.2144 14.7164C34.2149 13.8912 34.6218 13.4784 35.444 13.4767C36.7855 13.4745 38.127 13.4739 39.4684 13.4756C40.2179 13.4767 40.6494 13.9029 40.6567 14.6462C40.6612 15.1471 40.6578 15.648 40.6578 16.1918C40.7741 16.1918 40.8719 16.1918 40.9697 16.1918C41.7897 16.1918 42.6091 16.1895 43.4291 16.1923C44.3122 16.1957 44.8583 16.74 44.8588 17.6187C44.8605 20.3488 44.8599 23.0789 44.8588 25.809C44.8583 26.6866 44.3077 27.241 43.4313 27.2415C39.4349 27.2432 35.4385 27.2438 31.4426 27.2415C30.5662 27.241 30.0184 26.686 30.0184 25.8057C30.0173 23.0851 30.0173 20.3644 30.0184 17.6432C30.019 16.725 30.5522 16.1962 31.48 16.1929C32.3464 16.1895 33.2128 16.1901 34.0791 16.1884C34.1048 16.1895 34.1328 16.1817 34.2144 16.1695ZM35.0668 22.1719C33.9416 22.0509 33.8242 21.9501 33.5051 20.8742C33.1781 19.7705 32.8427 18.6695 32.5213 17.5641C32.466 17.373 32.3855 17.2833 32.1754 17.3017C31.963 17.32 31.7472 17.3033 31.5331 17.305C31.1614 17.3083 31.1341 17.3356 31.1341 17.7034C31.1335 19.6997 31.1341 21.696 31.1341 23.6924C31.1341 23.7915 31.1341 23.8907 31.1341 23.9944C35.3552 23.9944 39.5388 23.9944 43.7421 23.9944C43.7421 23.2099 43.7421 22.4493 43.7421 21.6888C43.7421 20.3516 43.7432 19.0144 43.7415 17.6772C43.7409 17.3529 43.6946 17.3095 43.3681 17.3056C43.1446 17.3033 42.9193 17.32 42.698 17.2994C42.4822 17.2794 42.4045 17.3802 42.3559 17.5669C42.2715 17.89 42.1692 18.2082 42.0731 18.5285C41.7986 19.4445 41.532 20.3627 41.2464 21.2748C41.0547 21.8883 40.6847 22.144 40.0458 22.1512C39.9653 22.1524 39.8843 22.1602 39.8105 22.1641C39.6422 22.8817 39.3985 23.0739 38.6792 23.0739C37.8503 23.0739 37.0214 23.0734 36.1919 23.0734C35.4703 23.0739 35.2289 22.8828 35.0668 22.1719ZM33.6253 17.3245C33.6487 17.4181 33.6633 17.4877 33.6834 17.5563C34.0003 18.6227 34.3256 19.6869 34.6297 20.7566C34.7018 21.0096 34.8152 21.0976 35.0601 21.0118C35.2328 20.3672 35.4742 20.127 35.9879 20.1231C36.9554 20.1159 37.9229 20.117 38.891 20.1215C39.3169 20.1237 39.6288 20.3616 39.7428 20.7505C39.7686 20.8374 39.7853 20.9266 39.8038 21.0057C40.0765 21.1082 40.1777 20.9912 40.2476 20.7494C40.555 19.6802 40.8786 18.616 41.195 17.549C41.2151 17.4816 41.2252 17.412 41.2447 17.3239C38.6965 17.3245 36.1729 17.3245 33.6253 17.3245ZM31.1346 25.1466C31.1346 25.3366 31.1341 25.4931 31.1346 25.6497C31.1363 26.1183 31.1469 26.1283 31.6259 26.1283C35.472 26.1283 39.3186 26.1283 43.1647 26.1283C43.2765 26.1283 43.3994 26.1556 43.4967 26.1177C43.5906 26.0809 43.7164 25.984 43.727 25.901C43.7577 25.6575 43.7381 25.4073 43.7381 25.1471C39.5271 25.1466 35.3496 25.1466 31.1346 25.1466ZM39.5282 14.6111C38.1163 14.6111 36.7358 14.6111 35.3535 14.6111C35.3535 15.1476 35.3535 15.6602 35.3535 16.1723C36.7576 16.1723 38.1387 16.1723 39.5282 16.1723C39.5282 15.6457 39.5282 15.1393 39.5282 14.6111ZM38.6406 21.9473C38.6406 21.7044 38.6406 21.4799 38.6406 21.2564C37.8229 21.2564 37.0275 21.2564 36.2282 21.2564C36.2282 21.496 36.2282 21.7133 36.2282 21.9473C37.0342 21.9473 37.8229 21.9473 38.6406 21.9473Z" fill="#575757"/>
<path d="M37.4085 5.0921C34.7446 5.0921 32.0813 5.0921 29.4174 5.0921C29.3335 5.0921 29.2491 5.09545 29.1664 5.08597C28.892 5.05366 28.6913 4.83692 28.6757 4.56335C28.6611 4.30817 28.8316 4.06914 29.091 4.00841C29.2067 3.98111 29.3307 3.97944 29.4509 3.97944C34.7782 3.97832 40.106 3.97832 45.4332 3.97888C45.4796 3.97888 45.5266 3.97777 45.573 3.97944C45.9609 3.99114 46.2012 4.20565 46.204 4.54162C46.2068 4.86255 45.9469 5.09322 45.5679 5.09322C43.3607 5.09489 41.1534 5.09377 38.9456 5.09322C38.4331 5.0921 37.9205 5.0921 37.4085 5.0921Z" fill="#575757"/>
<path d="M37.4367 8.25887C34.7823 8.25887 32.1279 8.25942 29.4729 8.25887C29.3706 8.25887 29.2672 8.265 29.1661 8.2533C28.8939 8.22209 28.6854 7.997 28.6725 7.73067C28.6591 7.4532 28.8575 7.20582 29.1409 7.15846C29.232 7.14342 29.3265 7.14565 29.4193 7.14565C34.756 7.14509 40.0933 7.14453 45.4301 7.14453C45.458 7.14453 45.486 7.14509 45.5139 7.14509C45.9426 7.1501 46.2042 7.36238 46.2025 7.70393C46.2009 8.04603 45.9398 8.25775 45.5123 8.25775C42.8204 8.25887 40.1285 8.25831 37.4367 8.25887Z" fill="#575757"/>
<path d="M37.408 11.4233C34.7536 11.4238 32.0992 11.4238 29.4448 11.4233C29.3425 11.4233 29.2385 11.4283 29.1385 11.4116C28.8674 11.3653 28.6701 11.1274 28.6729 10.8633C28.6757 10.5842 28.8853 10.3507 29.1715 10.3162C29.2637 10.305 29.3576 10.3095 29.4504 10.3095C34.7871 10.3089 40.1239 10.3089 45.4601 10.3095C45.5439 10.3095 45.6283 10.3061 45.711 10.3173C45.9972 10.3552 46.2057 10.592 46.204 10.8689C46.2023 11.1358 46.0067 11.3692 45.7328 11.411C45.6143 11.4294 45.4914 11.4221 45.3706 11.4227C42.7162 11.4233 40.0618 11.4227 37.408 11.4233Z" fill="#575757"/>
</svg>
