<svg width="16" height="19" viewBox="0 0 16 19" fill="none" xmlns="http://www.w3.org/2000/svg">
<g clip-path="url(#clip0_860_2073)">
<path d="M7.99738 19.0023C6.41571 18.9633 4.84976 18.8366 3.32046 18.4469C2.582 18.2618 1.86972 18.0133 1.2203 17.6284C0.84321 17.4043 0.508022 17.1315 0.267105 16.771C0.0890364 16.503 -0.0104726 16.2107 -0.00523532 15.8941C0.0576125 13.1854 1.31457 11.0856 3.73945 9.58997C3.99607 9.43407 4.00131 9.43895 4.24223 9.60459C6.53094 11.183 9.61048 11.1441 11.8782 9.50715C11.9516 9.45356 11.9987 9.44382 12.0825 9.49254C14.1984 10.7154 15.4815 12.4643 15.8953 14.7541C15.9476 15.0561 15.9633 15.3679 15.9895 15.6748C16.0471 16.3179 15.78 16.8392 15.2773 17.263C14.7797 17.6869 14.1879 17.9597 13.5647 18.1741C12.5015 18.5443 11.3912 18.7489 10.2651 18.8513C9.5162 18.9243 8.75679 18.9536 7.99738 19.0023Z" fill="#939393"/>
<path d="M8.01309 8.10395e-06C10.9303 0.0048799 13.2871 2.2118 13.2818 4.93514C13.2766 7.6536 10.8989 9.84591 7.96595 9.83616C5.05401 9.82155 2.70245 7.61462 2.71293 4.89129C2.71816 2.18744 5.10114 -0.00486369 8.01309 8.10395e-06Z" fill="#939393"/>
</g>
<defs>
<clipPath id="clip0_860_2073">
<rect width="16" height="19" fill="white"/>
</clipPath>
</defs>
</svg>
