<svg width="86" height="100" viewBox="0 0 86 100" fill="none" xmlns="http://www.w3.org/2000/svg">
<g clip-path="url(#clip0_1056_1020)">
<path d="M85.2832 46.1147C85.2832 24.4453 66.62 7.04721 44.2142 8.58176C24.9638 9.90128 9.53552 25.4716 8.68945 44.4043C8.03251 58.919 15.7665 71.7232 27.5219 78.5358C36.092 83.5011 43.0098 90.8122 46.8918 99.8241L46.9614 100L47.0411 99.8143C50.8732 90.9002 57.6318 83.5304 66.1522 78.6727C77.589 72.1728 85.2832 60.0332 85.2832 46.1147Z" fill="#056EA7"/>
<path d="M19.0517 46.1146C19.0517 30.9782 31.5475 18.7077 46.9619 18.7077C62.3763 18.7077 74.8721 30.9782 74.8721 46.1146C74.8721 61.251 62.3763 73.5215 46.9619 73.5215C31.5475 73.5215 19.0517 61.251 19.0517 46.1146Z" fill="white"/>
<g clip-path="url(#clip1_1056_1020)">
<path d="M47.0114 43.6573C45.4224 44.8343 43.8984 46.0033 42.3276 47.1004C41.9947 47.3347 41.4901 47.3134 41.0662 47.412C40.9934 46.938 40.7646 46.4214 40.8764 46.0006C41.2847 44.4641 41.7528 42.9409 42.3094 41.455C42.6214 40.6189 42.4134 40.1715 41.732 39.7055C40.4395 38.8188 39.1729 37.8841 37.9506 36.8988C37.6333 36.6432 37.5111 36.1292 37.2979 35.7351C37.6854 35.5327 38.0651 35.1732 38.4604 35.1599C40.1014 35.096 41.7502 35.1093 43.3938 35.1493C44.0674 35.1653 44.3977 34.9362 44.5902 34.2545C45.0479 32.6408 45.5524 31.0378 46.1194 29.4613C46.2572 29.0805 46.7097 28.8169 47.0166 28.5C47.3183 28.8222 47.7578 29.0912 47.8956 29.4746C48.4496 31.0085 48.9541 32.5689 49.3884 34.1427C49.6069 34.9283 49.9892 35.1839 50.7668 35.1546C52.2804 35.096 53.7992 35.0827 55.3101 35.1573C55.7861 35.1812 56.2438 35.5461 56.7119 35.7564C56.457 36.1745 56.2906 36.7044 55.9343 36.9893C54.7146 37.9773 53.4507 38.9173 52.1555 39.8014C51.5314 40.2274 51.4247 40.6402 51.677 41.3459C52.2231 42.8824 52.7173 44.4428 53.1516 46.0166C53.2634 46.416 53.0762 46.9034 53.0294 47.3481C52.5664 47.2655 52.0099 47.3241 51.6562 47.0791C50.0802 45.9953 48.5666 44.8183 47.0114 43.6573ZM55.4558 36.2863C55.4376 36.1772 55.4168 36.0653 55.3986 35.9561C53.7289 35.9561 52.0567 35.8922 50.3923 35.9801C49.3936 36.0334 48.9281 35.6978 48.6628 34.7019C48.2259 33.0562 47.6459 31.4478 47.0738 29.6637C46.8892 29.9886 46.8033 30.0951 46.7643 30.2176C46.3508 31.4771 45.9581 32.7447 45.5368 34.0016C44.78 36.257 45.373 35.9322 42.9075 35.9561C41.4823 35.9668 40.052 35.9561 38.6242 35.9561C39.7971 37.205 40.97 38.1956 42.2547 38.9919C43.386 39.6922 43.6487 40.4405 43.1416 41.7C42.5538 43.1593 42.1585 44.7011 41.6774 46.2083C43.3392 45.3003 44.7618 44.2964 46.1194 43.2046C46.7903 42.6667 47.2714 42.6986 47.9294 43.2259C49.2922 44.323 50.7226 45.3322 52.1243 46.3761C51.7992 44.4987 51.3155 42.8051 50.7199 41.1541C50.4261 40.3419 50.5535 39.868 51.2583 39.3806C52.6887 38.3954 54.0592 37.3222 55.4558 36.2863Z" fill="#575757"/>
<path d="M34.5235 45.0153C34.4091 44.2777 34.2842 43.5427 34.1854 42.8024C34.071 41.9237 34.0216 41.0369 33.8655 40.1662C33.6393 38.9039 32.9137 38.1264 31.5353 37.9533C31.4781 38.2782 31.3819 38.5658 31.3793 38.8533C31.3741 42.2672 31.3403 45.681 31.4157 49.0922C31.4287 49.726 31.7512 50.4796 32.1699 50.9589C34.1334 53.2038 36.1905 55.3607 38.1905 57.5709C39.2957 58.7959 39.4752 60.9102 38.4089 62.5C38.3491 61.6691 38.2425 61.1499 38.2919 60.6466C38.4011 59.5521 38.0864 58.692 37.327 57.8931C35.3661 55.8294 33.4052 53.7576 31.5743 51.5741C31.01 50.903 30.6017 49.8725 30.5731 48.991C30.4586 45.5825 30.5211 42.166 30.5289 38.7548C30.5315 37.1278 31.1764 36.6724 32.6458 37.3382C33.1763 37.5778 33.6913 37.9852 34.0632 38.4433C34.8876 39.4632 35.3843 43.5081 34.9474 44.9274C34.8044 44.9567 34.6639 44.986 34.5235 45.0153Z" fill="#575757"/>
<path d="M55.6356 62.3728C54.5147 61.0946 54.6942 58.8125 55.8619 57.521C57.776 55.4066 59.7811 53.3748 61.6198 51.1966C62.1841 50.5282 62.6002 49.5056 62.6288 48.6295C62.7433 45.1358 62.6756 41.6367 62.6756 38.151C61.1698 38.0605 60.3324 38.7981 60.101 40.3772C59.9137 41.6474 59.7993 42.9282 59.6224 44.2011C59.5834 44.486 59.4196 44.7523 59.2401 45.2237C58.5015 43.4981 59.1803 39.1016 60.2596 38.0844C60.6861 37.6823 61.2635 37.3894 61.8226 37.203C62.9513 36.8275 63.4714 37.2216 63.4792 38.4412C63.5 42.1214 63.5365 45.8042 63.4428 49.4843C63.4246 50.19 62.9669 50.9995 62.4858 51.5561C60.7069 53.6118 58.8708 55.6223 56.9749 57.5689C56.0101 58.5595 55.5134 59.6087 55.7448 61.0121C55.8046 61.3849 55.6876 61.787 55.6356 62.3728Z" fill="#575757"/>
<path d="M44.7206 62.2014C44.6504 61.8206 44.5256 61.4424 44.5204 61.0617C44.5048 59.4213 44.5464 57.781 44.5308 56.1433C44.5022 53.3605 42.8065 51.3953 40.2813 50.442C39.0824 49.9893 38.1279 48.8043 37.124 47.8803C36.0474 46.887 35.509 46.8071 34.2659 47.7285C35.6625 49.6298 37.6 51.1104 38.8821 53.0969C38.6975 53.2593 38.5128 53.4191 38.3282 53.5815C37.4621 52.6282 36.5961 51.6776 35.7301 50.7242C35.0227 49.9467 34.3049 49.1744 33.6105 48.3862C33.0878 47.795 33.2178 47.2864 33.8238 46.8284C34.9889 45.9497 36.4765 45.9523 37.4933 47.0468C38.7781 48.4288 40.0914 49.5872 41.9197 50.3062C43.9742 51.1104 45.1341 53.009 45.2772 55.2991C45.4072 57.3735 45.3136 59.4612 45.2902 61.5436C45.2876 61.762 45.1081 61.9804 45.0093 62.1987C44.9183 62.1987 44.8194 62.1987 44.7206 62.2014Z" fill="#575757"/>
<path d="M49.0166 62.176C48.9178 62.0456 48.7358 61.9124 48.7358 61.7819C48.7332 59.4359 48.5823 57.0713 48.8164 54.7492C49.0166 52.768 50.1713 51.0637 51.9996 50.3448C53.8487 49.6178 55.2427 48.4781 56.5404 47.0294C57.5261 45.9323 59.1099 45.8977 60.1735 46.883C60.4622 47.1493 60.6417 48.044 60.4466 48.273C58.9668 50.0039 57.383 51.6416 55.8226 53.3006C55.7524 53.3778 55.5964 53.3698 55.3103 53.2526C56.3844 51.085 58.3583 49.6311 59.8146 47.6712C58.8134 46.8856 57.9344 46.8697 57.0787 47.7005C56.6392 48.1265 56.2933 48.6671 55.8122 49.0293C55.0398 49.6098 54.2466 50.2409 53.3624 50.5684C51.1596 51.3833 49.5264 53.5189 49.4718 56.0167C49.4353 57.6544 49.4926 59.2974 49.49 60.9351C49.49 61.3399 49.4145 61.742 49.3729 62.1468C49.2533 62.1574 49.1337 62.1681 49.0166 62.176Z" fill="#575757"/>
</g>
</g>
<defs>
<clipPath id="clip0_1056_1020">
<rect width="100" height="86" fill="white" transform="matrix(1.19249e-08 -1 -1 -1.19249e-08 86 100)"/>
</clipPath>
<clipPath id="clip1_1056_1020">
<rect width="33" height="34" fill="white" transform="translate(30.5 28.5)"/>
</clipPath>
</defs>
</svg>
