<svg width="86" height="100" viewBox="0 0 86 100" fill="none" xmlns="http://www.w3.org/2000/svg">
<g clip-path="url(#clip0_1056_1055)">
<path d="M85.2832 46.1147C85.2832 24.4453 66.62 7.04721 44.2142 8.58176C24.9638 9.90128 9.53552 25.4716 8.68945 44.4043C8.03251 58.919 15.7665 71.7232 27.5219 78.5358C36.092 83.5011 43.0098 90.8122 46.8918 99.8241L46.9614 100L47.0411 99.8143C50.8732 90.9002 57.6318 83.5304 66.1522 78.6727C77.589 72.1728 85.2832 60.0332 85.2832 46.1147Z" fill="#F5880F"/>
<path d="M19.0517 46.1146C19.0517 30.9782 31.5475 18.7077 46.9619 18.7077C62.3763 18.7077 74.8721 30.9782 74.8721 46.1146C74.8721 61.251 62.3763 73.5215 46.9619 73.5215C31.5475 73.5215 19.0517 61.251 19.0517 46.1146Z" fill="white"/>
<g clip-path="url(#clip1_1056_1055)">
<path d="M53.4854 58.1633C49.1179 58.1633 44.9019 58.1633 40.5459 58.1633C40.5287 55.2401 38.8194 53.3216 36.8815 51.4003C32.7141 47.2653 31.8395 40.6981 34.5634 35.5329C37.4046 30.1406 43.247 27.2373 49.3666 28.1739C55.0203 29.0395 59.7994 33.7392 60.7656 39.4068C61.5973 44.2853 60.2282 48.497 56.6496 51.9083C54.8546 53.6196 53.5969 55.5041 53.4854 58.1633ZM47.0342 56.1682C48.2233 56.1682 49.4209 56.242 50.6014 56.1313C51.0359 56.0915 51.6761 55.6999 51.8048 55.3281C52.4736 53.3897 53.6798 51.8827 55.1404 50.4694C58.3932 47.3306 59.6051 43.4907 58.5361 39.0861C57.347 34.1791 53.0796 30.5323 48.2776 30.1491C42.9583 29.7234 38.1906 32.4564 36.1441 37.108C34.0661 41.8276 35.2551 47.1773 39.0996 50.7192C39.9256 51.4798 41.0232 52.3283 41.2376 53.2989C41.9236 56.4037 44.0559 56.4179 46.4626 56.1739C46.6512 56.154 46.8427 56.171 47.0342 56.1682Z" fill="#5C5C5C"/>
<path d="M41.0859 65.916C45.0361 65.916 48.9606 65.916 52.8879 65.916C52.4477 68.1722 50.1325 69.8467 47.2713 69.9914C44.4016 70.1333 41.8434 68.4788 41.0859 65.916Z" fill="#5C5C5C"/>
<path d="M47.0827 62.5029C49.2236 62.5029 51.3673 62.5142 53.5082 62.4972C54.3342 62.4887 55.166 62.588 55.1946 63.5671C55.2203 64.5321 54.4371 64.7279 53.5854 64.7251C49.2064 64.7137 44.8275 64.7137 40.4514 64.7222C39.6054 64.7251 38.8165 64.5463 38.8394 63.57C38.8622 62.5823 39.6968 62.4887 40.52 62.4944C42.7038 62.5142 44.8933 62.5029 47.0827 62.5029Z" fill="#5C5C5C"/>
<path d="M47.08 59.3195C49.2637 59.3195 51.4475 59.3337 53.6312 59.311C54.4144 59.3024 55.1633 59.4216 55.1947 60.3298C55.229 61.2323 54.5201 61.4451 53.717 61.4423C49.2551 61.431 44.7933 61.431 40.3315 61.4395C39.5369 61.4423 38.8109 61.255 38.8366 60.3468C38.8595 59.4415 39.5998 59.3053 40.3887 59.311C42.6181 59.3337 44.8476 59.3195 47.08 59.3195Z" fill="#5C5C5C"/>
</g>
</g>
<defs>
<clipPath id="clip0_1056_1055">
<rect width="100" height="86" fill="white" transform="matrix(1.19249e-08 -1 -1 -1.19249e-08 86 100)"/>
</clipPath>
<clipPath id="clip1_1056_1055">
<rect width="28" height="42" fill="white" transform="translate(33 28)"/>
</clipPath>
</defs>
</svg>
