<svg width="25" height="25" viewBox="0 0 25 25" fill="none" xmlns="http://www.w3.org/2000/svg">
<g clip-path="url(#clip0_1_124)">
<path d="M15.8268 1.96936C14.2853 0.978632 12.3405 1.16711 11.0958 2.42785C9.41714 4.13244 7.62319 5.81213 6.24722 7.08508C5.7375 7.54568 5.07435 7.7997 4.38735 7.79748H3.1564C1.46499 7.79748 0.0562984 9.10363 0.019189 10.7106C-0.00473674 11.816 -0.00620158 12.9391 0.0143062 14.045C0.0465328 15.652 1.45229 16.9596 3.1481 16.9596H4.28042C4.97957 16.9566 5.65376 17.2193 6.16665 17.6945C7.57339 19.028 9.40347 20.7833 11.0841 22.5328C11.4255 22.8905 11.836 23.175 12.2907 23.3691C12.7454 23.5633 13.2348 23.663 13.7291 23.6622C14.4838 23.6587 15.2212 23.4362 15.8517 23.0216C17.4606 21.9752 17.8639 20.2784 18.1168 18.7677C18.4318 16.8473 18.5861 14.7985 18.5885 12.5021C18.591 10.2057 18.4323 8.15637 18.1168 6.23596C17.862 4.72229 17.4562 3.01965 15.8268 1.96936ZM16.2838 18.4645C16.0333 19.964 15.7287 20.8868 14.839 21.4654C14.025 21.9928 13.0529 21.9049 12.4201 21.2472C10.7155 19.4703 8.86489 17.6954 7.4435 16.3478C6.58483 15.5474 5.45428 15.1029 4.28042 15.1041H3.1481C2.46743 15.1041 1.88198 14.6022 1.86977 14.0089C1.84976 12.9283 1.85122 11.8321 1.87466 10.7521C1.88833 10.1564 2.47524 9.65295 3.1564 9.65295H4.38784C5.54159 9.65328 6.65398 9.22323 7.50747 8.44689C8.89809 7.16076 10.7125 5.46203 12.4171 3.73059C13.0485 3.09143 14.0153 3.01086 14.8224 3.52941C15.5031 3.96887 15.9606 4.60363 16.2843 6.53918C16.5827 8.35803 16.7287 10.3092 16.7311 12.5021C16.7335 14.6949 16.5822 16.6466 16.2838 18.4645Z" fill="white"/>
<path d="M21.0116 19.7194C21.1945 19.8839 21.4352 19.9691 21.6809 19.9562C21.9266 19.9433 22.1571 19.8334 22.3217 19.6505C24.0487 17.7321 25.0004 15.1925 25.0004 12.4997C25.0004 9.80678 24.0492 7.26723 22.3217 5.34878C22.2401 5.25824 22.1414 5.18465 22.0314 5.13223C21.9214 5.07981 21.8021 5.04957 21.6804 5.04324C21.4346 5.03047 21.1937 5.11587 21.0109 5.28066C20.828 5.44545 20.7181 5.67613 20.7054 5.92195C20.699 6.04367 20.7167 6.16544 20.7575 6.28031C20.7982 6.39519 20.8612 6.50091 20.9428 6.59145C22.3637 8.16762 23.1449 10.2663 23.1449 12.4997C23.1449 14.7331 22.3637 16.8317 20.9433 18.4079C20.8615 18.4984 20.7984 18.6042 20.7576 18.7191C20.7168 18.8341 20.6991 18.956 20.7054 19.0778C20.7118 19.1996 20.7421 19.319 20.7946 19.4291C20.8472 19.5392 20.9209 19.6378 21.0116 19.7194Z" fill="white"/>
</g>
<defs>
<clipPath id="clip0_1_124">
<rect width="25" height="25" fill="white"/>
</clipPath>
</defs>
</svg>
