<svg width="43" height="41" viewBox="0 0 43 41" fill="none" xmlns="http://www.w3.org/2000/svg">
<path d="M1.59648 12.5368C1.59648 20.418 1.59648 28.185 1.59648 35.838C4.27007 35.7343 6.90528 35.418 9.50723 35.5917C11.7254 35.7395 13.9206 36.3954 16.0927 36.9502C16.52 37.0591 16.804 37.7409 17.1493 38.1609C17.3489 38.4046 17.4845 38.7675 17.7352 38.8893C19.3752 39.6671 21.0356 39.5971 22.6731 38.8608C22.8828 38.7649 23.2103 38.516 23.1899 38.376C23.0031 36.945 24.1877 36.8983 24.9859 36.6287C29.1613 35.2184 33.4288 35.1925 37.7321 35.9132C37.9829 35.9547 38.2336 36.0013 38.4869 36.0298C38.5636 36.0376 38.6481 35.9884 38.8681 35.9236C38.8681 34.6351 38.8681 33.3026 38.8681 31.9726C38.8681 28.0839 38.8604 24.1952 38.8758 20.3065C38.8783 19.7465 38.6864 18.8936 39.5947 18.9973C39.9094 19.0336 40.3673 19.8347 40.3725 20.2909C40.4262 25.6911 40.4134 31.0912 40.4032 36.4913C40.4006 37.8575 40.0808 38.0779 38.7709 37.759C34.5085 36.7272 30.2461 36.7506 26.0144 37.9094C25.5001 38.0494 25.1087 38.6379 24.6559 39.0138C24.0802 39.4908 23.5685 40.1234 22.911 40.4111C20.9819 41.2537 19.0017 41.1655 17.0931 40.2893C16.6095 40.0689 15.9648 39.706 15.8445 39.2782C15.535 38.1842 14.7367 38.0027 13.8668 37.7824C9.82448 36.7532 5.77444 36.7817 1.7244 37.7072C0.181651 38.0598 0.0127924 37.9535 0.010234 36.3565C0.00511705 28.5402 0.00511705 20.7187 1.39167e-07 12.8998C1.39167e-07 10.9347 -0.00511679 10.9373 1.94699 10.901C2.11073 10.8984 2.27447 10.8725 2.42542 10.8595C2.89362 8.36554 2.89362 8.36554 5.06063 8.1737C5.10412 8.1037 5.17832 8.03889 5.18599 7.96371C5.37788 5.89491 5.37788 5.87417 7.48605 5.99602C11.7177 6.24231 15.6015 7.44003 18.8302 10.3669C19.6387 11.1006 20.4984 11.0954 21.3657 10.4629C21.6062 10.2866 21.8057 9.98843 22.0693 9.91844C22.4991 9.80177 22.9673 9.8277 23.4176 9.7914C23.282 10.2243 23.2641 10.7714 22.9877 11.0695C22.4249 11.6813 21.7213 12.1635 20.9973 12.7624C20.9973 19.4562 20.9973 26.277 20.9973 33.414C24.7812 30.5934 29.0538 30.0749 33.5311 29.8001C33.5311 27.3425 33.5311 24.9366 33.5311 22.5308C33.5311 22.3157 33.5132 22.0953 33.5363 21.8827C33.6079 21.2553 33.2497 20.2832 34.291 20.2806C35.3195 20.278 35.0509 21.2346 35.056 21.8749C35.0739 24.5115 35.0176 27.148 35.0867 29.782C35.1174 30.9304 34.7746 31.3193 33.5977 31.4464C30.9855 31.7289 28.3835 32.1619 25.8097 32.7011C24.7991 32.9137 23.7962 33.4529 22.9417 34.0622C21.0689 35.4025 19.3164 35.3662 17.4359 34.0933C15.0744 32.4989 12.3676 31.9208 9.59166 31.6382C8.70132 31.5475 7.8033 31.3893 6.91807 31.4386C5.50068 31.5189 5.22181 30.8034 5.22949 29.5513C5.27042 23.3734 5.24484 17.1955 5.25507 11.0176C5.25507 10.2918 5.35997 9.52957 4.18564 9.91325C4.18564 17.3692 4.18564 24.8278 4.18564 32.32C6.48057 32.5222 8.7269 32.6467 10.9528 32.9344C13.808 33.3026 16.4739 34.1814 18.8712 35.9313C19.452 36.3539 20.8361 36.3798 21.4041 35.9624C24.4742 33.7122 27.9563 32.9759 31.6021 32.6752C33.0425 32.5559 34.488 32.4782 36.1331 32.3693C36.1331 31.9156 36.1331 31.4619 36.1331 31.0056C36.1331 27.8947 36.1331 24.7837 36.1331 21.6727C36.1331 21.3694 36.0333 21.0116 36.1612 20.7783C36.3736 20.3869 36.7318 20.0758 37.026 19.7284C37.2384 20.0913 37.6324 20.4543 37.6375 20.8224C37.6886 23.9748 37.6835 27.1299 37.6605 30.2823C37.6528 31.4334 37.9419 32.9137 37.3612 33.637C36.8751 34.2384 35.3144 33.9274 34.2322 34.0622C31.8298 34.3629 29.3762 34.477 27.0455 35.0732C25.3671 35.5036 23.8141 36.525 22.2791 37.4116C21.3503 37.9483 19.0375 38.2412 18.3006 37.5776C15.5861 35.1432 12.232 34.604 8.82924 34.241C7.26346 34.0751 5.67722 34.0051 4.10377 34.0336C2.91153 34.0544 2.56358 33.5774 2.57125 32.4211C2.60963 26.1577 2.58916 19.8917 2.58916 13.6283C2.58916 13.0061 2.74778 12.2361 1.59648 12.5368ZM6.88225 7.55669C6.88225 15.0489 6.88225 22.4012 6.88225 29.8312C11.2982 30.119 15.5887 30.6038 19.3726 33.5126C19.3726 26.3029 19.3726 19.4225 19.3726 12.8972C15.8215 9.32735 11.7331 7.60076 6.88225 7.55669Z" fill="white"/>
<path d="M24.2874 9.57145C24.3027 4.22576 28.45 -0.0129327 33.6539 2.96507e-05C39.0446 0.0155845 43.0332 4.13762 43 9.66478C42.9693 15.0131 38.8194 19.0936 33.4774 19.0236C28.3579 18.9614 24.272 14.759 24.2874 9.57145ZM34.4214 17.3411C38.5789 17.2737 41.5877 13.2139 41.3728 10.3207C40.6155 10.3207 39.8607 10.4036 39.1418 10.2792C38.8553 10.2299 38.6455 9.72441 38.3998 9.42627C38.671 9.21109 38.9269 8.85074 39.2211 8.81445C39.9452 8.72371 40.6871 8.78593 41.4239 8.78593C41.122 4.73648 38.0468 1.74217 34.2475 1.64366C34.3012 2.44992 34.4214 3.27173 34.3754 4.08318C34.36 4.34502 33.92 4.77278 33.6641 4.77796C33.4236 4.78315 32.9862 4.34502 32.9657 4.08059C32.9094 3.26655 33.0143 2.43955 33.0552 1.62292C29.3583 1.71106 26.0323 5.02425 25.9325 8.77037C26.5951 8.77037 27.2731 8.69001 27.9153 8.80148C28.2811 8.8663 28.5958 9.2422 28.9336 9.47812C28.583 9.75811 28.2581 10.217 27.8744 10.2792C27.2475 10.3803 26.5798 10.2222 25.9274 10.1729C25.8046 13.7816 29.7241 17.717 32.9222 17.2763C32.9222 16.5322 32.8557 15.7986 32.9529 15.0856C32.9938 14.7927 33.3853 14.549 33.6155 14.2846C33.8842 14.5594 34.3293 14.8057 34.3831 15.1168C34.5008 15.8141 34.4214 16.5478 34.4214 17.3411Z" fill="white"/>
<path d="M33.5285 11.3672C32.2135 10.4209 31.1108 11.4942 29.8904 11.8053C29.5553 11.8908 29.1152 11.5616 28.7263 11.4242C28.9105 11.0846 29.018 10.6283 29.2994 10.4313C29.7446 10.1254 30.3458 10.058 30.8089 9.77278C31.2797 9.48243 31.6711 9.05985 32.0856 8.67876C32.3337 8.44803 32.5384 7.99694 32.7917 7.97361C34.6824 7.81287 35.1301 6.04999 36.1638 4.95078C36.4247 4.67079 36.5757 4.24563 36.8776 4.05638C37.2178 3.8412 37.6732 3.81787 38.08 3.70898C38.0852 4.12378 38.2438 4.63191 38.0621 4.93004C37.5556 5.7726 36.9134 6.5296 36.3173 7.31512C35.7851 8.02027 35.2529 8.6321 35.363 9.70279C35.4704 10.7683 34.5545 11.1986 33.5285 11.3672Z" fill="white"/>
</svg>
