<svg width="51" height="52" viewBox="0 0 51 52" fill="none" xmlns="http://www.w3.org/2000/svg">
<g clip-path="url(#clip0_857_1971)">
<path d="M33.7488 19.7466C34.7722 19.7466 35.7346 19.7897 36.6944 19.7331C37.5932 19.6793 37.9696 20.0401 38.0333 20.9478C38.081 21.6507 38.0651 22.6579 38.4813 22.9703C39.3775 23.6409 40.5016 24.0988 41.5992 24.3331C42.0685 24.4327 42.7632 23.8375 43.2404 23.4201C44.1021 22.6687 44.8259 22.5367 45.5417 23.5736C45.7167 23.8268 45.9765 24.018 46.1966 24.2388C48.1453 26.2075 48.132 26.1995 46.7003 28.5856C46.5306 28.8684 46.5492 29.3074 46.5836 29.6629C46.6075 29.9134 46.8594 30.1342 46.9098 30.3874C47.2597 32.1406 48.2354 33.0644 50.0595 32.9809C50.8124 32.9459 51.006 33.436 50.9874 34.1309C50.9556 35.2513 50.9556 36.3743 50.998 37.4947C51.0272 38.2676 50.7727 38.6797 49.9667 38.6985C49.5743 38.7093 49.1819 38.8924 48.7922 38.8871C47.9384 38.8736 47.5593 39.2964 47.3287 40.1017C47.098 40.9123 46.6897 41.6691 46.345 42.4851C46.3503 42.5255 46.353 42.609 46.3742 42.6898C46.5412 43.2769 46.7136 43.8614 46.8832 44.4485C46.642 44.4377 46.2496 44.5185 46.1833 44.4054C45.7671 43.6863 45.0247 42.8568 45.1361 42.1916C45.3508 40.9042 45.942 39.6304 46.6181 38.4992C46.8938 38.036 47.7873 37.7586 48.4077 37.7371C50.2583 37.6778 49.6247 36.3178 49.7811 35.3347C49.9746 34.1363 49.2323 34.0016 48.3706 33.9855C47.1643 33.9639 46.3662 33.4711 46.2496 32.1541C46.2416 32.0679 46.2151 31.9736 46.1727 31.8982C45.152 30.0265 44.3035 28.1682 46.6579 26.6385C45.783 25.7712 45.0671 25.0576 44.3115 24.3062C44.3036 24.3062 44.1842 24.2792 44.1392 24.325C42.6969 25.8493 41.1485 26.116 39.4252 24.7909C39.1919 24.6105 38.8578 24.5001 38.5609 24.4758C37.4579 24.3923 36.9781 23.7325 37.0231 22.7064C37.0921 21.112 36.3046 20.7054 34.9154 20.9289C34.4912 20.9962 34.0458 20.9397 33.4545 20.9397C33.5234 23.043 32.7678 24.1526 30.7104 24.9768C28.7034 25.782 27.3725 25.7551 26.0097 24.0692C25.1799 24.9471 24.4614 25.712 23.6209 26.6007C25.1003 27.9177 25.3814 29.2508 24.4269 31.3111C23.5626 33.1721 22.7911 34.3275 20.5879 34.0339C20.5879 35.2566 20.5879 36.3447 20.5879 37.597C22.6665 37.3519 23.6103 38.3484 24.4322 40.3441C25.27 42.372 25.2143 43.7563 23.6077 45.0356C24.4826 45.919 25.2276 46.6704 26.0681 47.516C27.3566 45.9782 28.7034 45.8382 30.7157 46.7054C32.683 47.5537 33.6746 48.5098 33.3882 50.6805C33.9662 50.7074 34.356 50.7425 34.7457 50.7425C36.7182 50.7478 36.7739 50.7532 37.0603 48.7522C37.1902 47.8527 37.5587 47.3867 38.4204 47.244C38.765 47.1874 39.1442 47.104 39.4199 46.9074C41.1803 45.6523 42.8003 45.5715 44.2187 47.6076C44.9346 46.9181 45.5072 46.3068 46.1462 45.7816C46.3583 45.6065 46.7454 45.6496 47.0503 45.5931C47.0211 45.9405 47.0582 46.3095 46.9442 46.6273C46.8647 46.8562 46.5863 47.0097 46.3981 47.2009C44.5581 49.0673 44.5766 49.0377 42.4158 47.6372C42.0659 47.411 41.4852 47.5214 41.0133 47.5403C40.8118 47.5483 40.6262 47.7719 40.4168 47.8123C38.6881 48.1354 37.9909 49.2289 37.9219 50.9579C37.9087 51.3026 37.275 51.7605 36.8429 51.9113C36.3683 52.0783 35.7956 51.9544 35.2653 51.949C32.6353 51.9194 32.6565 51.914 32.0865 49.3151C32.0096 48.9596 31.6331 48.631 31.3255 48.3805C31.0975 48.1974 30.7157 48.2189 30.4692 48.0493C29.1144 47.1309 27.9027 47.2305 26.7653 48.4505C26.1423 49.1185 25.5325 48.9811 24.9863 48.289C24.7663 48.0116 24.4905 47.7773 24.2387 47.5268C22.1945 45.488 22.2078 45.4988 23.6368 43.0776C23.8012 42.8002 23.7694 42.3559 23.719 42.0058C23.6766 41.7068 23.4194 41.4456 23.3637 41.1466C23.0509 39.458 22.0805 38.6447 20.3758 38.7147C19.5088 38.7497 19.2622 38.2299 19.2781 37.4166C19.2967 36.4336 19.5671 35.1785 19.0872 34.5456C18.6445 33.9612 17.3533 34.0339 16.4307 33.8373C9.46309 32.3507 4.46543 25.5612 5.18393 18.5454C5.95545 10.9345 11.8678 5.31651 19.1959 5.22764C26.479 5.13876 32.63 10.5736 33.5102 17.8775C33.5818 18.4512 33.656 19.0248 33.7488 19.7466ZM19.294 6.45573C18.7823 6.50421 17.8438 6.50959 16.9397 6.68734C10.163 8.02316 5.64525 14.4114 6.4698 21.446C7.24662 28.0793 13.2624 33.2421 19.9648 32.9944C21.4734 32.9378 22.9846 32.8193 23.2391 30.7698C23.2869 30.3901 23.6368 30.0588 23.7217 29.6764C23.7959 29.3343 23.8171 28.8819 23.6527 28.6018C22.2343 26.1671 22.2184 26.1779 24.2042 24.1634C24.5171 23.8456 24.8511 23.5494 25.1401 23.21C25.6041 22.6606 26.129 22.5556 26.6036 23.0942C27.8312 24.4866 29.1515 24.5701 30.6309 23.5467C30.8404 23.4012 31.1691 23.4201 31.3653 23.2639C31.6463 23.0377 32.0096 22.7495 32.0679 22.4371C32.2561 21.4298 32.4258 20.3956 32.4152 19.3722C32.341 12.3834 26.7706 6.74929 19.294 6.45573Z" fill="white"/>
<path d="M19.399 3.62608e-05C29.2061 0.0188886 37.2899 7.207 38.5863 17.1044C38.642 17.5246 38.3239 17.9932 38.1807 18.4376C37.9235 18.0498 37.5046 17.6889 37.4383 17.2714C36.2824 10.1318 32.499 5.00936 25.8416 2.46161C19.1419 -0.102305 12.8742 1.11771 7.42587 5.86579C6.0419 7.06965 5.03971 8.72057 3.82278 10.1291C3.55235 10.4442 3.11754 10.6112 2.75696 10.8482C2.78613 10.385 2.65887 9.83285 2.86301 9.47196C6.13734 3.72471 12.6993 -0.0134297 19.399 3.62608e-05Z" fill="white"/>
<path d="M35.146 42.3968C31.7338 42.4264 28.7776 39.507 28.714 36.0489C28.6477 32.3593 31.5244 29.351 35.1725 29.2917C38.5953 29.2379 41.6019 32.2758 41.6045 35.7904C41.6098 39.4235 38.7332 42.3644 35.146 42.3968ZM35.0612 41.1202C38.0704 41.131 40.3584 38.8391 40.369 35.8065C40.3796 32.9652 38.0465 30.5629 35.2653 30.5494C32.2694 30.536 29.9893 32.8279 29.9654 35.8792C29.9442 38.7421 32.2455 41.1094 35.0612 41.1202Z" fill="white"/>
<path d="M17.2251 39.2397C9.60799 38.3914 2.61922 32.8192 0.596291 24.5403C-0.273328 20.9826 -0.19379 17.433 0.848163 13.9157C0.948911 13.5737 1.00724 13.1805 1.21404 12.9166C1.39167 12.6903 1.75225 12.6122 2.03328 12.4668C2.12078 12.7684 2.33023 13.0916 2.27985 13.3663C1.98556 14.9472 1.48447 16.4985 1.32009 18.0875C0.339117 27.5244 7.03625 36.35 16.2574 37.8662C16.5199 37.9093 16.8115 37.9039 17.0316 38.0278C17.3948 38.2352 17.7103 38.5314 18.0444 38.7927C17.6944 38.9839 17.3444 39.1751 17.2251 39.2397Z" fill="white"/>
<path d="M25.8448 11.6017C26.8205 11.3458 27.4223 11.1869 28.0268 11.028C27.8015 11.6367 27.5735 12.2453 27.2818 13.0344C28.5359 14.6153 29.4187 16.6137 29.607 18.9217C29.6945 19.9667 29.4028 20.4784 28.3185 20.333C28.231 20.3222 28.1408 20.333 28.0533 20.3303C27.0379 20.3195 25.8422 20.6373 25.0653 20.1956C24.4423 19.8428 24.3442 18.5608 23.9836 17.7017C23.8325 17.3435 23.6098 17.0177 23.3791 16.6029C22.3425 17.5644 21.2528 18.2242 21.5285 19.9155C21.7088 21.0332 20.5078 21.9704 19.3545 21.9462C18.1375 21.9219 17.1937 20.9282 17.2043 19.6866C17.2149 18.5231 18.1269 17.5374 19.2696 17.4566C21.107 17.3274 21.107 17.3274 22.3478 15.6764C21.0089 14.5561 19.5109 14.3783 17.9201 14.8739C15.9635 15.4825 14.7492 16.8965 14.4841 18.9083C14.3277 20.096 13.9035 20.4434 12.8191 20.341C12.0741 20.271 11.3158 20.2764 10.5708 20.3437C9.34591 20.4568 9.05162 19.9021 9.17092 18.7494C10.0034 10.756 18.7871 6.62735 25.2907 11.195C25.5744 11.397 25.8554 11.6097 25.8448 11.6017ZM13.1346 18.9998C14.5026 13.697 18.3152 12.1214 23.3606 14.6423C23.9677 14.0201 24.5722 13.398 25.174 12.7813C22.6686 10.3682 18.6758 9.82954 15.4492 11.4643C12.4638 12.9752 10.3189 16.277 10.5947 18.9998C11.4139 18.9998 12.2411 18.9998 13.1346 18.9998ZM26.4201 13.3926C25.4445 14.4268 24.8373 15.0732 24.3707 15.5687C24.9036 16.8668 25.3358 17.9172 25.7706 18.9702C26.6137 18.9702 27.4727 18.9702 28.7347 18.9702C27.9446 17.0661 27.25 15.391 26.4201 13.3926ZM19.3704 18.2027C18.9011 18.954 18.4106 19.3984 18.4743 19.7351C18.5432 20.0987 19.1053 20.5538 19.4977 20.6023C19.7575 20.6346 20.3355 20.0232 20.3355 19.7001C20.3328 19.3149 19.8688 18.9298 19.3704 18.2027Z" fill="white"/>
</g>
<defs>
<clipPath id="clip0_857_1971">
<rect width="51" height="52" fill="white"/>
</clipPath>
</defs>
</svg>
