<svg width="41" height="54" viewBox="0 0 41 54" fill="none" xmlns="http://www.w3.org/2000/svg">
<path d="M1.52542 34.5911C1.52542 33.3463 1.53411 32.1503 1.52325 30.9532C1.50805 29.2159 1.50153 29.217 3.27501 29.2201C4.27089 29.2223 5.26569 29.2223 6.26157 29.2254C7.12496 29.2286 7.3237 29.4193 7.32479 30.2414C7.32588 31.6704 7.32479 33.0984 7.32479 34.5752C8.06437 34.5752 8.77463 34.5752 9.53811 34.5752C9.54679 34.4025 9.56091 34.2309 9.562 34.0603C9.56417 31.8887 9.56417 29.718 9.56417 27.5464C9.56417 26.7137 9.76074 26.5167 10.6198 26.5146C11.8687 26.5114 13.1176 26.5103 14.3666 26.5146C15.1539 26.5177 15.3581 26.7179 15.3592 27.4945C15.3624 29.6301 15.3603 31.7668 15.3603 33.9025C15.3603 34.1122 15.3603 34.322 15.3603 34.5773C16.1129 34.5773 16.8242 34.5773 17.617 34.5773C17.617 34.3432 17.617 34.1196 17.617 33.8972C17.6149 30.4553 17.6127 27.0125 17.6116 23.5706C17.6116 22.632 17.7941 22.4509 18.7422 22.4488C19.9726 22.4466 21.2031 22.4488 22.4346 22.453C23.1731 22.4562 23.4045 22.6839 23.4055 23.4032C23.4088 26.916 23.4088 30.4299 23.411 33.9427C23.411 34.1355 23.411 34.3283 23.411 34.573C24.1473 34.573 24.8576 34.573 25.6514 34.573C25.6514 34.3781 25.6514 34.1737 25.6514 33.9703C25.6525 28.4447 25.6536 22.9202 25.6569 17.3946C25.658 16.5386 25.8382 16.3691 26.7027 16.367C27.9158 16.3649 29.1278 16.3596 30.3409 16.3617C31.2651 16.3638 31.4541 16.5725 31.453 17.4529C31.4475 23.0134 31.4497 28.5739 31.4519 34.1345C31.4519 34.2722 31.4758 34.4088 31.4921 34.5836C32.2121 34.5836 32.9082 34.5836 33.6967 34.5836C33.6967 34.34 33.6967 34.1006 33.6967 33.8622C33.6956 26.6417 33.6945 19.4211 33.6945 12.2006C33.6945 11.137 33.8607 10.9919 34.9597 11.0003C36.1174 11.0099 37.2762 11.0088 38.4339 11.0056C39.2734 11.0025 39.4874 11.208 39.4874 12.0343C39.4874 19.3788 39.4874 26.7222 39.4885 34.0667C39.4885 34.2235 39.4885 34.3792 39.4885 34.5964C39.7535 34.6091 39.9793 34.6271 40.2063 34.6292C40.7124 34.6324 40.9915 34.8707 40.9959 35.3686C41.0024 36.1981 41.0024 37.0276 40.9872 37.857C40.9785 38.3168 40.6614 38.4905 40.24 38.5414C38.75 38.7194 37.261 38.9122 35.7677 39.0668C35.4159 39.1028 35.2866 39.2342 35.1911 39.5531C34.508 41.8476 33.3079 43.8604 31.6213 45.5903C31.3748 45.8435 31.314 46.0331 31.4671 46.3668C32.0666 47.6698 32.6291 48.9898 33.2026 50.3044C33.4632 50.9008 33.3828 51.1614 32.8116 51.4856C31.4356 52.2653 30.0553 53.0386 28.6738 53.8109C28.1254 54.117 27.8561 54.063 27.4716 53.5641C26.5898 52.4221 25.7079 51.2812 24.8423 50.1275C24.6371 49.8542 24.4644 49.7525 24.0865 49.8415C21.7092 50.4072 19.3199 50.4061 16.9404 49.8479C16.5788 49.7631 16.3877 49.8277 16.1748 50.1159C15.3364 51.2451 14.4719 52.3553 13.615 53.4719C13.1459 54.0831 12.9113 54.1361 12.251 53.7664C10.9022 53.01 9.55548 52.2515 8.2099 51.4898C7.63105 51.1625 7.54308 50.9136 7.80481 50.315C8.38583 48.9845 8.96794 47.655 9.56526 46.3319C9.69015 46.0543 9.67494 45.8753 9.44579 45.6422C7.72336 43.8943 6.50158 41.8561 5.81196 39.5234C5.72399 39.2257 5.59693 39.1007 5.26677 39.0679C3.79087 38.9196 2.31931 38.7405 0.846658 38.5657C0.214593 38.4905 0.0310548 38.2956 0.0180225 37.677C0.00281818 37.0064 -0.00695603 36.3348 0.00607625 35.6642C0.0234526 34.7923 0.16898 34.6599 1.05626 34.6281C1.18224 34.6207 1.30605 34.6069 1.52542 34.5911ZM39.4993 36.0487C39.4059 36.0381 39.3353 36.0233 39.2647 36.0233C36.2977 36.0222 33.3307 36.0307 30.3637 36.0116C29.9173 36.0085 29.9347 36.2574 29.9 36.5456C29.3635 40.9641 25.3017 44.5214 20.7415 44.5723C15.786 44.6274 11.7688 41.23 11.1128 36.4163C11.0716 36.1144 10.9695 36.0021 10.6393 36.0042C7.74508 36.0191 4.84974 36.0148 1.95549 36.0191C1.7991 36.0191 1.6438 36.0403 1.49719 36.0508C1.49719 36.4608 1.49719 36.821 1.49719 37.2066C1.69376 37.232 1.85232 37.2553 2.01088 37.2733C3.40967 37.4397 4.80739 37.6134 6.20836 37.767C6.66774 37.8178 6.91101 38.0308 7.02179 38.4715C7.67775 41.0711 8.98858 43.3085 10.9879 45.1507C11.3246 45.4611 11.3909 45.7852 11.1997 46.1952C10.8555 46.9325 10.5318 47.6794 10.2049 48.4251C9.90844 49.0999 9.61956 49.7769 9.31438 50.4824C10.4591 51.1244 11.5505 51.7356 12.6593 52.3564C12.844 52.1212 12.9982 51.9274 13.148 51.7303C13.9256 50.7112 14.7011 49.6911 15.4776 48.6709C15.7165 48.3573 15.9771 48.12 16.4333 48.2556C19.0832 49.0449 21.7407 49.029 24.3938 48.28C24.9086 48.1349 25.2648 48.2684 25.5548 48.691C25.7752 49.0131 26.0283 49.315 26.2661 49.6254C26.9558 50.5269 27.6454 51.4284 28.3589 52.3596C29.4873 51.7229 30.5776 51.1085 31.6908 50.4803C31.6094 50.2758 31.5518 50.1116 31.4812 49.9527C30.9317 48.7059 30.3898 47.4558 29.825 46.2164C29.6274 45.7831 29.6958 45.4526 30.0477 45.1274C32.0307 43.2968 33.3383 41.0775 33.9856 38.4927C34.1007 38.0318 34.3537 37.8073 34.8359 37.7564C36.1109 37.6197 37.3848 37.4683 38.6555 37.3051C39.6372 37.1791 39.6351 37.1663 39.5525 36.1875C39.5504 36.1557 39.5297 36.125 39.4993 36.0487ZM28.461 36.0508C23.1395 36.0508 17.8527 36.0508 12.5659 36.0508C12.6485 39.0382 15.4537 43.0161 20.28 43.1453C25.1084 43.2746 28.272 39.4726 28.461 36.0508ZM38.018 34.5953C38.018 27.1894 38.018 19.8237 38.018 12.4326C37.0449 12.4326 36.1142 12.4326 35.1552 12.4326C35.1552 19.8322 35.1552 27.2 35.1552 34.5953C36.112 34.5953 37.0297 34.5953 38.018 34.5953ZM27.1339 17.7961C27.1339 23.435 27.1339 29.0114 27.1339 34.5794C28.1232 34.5794 29.0529 34.5794 29.9727 34.5794C29.9727 28.9542 29.9727 23.3746 29.9727 17.7961C29.004 17.7961 28.0863 17.7961 27.1339 17.7961ZM19.0984 23.9075C19.0984 27.4934 19.0984 31.0422 19.0984 34.5783C20.078 34.5783 21.0065 34.5783 21.9351 34.5783C21.9351 30.9967 21.9351 27.4606 21.9351 23.9075C20.9631 23.9075 20.0324 23.9075 19.0984 23.9075ZM11.0596 27.9616C11.0596 30.2106 11.0596 32.4014 11.0596 34.6197C11.8524 34.6197 12.5942 34.5932 13.3327 34.6292C13.8007 34.6514 13.9582 34.5254 13.9506 34.0455C13.918 32.1768 13.9311 30.307 13.9246 28.4373C13.9235 28.2847 13.9028 28.1322 13.8898 27.9616C12.9254 27.9616 12.0077 27.9616 11.0596 27.9616ZM3.01219 30.6492C3.01219 31.9988 3.01219 33.2912 3.01219 34.5879C3.98201 34.5879 4.91056 34.5879 5.86192 34.5879C5.86192 33.2605 5.86192 31.9702 5.86192 30.6492C4.8997 30.6492 3.97223 30.6492 3.01219 30.6492Z" fill="white"/>
<path d="M34.41 4.05851C33.8726 3.09952 33.3741 2.19837 32.8626 1.30502C32.6673 0.964589 32.5032 0.572982 32.8086 0.289289C33.0233 0.0890358 33.4151 -0.0211037 33.714 0.00337177C35.8096 0.181375 37.8997 0.412779 39.9942 0.61192C40.9816 0.706485 41.2201 1.10254 40.8057 2.05152C39.9403 4.02624 39.0835 6.00542 38.1846 7.96345C38.0497 8.25827 37.7433 8.5809 37.4552 8.66323C37.0354 8.78227 36.8174 8.36952 36.6253 8.01797C36.1505 7.14798 35.6606 6.28689 35.147 5.36794C34.1132 6.02433 33.1086 6.65847 32.1083 7.29928C22.5368 13.4337 12.9664 19.5704 3.39597 25.7048C3.25893 25.7927 3.12404 25.8973 2.97297 25.9473C2.60932 26.0664 2.27373 25.9941 2.09568 25.6225C1.9295 25.2765 1.96942 24.926 2.29747 24.6813C2.54458 24.4977 2.81327 24.3431 3.07225 24.1773C13.357 17.579 23.645 10.9839 33.9319 4.38781C34.0819 4.29102 34.2255 4.18534 34.41 4.05851ZM34.6905 1.58538C35.597 3.2052 36.4408 4.71601 37.3419 6.32805C37.9947 4.84506 38.5947 3.48222 39.2281 2.04262C37.6818 1.88576 36.2466 1.74113 34.6905 1.58538Z" fill="white"/>
</svg>
