<svg width="50" height="50" viewBox="0 0 50 50" fill="none" xmlns="http://www.w3.org/2000/svg">
<path d="M26.9259 45.2067C27.027 45.4255 27.0962 45.6678 27.2361 45.858C27.9207 46.7888 28.6273 47.7027 29.322 48.625C29.693 49.1181 29.693 49.5321 29.3271 49.8283C28.946 50.1363 28.5379 50.0303 28.1349 49.5086C27.7808 49.0508 27.4351 48.5863 26.9899 48.1503C26.9899 48.4348 26.9933 48.7192 26.9899 49.0037C26.9798 49.6499 26.7117 49.9983 26.2295 49.995C25.7624 49.9916 25.5162 49.6685 25.5044 49.0356C25.4993 48.7461 25.5027 48.4567 25.4116 48.1184C25.152 48.4516 24.8923 48.7832 24.6326 49.1164C24.5129 49.2713 24.3999 49.4295 24.2802 49.5843C23.9261 50.037 23.5197 50.1262 23.1538 49.8351C22.7997 49.554 22.7828 49.1181 23.1184 48.6687C23.8316 47.7195 24.5331 46.7601 25.2767 45.8345C25.5752 45.4625 25.5061 45.0721 25.4808 44.6765C25.474 44.5789 25.2953 44.4796 25.1806 44.4056C24.8383 44.1868 24.4724 44.0033 24.1436 43.766C23.4135 43.2375 23.0273 42.5525 23.0543 41.6067C23.0998 40.0784 23.0509 38.5469 23.0745 37.0187C23.0813 36.571 22.943 36.4431 22.4978 36.4447C18.0631 36.4599 13.6283 36.4565 9.1935 36.4548C8.00302 36.4548 6.81255 36.4784 5.62376 36.4363C2.48906 36.3286 0.0136816 33.762 0.00525048 30.6399C0.00356425 30.2982 -0.00823934 29.9549 0.0103092 29.6149C0.0339163 29.1706 0.349241 28.8879 0.77417 28.9013C1.17381 28.9131 1.45035 29.1959 1.47395 29.625C1.50599 30.209 1.48576 30.7998 1.57176 31.3737C1.87022 33.3765 3.62558 34.9451 5.66086 34.9552C11.1714 34.9839 16.682 34.9704 22.1943 34.9738C22.4675 34.9738 22.7423 34.9738 23.002 34.9738C23.1285 34.6439 23.0307 34.484 22.7508 34.3679C22.0763 34.0868 21.417 33.7653 20.7408 33.4893C20.0039 33.188 19.4896 32.7252 19.4727 31.8786C19.4559 31.027 19.9634 30.5608 20.6953 30.2393C24.3561 28.6337 28.0135 27.018 31.6709 25.4056C32.3994 25.0842 33.1295 24.7678 33.8563 24.4396C34.4566 24.1686 35.0434 24.1686 35.6453 24.4513C36.335 24.7762 37.0382 25.0707 37.7885 25.4006C37.7885 23.0763 37.7885 20.7991 37.7885 18.5203C37.7582 18.4917 37.7295 18.4631 37.6992 18.4344C37.6368 18.5354 37.5845 18.6448 37.5086 18.7357C36.4362 20.0199 35.1074 20.922 33.487 21.3579C33.1598 21.4454 33.0772 21.5834 33.0857 21.8897C33.1042 22.4754 33.0975 23.0611 33.0857 23.6468C33.0671 24.5304 32.4162 25.1767 31.5326 25.1885C30.8312 25.1986 30.1297 25.1936 29.4299 25.1902C28.3912 25.1851 27.7572 24.5809 27.7218 23.5358C27.7015 22.9366 27.7184 22.3357 27.7184 21.7012C22.3275 21.7012 16.9754 21.7012 11.566 21.7012C11.566 22.3122 11.5745 22.9097 11.5643 23.5055C11.5458 24.5826 10.9286 25.1885 9.85282 25.1919C9.20025 25.1936 8.54768 25.1952 7.89679 25.1919C6.87831 25.1868 6.21562 24.5439 6.1937 23.5273C6.1819 22.9585 6.20888 22.3879 6.17853 21.8191C6.1701 21.6709 6.03688 21.437 5.91548 21.4033C4.19552 20.9186 2.78921 19.9795 1.6763 18.591C1.63752 18.5422 1.62403 18.4748 1.60042 18.4142C1.55995 18.4378 1.51948 18.4614 1.47733 18.4849C1.47733 19.584 1.47733 20.6813 1.47733 21.7803C1.47733 23.3422 1.47733 24.9058 1.47733 26.4676C1.47733 27.0752 1.20416 27.4186 0.735387 27.4085C0.273361 27.3984 0.0103092 27.0516 0.0103092 26.4424C0.0103092 20.6005 0.00862293 14.757 0.0103092 8.91512C0.0103092 7.40879 1.03722 6.3653 2.55314 6.3552C4.55806 6.34174 6.56467 6.35184 8.5696 6.35184C8.76014 6.35184 8.95068 6.35184 9.19013 6.35184C9.19013 5.581 9.18844 4.86907 9.19013 4.15714C9.19013 1.7588 10.9404 0.00674575 13.3433 0.00337965C15.6265 1.35548e-05 17.9096 0.0050627 20.1928 1.35547e-05C20.6177 -0.00166949 20.933 0.153171 21.0325 0.582348C21.1151 0.937471 20.9819 1.24042 20.6413 1.38685C20.471 1.4609 20.2619 1.46258 20.0714 1.46258C17.8219 1.46763 15.5708 1.45585 13.3214 1.471C11.9505 1.47941 10.8038 2.41687 10.6942 3.67579C10.615 4.54424 10.6757 5.42448 10.6757 6.32827C11.0652 6.32827 11.4294 6.32827 11.8409 6.32827C11.8409 5.65842 11.8392 5.01213 11.8409 4.36416C11.8426 3.19107 12.3636 2.65755 13.5355 2.65586C16.5522 2.65081 19.5689 2.65418 22.5855 2.65586C23.5956 2.65586 24.6073 2.66091 25.6174 2.65586C26.9579 2.64913 27.4638 3.14058 27.4638 4.46177C27.4638 5.07609 27.4638 5.6904 27.4638 6.32827C27.8803 6.32827 28.2462 6.32827 28.6003 6.32827C28.6003 5.39587 28.6964 4.47861 28.5767 3.58996C28.4047 2.31589 27.3306 1.48615 26.0372 1.46931C25.1739 1.45753 24.3088 1.46931 23.4455 1.46763C22.8772 1.46595 22.5383 1.19329 22.5349 0.740555C22.5316 0.29623 22.884 -0.00335254 23.4421 0.0050627C24.5803 0.0235762 25.7354 -0.0487949 26.8534 0.114461C28.7268 0.387115 30.0774 2.04323 30.128 3.94003C30.1482 4.71928 30.1314 5.50022 30.1314 6.3552C30.3304 6.3552 30.5007 6.3552 30.6727 6.3552C32.6287 6.3552 34.5864 6.35352 36.5424 6.3552C38.3045 6.35689 39.3045 7.33137 39.3061 9.10026C39.3146 14.5365 39.3146 19.9711 39.2994 25.4073C39.2977 25.887 39.4073 26.1512 39.8913 26.3481C41.4257 26.9742 42.9332 27.6643 44.4491 28.3341C44.9567 28.558 45.1557 28.8744 45.0545 29.2581C44.9196 29.7698 44.4593 29.9482 43.8758 29.694C42.3414 29.0242 40.8119 28.3442 39.2808 27.671C37.883 27.0567 36.4885 26.434 35.0805 25.8399C34.8849 25.7574 34.5948 25.7507 34.4026 25.8331C30.0386 27.735 25.6814 29.6553 21.3225 31.5723C21.1927 31.6295 21.0713 31.7103 20.8571 31.8298C21.0578 31.9561 21.1859 32.0621 21.3326 32.1277C22.8469 32.8009 24.3611 33.4758 25.8838 34.1272C26.049 34.1979 26.3003 34.1979 26.4638 34.1255C28.1821 33.3513 29.8936 32.5603 31.5984 31.7541C31.7333 31.6901 31.8817 31.4831 31.8817 31.3434C31.8834 30.6736 32.2071 30.1956 32.7197 29.827C33.8023 29.0477 35.6386 29.0494 36.7346 29.8152C37.8492 30.5961 37.8745 31.9325 36.7414 32.6865C35.6302 33.4254 34.4279 33.4624 33.1969 32.9726C33.0469 32.9137 32.8411 32.8447 32.7147 32.9019C31.1735 33.5869 29.6407 34.2955 28.0067 35.0444C28.3895 35.2245 28.6829 35.371 28.9831 35.5039C30.7823 36.2966 32.5798 37.0944 34.3874 37.8669C34.583 37.9511 34.8764 37.9595 35.0703 37.8753C39.4646 35.9583 43.8505 34.0245 48.2364 32.0907C48.346 32.0419 48.4387 31.9561 48.6428 31.818C48.1319 31.5841 47.7137 31.3922 47.2955 31.2004C47.1184 31.1196 46.9329 31.0539 46.7626 30.9597C46.3967 30.7577 46.1994 30.4666 46.3596 30.0357C46.508 29.6351 46.8908 29.4399 47.3123 29.6082C47.9599 29.8674 48.6091 30.14 49.2195 30.475C49.7726 30.7796 50.0289 31.3047 49.9968 31.946C49.9631 32.6141 49.6006 33.0753 49.0188 33.3513C48.3005 33.693 47.567 34.0077 46.8301 34.309C46.5198 34.4352 46.3934 34.5968 46.3984 34.9552C46.4186 37.1196 46.3647 39.2857 46.4271 41.4484C46.4608 42.6468 45.9128 43.4193 44.9719 44.0134C43.7123 44.8078 42.3026 45.2134 40.8608 45.4777C36.5205 46.2737 32.1818 46.2737 27.8617 45.311C27.5936 45.2505 27.3289 45.1781 27.0608 45.1108C27.0169 45.1427 26.9714 45.1747 26.9259 45.2067ZM33.0907 19.8734C33.1767 19.8852 33.2104 19.8987 33.2391 19.892C35.6302 19.2642 37.6654 16.8153 37.7666 14.3514C37.8358 12.6616 37.8054 10.9684 37.8239 9.27866C37.8374 8.12914 37.5457 7.83124 36.3974 7.83124C30.3675 7.83124 24.3358 7.83124 18.3059 7.83124C13.1072 7.83124 7.90691 7.83292 2.70827 7.83797C1.82806 7.83797 1.48239 8.17795 1.47901 9.03967C1.47395 10.6015 1.46215 12.1634 1.47901 13.7253C1.49419 15.1811 1.92586 16.5057 2.82968 17.6602C3.69134 18.761 4.78233 19.5284 6.19033 19.9307C6.19033 19.3349 6.18021 18.7997 6.19202 18.2645C6.21562 17.2445 6.87663 16.6033 7.89342 16.5982C8.52913 16.5966 9.16483 16.5966 9.80054 16.5982C10.9455 16.5999 11.5475 17.1907 11.561 18.3301C11.5677 18.941 11.5626 19.552 11.5626 20.1713C16.9788 20.1713 22.3174 20.1713 27.7184 20.1713C27.7184 19.5133 27.7015 18.8821 27.7218 18.2544C27.7555 17.2176 28.3963 16.6067 29.4299 16.6016C30.0825 16.5982 30.7334 16.5999 31.3859 16.6016C32.4584 16.605 33.084 17.226 33.0907 18.2897C33.0941 18.8199 33.0907 19.35 33.0907 19.8734ZM44.928 35.1858C44.6903 35.2818 44.5402 35.3373 44.3935 35.4012C41.4932 36.6753 38.5929 37.9477 35.6976 39.2302C35.0282 39.5264 34.4009 39.518 33.7281 39.2066C32.2678 38.5334 30.7873 37.9039 29.3152 37.256C28.5598 36.9244 27.8061 36.5945 27.0506 36.263C27.0203 36.3337 26.9984 36.3623 26.9984 36.3926C26.9933 38.6866 26.9849 40.9806 27.0017 43.2746C27.0034 43.3991 27.1973 43.5943 27.3373 43.6364C29.1382 44.175 30.9897 44.4813 32.8614 44.5065C34.8123 44.5335 36.7684 44.4594 38.7143 44.3147C40.3196 44.1952 41.8878 43.8165 43.3885 43.1971C44.4205 42.7713 45.0494 42.2092 44.9601 40.9149C44.8319 39.04 44.928 37.1483 44.928 35.1858ZM13.3517 4.12853C13.3517 4.9162 13.3517 5.62139 13.3517 6.32323C17.5707 6.32323 21.7508 6.32323 25.9748 6.32323C25.9748 5.75772 25.9445 5.22083 25.985 4.68899C26.0204 4.22783 25.8467 4.11675 25.4083 4.12012C22.4759 4.13695 19.5419 4.12853 16.6078 4.12853C15.5354 4.12853 14.463 4.12853 13.3517 4.12853ZM25.4774 42.8218C25.4858 42.6535 25.4993 42.497 25.501 42.3388C25.5027 40.3242 25.5027 38.3112 25.5027 36.2966C25.5027 35.4517 25.501 35.4484 24.5466 35.2329C24.5466 35.4012 24.5466 35.5578 24.5466 35.716C24.5466 37.665 24.5466 39.6139 24.5466 41.5629C24.5466 42.2327 24.7709 42.5407 25.4774 42.8218ZM7.67252 18.0894C7.67252 18.7256 7.66409 19.3382 7.68264 19.9492C7.68601 20.0333 7.82597 20.1831 7.90522 20.1848C8.61512 20.2033 9.32503 20.1949 10.0484 20.1949C10.0484 19.4611 10.0484 18.7761 10.0484 18.0877C9.25252 18.0894 8.4954 18.0894 7.67252 18.0894ZM29.2411 18.0894C29.2411 18.7896 29.2411 19.4762 29.2411 20.1663C30.0437 20.1663 30.8008 20.1663 31.5815 20.1663C31.5815 19.4594 31.5815 18.7879 31.5815 18.0894C30.7941 18.0894 30.0353 18.0894 29.2411 18.0894ZM10.0568 23.7158C10.0568 23.0174 10.0568 22.3627 10.0568 21.7046C9.2542 21.7046 8.4836 21.7046 7.71637 21.7046C7.71637 22.3947 7.71637 23.0494 7.71637 23.7158C8.51058 23.7158 9.25758 23.7158 10.0568 23.7158ZM31.5798 23.731C31.5798 23.0123 31.5798 22.3593 31.5798 21.7097C30.7789 21.7097 30.0117 21.7097 29.2512 21.7097C29.2512 22.4014 29.2512 23.0527 29.2512 23.731C29.7216 23.731 30.1432 23.731 30.5631 23.731C30.8851 23.731 31.2072 23.731 31.5798 23.731ZM33.3689 31.2424C33.9928 32.0082 35.497 32.0049 36.0753 31.261C35.5172 30.5457 34.0805 30.5221 33.3689 31.2424Z" fill="white"/>
</svg>
