<svg width="45" height="45" viewBox="0 0 45 45" fill="none" xmlns="http://www.w3.org/2000/svg">
<path d="M35.6082 13.8637C35.502 14.1883 35.472 14.4807 35.3266 14.6902C34.5163 15.8366 34.8418 16.9624 35.4859 17.9799C35.7744 18.4334 36.3839 18.7673 36.9194 18.9629C37.7943 19.2829 38.2537 19.7825 38.2306 20.7333C38.2029 21.9949 38.2121 23.2564 38.2167 24.518C38.219 25.3053 37.8543 25.7543 37.1064 26.0581C35.008 26.9099 34.4332 28.2751 35.3127 30.324C35.629 31.0607 35.5851 31.6593 35.038 32.2095C34.0685 33.1879 33.0828 34.1525 32.0971 35.1148C31.557 35.642 30.9822 35.6028 30.3058 35.3128C28.2652 34.4356 26.8802 35.0135 26.033 37.1061C25.7306 37.8566 25.2666 38.2089 24.4817 38.2066C23.1798 38.202 21.8778 38.195 20.5759 38.2089C19.7264 38.2181 19.274 37.8083 18.9646 37.0256C18.1706 35.025 16.7416 34.4403 14.7518 35.299C14.0247 35.612 13.4383 35.6074 12.8612 35.0641C12.1641 34.408 11.4577 33.7588 10.7513 33.1119C9.62023 32.0806 9.13316 30.9847 10.0473 29.5022C10.5274 28.7217 9.6941 26.6728 8.80536 26.4518C7.13639 26.0351 6.63777 24.9554 6.71395 23.413C6.76704 22.3425 6.71857 21.2582 6.89631 20.2107C6.96787 19.794 7.45726 19.3106 7.87508 19.1126C10.0334 18.1042 10.6013 16.8795 9.70102 14.7454C9.41016 14.0548 9.43325 13.4907 9.94571 12.9613C10.8529 12.0266 11.7694 11.1034 12.6881 10.1803C13.3321 9.53336 14.0062 9.45279 14.8718 9.85336C16.6539 10.6775 18.2075 10.0237 18.9162 8.17279C19.2509 7.30028 19.768 6.86518 20.7052 6.88129C21.9309 6.90201 23.159 6.89741 24.3848 6.8882C25.2689 6.88129 25.7675 7.28647 26.0884 8.12675C26.8271 10.0582 28.3368 10.6821 30.2158 9.83955C30.9799 9.49653 31.6055 9.48271 32.2033 10.0813C33.1775 11.0551 34.1632 12.0197 35.1142 13.0142C35.3428 13.2559 35.4582 13.5989 35.6082 13.8637ZM12.3164 28.8529C12.2149 29.1223 12.1664 29.4055 12.0187 29.6173C11.2453 30.7154 11.5501 31.5856 12.5357 32.343C12.7181 32.4834 12.8843 32.6492 13.0297 32.8264C13.6276 33.5608 14.304 33.6805 15.1096 33.1626C15.8668 32.6745 16.6055 32.7482 17.3603 33.227C17.7435 33.4687 18.1867 33.6598 18.6299 33.7565C19.514 33.9476 20.0657 34.4149 20.2458 35.3105C20.4259 36.2037 21.0053 36.5697 21.8917 36.526C22.4665 36.4984 23.0644 36.5766 23.6091 36.4408C23.9808 36.3487 24.4817 36.0287 24.5764 35.7087C24.9272 34.5185 25.6244 33.8256 26.8478 33.5885C27.2518 33.5102 27.605 33.181 28.009 33.1073C28.5307 33.0106 29.2024 32.8426 29.5925 33.0728C30.7583 33.7611 31.5801 33.4572 32.3418 32.4995C32.605 32.1703 32.9882 31.9171 33.1775 31.558C33.3414 31.2449 33.4799 30.7315 33.3344 30.4783C32.6927 29.3663 32.7043 28.3488 33.3991 27.2691C33.6622 26.8616 33.7038 26.3183 33.9369 25.8855C34.1031 25.5747 34.3663 25.2432 34.6733 25.0889C36.557 24.1474 36.6655 23.9264 36.5177 21.8038C36.4623 21.0095 36.1969 20.5054 35.3982 20.3373C34.4286 20.1324 33.8885 19.5477 33.6969 18.5693C33.6115 18.1296 33.3968 17.6945 33.159 17.3077C32.7389 16.624 32.6489 15.9725 33.1105 15.2795C33.6853 14.4139 33.5838 13.6657 32.7343 13.0165C32.4019 12.7633 32.0995 12.4548 31.8294 12.1348C31.3284 11.5362 30.7952 11.4557 30.1327 11.8746C29.2855 12.4087 28.4337 12.4318 27.5704 11.8447C27.2287 11.6122 26.8132 11.4418 26.4069 11.3636C25.5113 11.1886 24.9734 10.7075 24.7957 9.81192C24.6179 8.91869 24.0454 8.55265 23.1544 8.6056C22.6188 8.63783 22.081 8.65624 21.5454 8.64704C20.9245 8.63552 20.5251 8.87495 20.3889 9.50573C20.1465 10.6315 19.4448 11.2669 18.3137 11.4994C17.9097 11.5823 17.5057 11.7687 17.1525 11.9897C16.5408 12.3696 15.9476 12.4755 15.3335 12.0473C14.3132 11.3359 13.5099 11.6513 12.792 12.5308C12.5011 12.8876 12.0948 13.1638 11.8732 13.5529C11.7001 13.8591 11.5524 14.3863 11.7001 14.6326C12.3926 15.7906 12.2911 16.8427 11.5916 17.9431C11.3515 18.3206 11.3215 18.8248 11.1045 19.2231C10.936 19.5339 10.6821 19.87 10.3774 20.0265C8.47757 21.0003 8.32291 21.2904 8.52374 23.4199C8.58837 24.1082 8.80767 24.5456 9.52097 24.7436C10.3912 24.983 11.0884 25.379 11.3123 26.4334C11.4831 27.2691 11.9679 28.0472 12.3164 28.8529Z" fill="white"/>
<path d="M22.5773 0C37.8728 0.174963 48.6576 15.0998 43.8354 29.5618C43.5699 30.3607 43.5676 30.9109 44.1193 31.6269C45.0866 32.8861 44.8742 34.8084 43.8308 35.9917C42.6997 37.274 40.936 37.647 39.4287 36.9218C37.9305 36.2012 37.0602 34.4884 37.3903 32.9137C37.7412 31.2378 39.0847 29.9486 40.7444 29.9532C41.6886 29.9578 41.9564 29.5618 42.2011 28.7768C46.0445 16.5248 38.0413 3.8699 25.2481 2.11797C20.8691 1.51941 16.677 2.29754 12.7574 4.39479C12.4873 4.53983 12.2288 4.80688 11.9541 4.82299C11.4854 4.85062 10.816 4.89896 10.5736 4.62961C10.0681 4.07019 10.4975 3.50847 11.0722 3.26674C13.1844 2.37811 15.2782 1.3951 17.4665 0.745894C19.1009 0.260142 20.8691 0.232516 22.5773 0ZM42.8705 33.5653C42.8543 32.5385 42.0741 31.7535 41.0561 31.7397C40.0127 31.7258 39.1355 32.5914 39.154 33.6205C39.1724 34.6035 40.0104 35.4369 40.9961 35.4507C42.0579 35.4645 42.8866 34.6311 42.8705 33.5653Z" fill="white"/>
<path d="M23.0505 45.0006C11.0653 44.8463 1.71625 36.6484 0.201943 25.4623C-0.266663 22.0022 0.0749804 18.572 1.28227 15.2684C1.49696 14.6814 1.50388 14.2601 1.07221 13.7168C-0.0173556 12.3401 0.0749804 10.4431 1.17147 9.16081C2.31644 7.82327 4.0916 7.45723 5.66131 8.23765C7.12253 8.96513 7.95818 10.6204 7.64192 12.1605C7.27027 13.9608 5.92909 15.1648 4.09391 15.1671C3.35291 15.1671 3.11515 15.4664 2.90739 16.0742C-1.37008 28.5863 7.58652 42.1137 20.7652 43.0921C24.9965 43.4075 28.9323 42.5603 32.6281 40.5183C32.762 40.4446 32.8982 40.3733 33.0297 40.295C33.5837 39.9635 34.2416 39.8208 34.4679 40.5183C34.5833 40.8797 34.2393 41.6372 33.8792 41.8605C31.6147 43.2763 29.1285 44.1925 26.49 44.6276C25.1304 44.8509 23.7453 44.9269 23.0505 45.0006ZM5.88292 11.5481C5.90139 10.595 5.0542 9.70642 4.08698 9.66038C3.03897 9.61203 2.17101 10.4362 2.15947 11.4929C2.14793 12.5242 2.90277 13.3254 3.92078 13.3622C4.98034 13.4037 5.86215 12.5864 5.88292 11.5481Z" fill="white"/>
<path d="M22.5565 30.6171C18.069 30.631 14.4587 27.0903 14.4333 22.6517C14.4056 18.1165 17.9674 14.5021 22.4757 14.4883C26.9979 14.4745 30.6036 18.0612 30.6059 22.5711C30.6059 27.0212 27.0187 30.6056 22.5565 30.6171ZM22.4965 28.7938C25.9637 28.8007 28.75 26.0681 28.7777 22.631C28.8077 19.1294 26.0284 16.3185 22.5311 16.3116C19.0685 16.3047 16.2823 19.0466 16.2615 22.4814C16.2384 26.0106 18.9808 28.7869 22.4965 28.7938Z" fill="white"/>
</svg>
