<svg width="39" height="46" viewBox="0 0 39 46" fill="none" xmlns="http://www.w3.org/2000/svg">
<g clip-path="url(#clip0_857_1959)">
<path d="M27.7754 44.0431C27.7754 42.142 27.7754 40.2698 27.7754 38.36C28.3926 38.36 28.9695 38.36 29.5841 38.36C29.5841 40.884 29.5841 43.4062 29.5841 45.9677C29.4116 45.9756 29.2483 45.9896 29.0842 45.9896C19.5528 45.9904 10.0213 45.9878 0.489845 45.9983C0.104668 45.9983 0 45.8882 0 45.4872C0.00921075 30.4911 0.00753607 15.4941 0.00837341 0.497167C0.00837341 0.354763 0.0226082 0.211485 0.0334936 6.33937e-05C0.232781 6.33937e-05 0.406948 6.33937e-05 0.581115 6.33937e-05C7.62818 6.33937e-05 14.6761 -0.00168389 21.7231 0.0131681C21.9408 0.0140417 22.2155 0.136352 22.3679 0.29885C24.9126 3.01676 27.4447 5.7469 29.9651 8.48839C30.1175 8.65438 30.2238 8.93744 30.2289 9.16896C30.2548 10.3187 30.2322 11.4693 30.2448 12.619C30.2481 12.9248 30.1518 13.0287 29.8596 13.0156C29.3898 12.9946 28.9192 13.0104 28.3984 13.0104C28.3984 12.2075 28.3984 11.4579 28.3984 10.6515C28.1841 10.6515 28.0216 10.6515 27.8583 10.6515C25.7089 10.6515 23.5603 10.6533 21.4108 10.6515C20.715 10.6507 20.7945 10.7188 20.7937 9.98757C20.7912 7.46885 20.7853 4.94926 20.8012 2.43054C20.8037 2.03828 20.7133 1.91247 20.3156 1.91334C14.3152 1.92732 8.31396 1.92558 2.31357 1.91422C1.95435 1.91334 1.83713 1.99721 1.83713 2.39298C1.84634 16.152 1.84634 29.9119 1.83796 43.6709C1.83796 44.0143 1.95435 44.0798 2.25077 44.0798C10.6242 44.0728 18.9968 44.0745 27.3702 44.0728C27.4933 44.0728 27.6155 44.0553 27.7754 44.0431ZM27.6147 8.69981C25.9392 6.89312 24.334 5.1633 22.6626 3.36185C22.6626 5.21135 22.6626 6.94641 22.6626 8.69981C24.2938 8.69981 25.8964 8.69981 27.6147 8.69981Z" fill="white"/>
<path d="M29.2772 15.5586C34.596 15.5464 38.9921 20.1444 38.9996 25.7287C39.008 31.3288 34.632 35.8953 29.2479 35.9067C23.8764 35.9172 19.5021 31.3602 19.4912 25.7418C19.4795 20.1234 23.8555 15.5708 29.2772 15.5586ZM29.2119 33.9864C33.5912 33.9951 37.17 30.2752 37.1625 25.7226C37.1549 21.2268 33.6063 17.499 29.3158 17.478C24.9088 17.457 21.3342 21.1587 21.3334 25.7471C21.3317 30.2682 24.8795 33.9785 29.2119 33.9864Z" fill="white"/>
<path d="M19.4164 33.0299C19.2405 33.0422 19.1191 33.057 18.9985 33.057C15.7095 33.0579 12.4204 33.0509 9.13214 33.0649C8.75952 33.0666 8.5954 32.9793 8.63894 32.5625C8.68081 32.1615 8.52758 31.5875 8.72854 31.3962C8.95713 31.1787 9.48298 31.2791 9.87988 31.2783C12.5418 31.2713 15.2037 31.28 17.8656 31.2678C18.1662 31.266 18.3446 31.3578 18.5011 31.6312C18.7641 32.0908 19.0772 32.5188 19.4164 33.0299Z" fill="white"/>
<path d="M19.4276 16.9881C19.0399 17.5839 18.7133 18.1055 18.3608 18.6087C18.2955 18.7022 18.128 18.7625 18.0083 18.7634C14.9981 18.7712 11.9878 18.7669 8.97674 18.7747C8.71632 18.7756 8.65017 18.6734 8.64096 18.4174C8.58654 16.9864 8.58151 16.9855 9.95643 16.9864C12.9533 16.9872 15.9493 16.9881 18.9461 16.989C19.0818 16.9881 19.2183 16.9881 19.4276 16.9881Z" fill="white"/>
<path d="M17.0587 21.7538C16.9574 22.3304 16.8829 22.831 16.7724 23.322C16.7523 23.412 16.5831 23.5265 16.4818 23.5265C13.9714 23.5369 11.4611 23.5317 8.95075 23.5378C8.7029 23.5387 8.63675 23.4304 8.64344 23.198C8.65265 22.8634 8.66438 22.527 8.63926 22.1941C8.6133 21.8508 8.72885 21.7407 9.06128 21.7442C10.5258 21.7599 11.9903 21.7512 13.4548 21.7512C14.5006 21.7512 15.5465 21.7521 16.5932 21.7521C16.7288 21.7538 16.8653 21.7538 17.0587 21.7538Z" fill="white"/>
<path d="M17.0645 28.2811C14.2511 28.2811 11.4929 28.2811 8.68945 28.2811C8.68945 27.7036 8.68945 27.1366 8.68945 26.5233C8.86027 26.5233 9.01099 26.5233 9.16171 26.5233C11.5465 26.5233 13.9312 26.5321 16.316 26.5137C16.6794 26.5111 16.8008 26.6299 16.8343 26.9942C16.872 27.4101 16.9783 27.8198 17.0645 28.2811Z" fill="white"/>
<path d="M28.5757 29.8516C26.8977 28.3437 25.1811 26.8009 23.4336 25.2309C23.8422 24.7356 24.2199 24.2778 24.631 23.7798C25.9431 24.954 27.2284 26.1046 28.5422 27.2805C30.2763 25.4493 31.9946 23.6348 33.6986 21.8359C34.1775 22.347 34.5836 22.7803 34.9646 23.1866C32.8704 25.3716 30.7377 27.5967 28.5757 29.8516Z" fill="white"/>
</g>
<defs>
<clipPath id="clip0_857_1959">
<rect width="39" height="46" fill="white"/>
</clipPath>
</defs>
</svg>
