<svg width="58" height="45" viewBox="0 0 58 45" fill="none" xmlns="http://www.w3.org/2000/svg">
<g clip-path="url(#clip0_857_1952)">
<path d="M42.545 25.0035C42.6416 24.9156 42.7213 24.8467 42.7966 24.7744C43.3297 24.2608 43.9638 24.2601 44.4941 24.7872C45.8035 26.0882 47.1086 27.3941 48.4151 28.6987C51.1291 31.4071 53.8552 34.1034 56.5515 36.8295C57.9739 38.2674 58.3527 39.9948 57.6725 41.8952C56.5209 45.1129 52.3013 46.0571 49.8724 43.6452C45.8163 39.6188 41.778 35.5754 37.734 31.5376C37.2065 31.0112 37.2058 30.3841 37.7169 29.8443C37.7887 29.7684 37.8605 29.6918 37.9735 29.5712C37.375 28.9852 36.7907 28.4021 36.1872 27.8396C36.1275 27.7843 35.9249 27.8183 35.8282 27.8765C33.9558 29.0058 31.9406 29.7351 29.764 29.9606C24.7482 30.4792 20.4732 28.9242 16.9659 25.3071C15.7347 24.0373 14.7943 22.5647 14.1097 20.9352C14.0024 20.6806 13.8638 20.6203 13.6065 20.621C9.55464 20.6281 5.50353 20.6252 1.45172 20.6252C0.395399 20.6252 0.0094103 20.2479 0.0143862 19.198C0.0214947 17.6615 -0.0495899 16.1186 0.0648562 14.5899C0.258917 11.9893 2.28412 10.0066 4.89434 9.86471C6.65439 9.76895 8.42369 9.81577 10.188 9.84911C11.2969 9.87039 12.2886 10.2847 13.1586 10.9756C13.2212 11.0253 13.2887 11.0685 13.3889 11.1395C14.6166 6.96833 17.0932 3.81231 20.9076 1.75441C23.4168 0.400213 26.1223 -0.148844 28.9671 0.0341747C35.2588 0.439229 40.7131 4.78203 42.4867 10.9465C42.5983 10.8628 42.6978 10.7904 42.7938 10.7153C43.7406 9.97325 44.8175 9.59728 46.0196 9.59231C47.5358 9.58593 49.052 9.58806 50.569 9.59089C53.6036 9.59657 55.8975 11.8857 55.9046 14.9148C55.9074 16.298 55.9053 17.6813 55.9046 19.0646C55.9039 19.9726 55.4923 20.3798 54.5767 20.3798C50.537 20.3798 46.4973 20.3833 42.4575 20.372C42.1469 20.3713 42.0161 20.4699 41.8889 20.7508C41.5569 21.4815 41.1666 22.1852 40.8119 22.9052C40.765 23.0002 40.733 23.1797 40.7849 23.2336C41.3564 23.8288 41.9464 24.4076 42.545 25.0035ZM40.7956 15.0488C40.7743 7.94798 35.0356 2.21693 27.9563 2.22757C20.8862 2.23821 15.1177 7.97919 15.1355 14.9878C15.154 22.166 20.8663 27.8559 28.0373 27.8375C35.0626 27.8204 40.8169 22.0518 40.7956 15.0488ZM40.0321 30.7771C40.1196 30.8353 40.2447 30.892 40.3357 30.9829C41.4695 32.1065 42.5983 33.2351 43.7285 34.363C46.2726 36.9026 48.816 39.4436 51.3623 41.981C52.0753 42.6918 52.9318 42.9337 53.9036 42.6642C55.8001 42.1371 56.373 39.8025 54.9506 38.3795C51.5414 34.966 48.1223 31.5617 44.7081 28.1517C44.359 27.8027 44.0207 27.4438 43.7079 27.1203C42.4767 28.3454 41.2903 29.5258 40.0321 30.7771ZM43.0219 18.1289C43.1357 18.1446 43.1819 18.1566 43.2281 18.1566C46.6124 18.158 49.9975 18.1552 53.3818 18.163C53.6299 18.1637 53.6761 18.0651 53.674 17.848C53.6661 16.8443 53.6761 15.8405 53.669 14.8367C53.6562 13.174 52.42 11.8708 50.7531 11.8311C49.1445 11.7928 47.5337 11.7942 45.925 11.8318C44.288 11.8701 43.0411 13.186 43.0269 14.8197C43.0212 15.5163 43.0227 16.2129 43.0212 16.9102C43.0219 17.3082 43.0219 17.7069 43.0219 18.1289ZM12.8899 18.3779C12.8899 17.2295 12.9027 16.12 12.8871 15.0112C12.8636 13.3641 11.5699 12.0801 9.91433 12.0645C8.36397 12.0503 6.81362 12.0496 5.26327 12.0631C3.56364 12.078 2.28269 13.3563 2.25852 15.0531C2.2436 16.0803 2.25497 17.1082 2.25639 18.1353C2.25639 18.2134 2.2763 18.2907 2.28838 18.3765C5.82057 18.3779 9.33072 18.3779 12.8899 18.3779ZM38.0027 26.3215C38.5301 26.8543 39.0654 27.3948 39.5552 27.89C39.9845 27.4643 40.4423 27.0103 40.8468 26.6088C40.3328 26.0924 39.7961 25.5533 39.2886 25.0432C38.86 25.4689 38.4078 25.9179 38.0027 26.3215Z" fill="white"/>
<path d="M3.25109 4.30477C3.26815 1.90425 5.21018 -0.00965214 7.61284 0.00595414C9.9963 0.0215604 11.9511 1.97944 11.927 4.32464C11.9014 6.76631 9.95365 8.68234 7.51972 8.66176C5.15047 8.6419 3.23403 6.68473 3.25109 4.30477ZM9.68495 4.32322C9.6814 3.17261 8.73597 2.23198 7.58085 2.22985C6.43639 2.22772 5.48243 3.17899 5.47746 4.32748C5.47248 5.49298 6.43639 6.44638 7.6036 6.43219C8.77009 6.41659 9.68851 5.48589 9.68495 4.32322Z" fill="white"/>
<path d="M52.6859 4.33602C52.6752 6.75074 50.7261 8.67173 48.3014 8.65684C45.9393 8.64194 44.0001 6.67271 44.0157 4.3041C44.0321 1.91279 45.9904 -0.012453 48.3888 0.00599079C50.778 0.0244346 52.6958 1.95749 52.6859 4.33602ZM46.2591 4.34525C46.2712 5.51359 47.2067 6.43365 48.3711 6.42301C49.5326 6.41166 50.4702 5.46393 50.4588 4.31332C50.4474 3.16272 49.4892 2.22208 48.3377 2.22918C47.1825 2.23627 46.2471 3.18825 46.2591 4.34525Z" fill="white"/>
<path d="M27.9718 24.4991C25.8869 24.4991 23.802 24.4998 21.717 24.4984C20.8256 24.4977 20.407 24.0827 20.4062 23.2002C20.4048 21.7935 20.4027 20.3868 20.4062 18.9801C20.4134 15.966 22.7257 13.6598 25.7504 13.6591C27.3967 13.6584 29.048 13.5917 30.6872 13.7031C33.4581 13.8918 35.4819 16.1157 35.5188 18.8922C35.538 20.3578 35.5252 21.824 35.5195 23.2896C35.5167 24.0529 35.0667 24.4956 34.2969 24.4963C32.1885 24.4998 30.0801 24.4977 27.9711 24.4977C27.9718 24.4984 27.9718 24.4991 27.9718 24.4991ZM22.6568 22.2511C26.2103 22.2511 29.7311 22.2511 33.2811 22.2511C33.2811 21.1161 33.2917 20.0073 33.2789 18.8986C33.259 17.1961 31.9468 15.9022 30.2429 15.8958C28.7629 15.8901 27.283 15.8908 25.803 15.8951C23.9263 15.9 22.6568 17.1585 22.6433 19.0255C22.6362 19.9825 22.6404 20.9394 22.6411 21.8964C22.6411 22.0113 22.6511 22.1262 22.6568 22.2511Z" fill="white"/>
<path d="M27.968 12.512C25.5725 12.5141 23.6361 10.5811 23.6318 8.18338C23.6269 5.802 25.5788 3.85689 27.9737 3.85547C30.3621 3.85405 32.3276 5.81619 32.3127 8.18692C32.2978 10.5867 30.3657 12.5099 27.968 12.512ZM25.8703 8.155C25.8582 9.33186 26.7944 10.2853 27.9652 10.2888C29.1196 10.2924 30.0685 9.35385 30.0749 8.20253C30.0813 7.04483 29.1537 6.1049 27.9936 6.09213C26.8264 6.08007 25.8824 6.9973 25.8703 8.155Z" fill="white"/>
</g>
<defs>
<clipPath id="clip0_857_1952">
<rect width="58" height="45" fill="white"/>
</clipPath>
</defs>
</svg>
