<svg width="45" height="53" viewBox="0 0 45 53" fill="none" xmlns="http://www.w3.org/2000/svg">
<path d="M22.5196 39.4688C21.6746 39.1818 20.8171 38.9816 20.0464 38.603C19.3143 38.2431 18.6147 37.7637 18.0018 37.2222C16.564 35.9499 14.8878 35.3526 13.0104 35.2037C12.5755 35.1695 12.1406 35.0951 11.7119 35.0066C8.73872 34.3969 7.41387 32.9446 7.06408 29.5701C6.83502 27.3561 6.16176 25.412 4.66047 23.7503C4.21782 23.2585 3.88197 22.6581 3.55849 22.0731C2.64688 20.4208 2.69177 18.7575 3.62814 17.1315C3.98721 16.5078 4.36331 15.8701 4.84155 15.3411C6.22212 13.8159 6.883 12.0224 7.01765 10.0007C7.02848 9.84558 7.04241 9.69198 7.06718 9.53838C7.63983 5.99626 9.05136 4.56575 12.6173 4.19494C14.7919 3.96842 16.7126 3.31212 18.3671 1.84128C18.9753 1.30135 19.7152 0.885542 20.4457 0.514728C21.7922 -0.16639 23.1944 -0.175699 24.5379 0.511625C25.3133 0.907263 26.0995 1.34945 26.7434 1.92506C28.3391 3.35091 30.1932 4.03668 32.2904 4.16391C32.4189 4.17167 32.5473 4.19028 32.6742 4.21201C36.1133 4.79227 37.5093 6.10486 37.9009 9.60975C38.164 11.9619 38.9286 13.9757 40.4624 15.7755C41.5876 17.0943 42.3831 18.6303 41.9915 20.4658C41.8491 21.1345 41.5628 21.7892 41.244 22.3989C40.9344 22.9885 40.5552 23.5641 40.1079 24.0544C38.7382 25.5563 38.1299 27.3421 37.9674 29.3312C37.921 29.8944 37.7925 30.4529 37.6687 31.0052C37.192 33.1417 35.8687 34.4403 33.7406 34.8887C32.8352 35.0795 31.9174 35.2238 30.9996 35.3464C29.7986 35.5062 28.7198 35.9174 27.7447 36.6574C26.8223 37.3587 25.889 38.0631 24.8845 38.6279C24.1896 39.022 23.36 39.1818 22.5196 39.4688ZM22.5599 37.2206C23.0613 37.0298 23.603 36.9072 24.0503 36.6342C24.8164 36.1641 25.5501 35.6288 26.2527 35.0656C27.6023 33.9826 29.1284 33.376 30.8355 33.1851C31.3726 33.1246 31.9097 33.047 32.4405 32.9493C34.8348 32.5102 35.4168 31.9082 35.7913 29.4987C35.8115 29.3715 35.8192 29.2412 35.8285 29.1124C36.0127 26.6718 36.7912 24.478 38.4612 22.6394C38.8048 22.2609 39.0679 21.8063 39.3542 21.3765C40.1265 20.2144 40.1033 19.0461 39.3201 17.9042C38.7939 17.1393 38.2414 16.3915 37.6796 15.6514C36.8361 14.5389 36.2835 13.3117 36.09 11.92C35.9585 10.9735 35.8037 10.0302 35.6428 9.08999C35.392 7.6238 34.5439 6.74099 33.0658 6.49274C32.7609 6.44154 32.4591 6.35776 32.1526 6.33759C29.5803 6.16072 27.3439 5.26239 25.3318 3.58674C23.0164 1.65975 21.9857 1.6551 19.6857 3.57588C17.6536 5.27325 15.3815 6.11262 12.7922 6.35776C10.3654 6.58739 9.68283 7.29178 9.24327 9.67802C9.21077 9.85489 9.1891 10.0364 9.17517 10.2164C8.99564 12.688 8.18154 14.8942 6.49607 16.7514C6.15247 17.13 5.89246 17.5877 5.61232 18.0206C4.9112 19.1051 4.88334 20.2082 5.60303 21.2896C6.08902 22.0188 6.59822 22.7356 7.13682 23.4276C8.09022 24.6564 8.748 26.0016 8.93528 27.5624C9.00802 28.1768 9.11326 28.7881 9.19839 29.4025C9.53579 31.8586 10.127 32.4869 12.5384 32.9478C12.7411 32.9865 12.9439 33.0284 13.1482 33.0424C15.5332 33.2162 17.6598 33.9981 19.4706 35.6164C19.9845 36.0756 20.5974 36.4371 21.2041 36.7676C21.5987 36.9817 22.0661 37.0624 22.5599 37.2206Z" fill="white"/>
<path d="M32.5643 49.5566C33.4558 47.7475 34.2838 46.1138 35.0654 44.4598C35.4137 43.7229 35.8919 43.4281 36.7184 43.5553C38.3714 43.8098 40.0336 43.9959 41.8445 44.2287C41.6711 43.9013 41.5566 43.667 41.4266 43.442C40.0243 41.0031 38.619 38.5672 37.2152 36.1282C37.0868 35.9047 36.9413 35.6875 36.8422 35.4502C36.6023 34.8745 36.7107 34.3563 37.2601 34.0414C37.8003 33.7311 38.3079 33.8645 38.6948 34.361C38.8047 34.5022 38.8806 34.6697 38.9703 34.8264C40.8647 38.1141 42.7545 41.4033 44.6551 44.6848C44.9399 45.1782 45.1659 45.6638 44.8238 46.2022C44.4725 46.7545 43.9199 46.7127 43.3674 46.6382C41.3507 46.3667 39.3356 46.0796 37.3143 45.85C37.0914 45.8252 36.7184 46.0796 36.6054 46.3015C35.6396 48.1835 34.7141 50.0872 33.7886 51.9878C33.5425 52.4936 33.2794 52.9777 32.6402 52.9979C32.0009 53.018 31.7193 52.5603 31.4469 52.0576C29.4178 48.3138 27.3686 44.5824 25.3427 40.837C25.1662 40.5112 24.9573 40.0644 25.0532 39.768C25.1647 39.4221 25.5454 39.0528 25.8952 38.9194C26.457 38.7068 26.8563 39.0823 27.1287 39.585C28.3205 41.7866 29.5184 43.9851 30.7148 46.182C31.3045 47.2634 31.8973 48.3402 32.5643 49.5566Z" fill="white"/>
<path d="M2.97032 44.0129C5.00867 43.8779 6.91082 43.7647 8.80988 43.6235C10.3994 43.5056 10.5186 43.5661 11.1191 45.0276C11.684 46.4007 12.2536 47.7707 12.8773 49.2788C13.0909 48.8878 13.241 48.6303 13.3772 48.365C14.7253 45.7212 16.0687 43.0743 17.4168 40.4305C17.8269 39.6268 18.3949 39.3692 19.0156 39.6904C19.6285 40.0085 19.7538 40.6182 19.3421 41.4327C17.5328 44.9997 15.7127 48.562 13.9019 52.1305C13.6527 52.6208 13.3401 53.0257 12.7411 52.9978C12.1483 52.9699 11.8666 52.5603 11.6577 52.0405C10.9364 50.2438 10.1672 48.4674 9.46456 46.6645C9.21848 46.0346 8.95691 45.7662 8.19079 45.8406C5.9079 46.0609 3.61263 46.1509 1.322 46.2906C0.237048 46.3573 -0.32168 45.5427 0.193712 44.5746C2.05098 41.0883 3.92682 37.6145 5.80885 34.1421C6.15244 33.5091 6.7545 33.3245 7.30704 33.6193C7.87815 33.9234 8.0453 34.5409 7.68314 35.2205C6.26078 37.8844 4.8214 40.5391 3.38976 43.1984C3.26903 43.4202 3.15605 43.6483 2.97032 44.0129Z" fill="white"/>
<path d="M35.8099 19.6845C35.8068 27.0201 29.8434 33.0059 22.5227 33.0183C15.2051 33.0307 9.18599 27.0325 9.18909 19.7295C9.19218 12.2698 15.137 6.31191 22.5568 6.33208C29.8868 6.35225 35.813 12.3225 35.8099 19.6845ZM22.501 8.49801C16.3659 8.50266 11.3621 13.497 11.3497 19.6271C11.3373 25.8332 16.3643 30.857 22.5769 30.8477C28.6254 30.8399 33.6493 25.7835 33.6493 19.7047C33.6493 13.5125 28.6563 8.4918 22.501 8.49801Z" fill="white"/>
<path d="M21.5043 21.1863C23.2052 19.4766 24.8412 17.8319 26.4787 16.1873C26.8424 15.8212 27.1999 15.4457 27.5791 15.0966C28.0697 14.6451 28.6021 14.6234 29.1036 15.0687C29.5571 15.469 29.5896 16.1129 29.1191 16.5907C26.8548 18.8916 24.5765 21.1786 22.2797 23.4469C21.786 23.9341 21.1994 23.8968 20.6964 23.3973C19.4489 22.1607 18.2045 20.9226 16.9756 19.6674C16.4928 19.174 16.4959 18.4913 16.9292 18.0771C17.3517 17.6721 18.0389 17.6908 18.5249 18.1717C19.5139 19.1492 20.4797 20.1484 21.5043 21.1863Z" fill="white"/>
</svg>
