<svg version="1.2" xmlns="http://www.w3.org/2000/svg" viewBox="0 0 255 70" width="255" height="70"><defs><linearGradient id="P" gradientUnits="userSpaceOnUse"/><linearGradient id="g1" x2="1" href="#P" gradientTransform="matrix(0,64.21,-56.667,0,28.332,5.787)"><stop stop-color="#2964ac"/><stop offset="1" stop-color="#253976"/></linearGradient><clipPath clipPathUnits="userSpaceOnUse" id="cp1"><path d="m91.99 44.84v-32.08h5.13v27.58h16.78v4.5zm29.25-10.68c0.2 4.73 2.6 7.49 6.38 7.49 2.74 0 4.85-1.4 5.47-3.82h4.99c-1.44 4.84-4.84 7.64-10.45 7.64-7.34 0-11.18-4.74-11.18-12.52 0-7.97 4.08-12.51 11.04-12.51 7.24 0 10.93 4.87 10.93 13.72h-17.18zm12.23-3.1c-0.09-4.35-2.63-6.76-5.99-6.76-3.45 0-5.9 2.56-6.09 6.76zm10.21-10h4.52v4.25c1.86-4.06 4.89-4.87 7.76-4.87h1.06v4.97q-0.8-0.14-1.73-0.14c-4.6 0-6.81 2.99-6.81 7.34v12.23h-4.8zm34.29 9.13c0-4.3-1.63-5.65-4.84-5.65-4.8 0-6.43 3.04-6.43 7.97v12.32h-4.8v-23.77h4.6v4.73c1.39-3.67 4.41-5.36 8.25-5.36 4.66 0 8.01 2.51 8.01 8.22v16.18h-4.79zm31.41 7.64q0 0 0-0.01zm-9.83 7.63q-11.22 0.01-11.22-12.95c0-7.34 3.98-12.07 10.89-12.07 6.85 0 10.5 4.97 10.5 13.28h-18.04c0.15 5.85 2.88 9.04 7.72 9.04 3.12 0 5.61-1.79 6.47-4.93h3.51c-1.34 4.88-5.03 7.63-9.83 7.63zm6.72-13.96c-0.1-5.17-2.88-8.31-7.15-8.31-4.41 0-7.19 3.19-7.34 8.31zm9.07-10.44h3.16v5.61c1.68-4.93 5.28-6.23 8.54-6.23h1.29v3.47q-0.72-0.08-1.72-0.09c-5.37 0-7.91 4.06-7.91 8.89v12.13h-3.36zm35.14 8.89c0-5.27-2.2-6.62-6.13-6.62-5.85 0-7.48 4.63-7.48 10.48v11.02h-3.36v-23.77h3.21v5.94c1.34-4.69 4.99-6.57 8.87-6.57 4.85 0 8.25 2.27 8.25 8.51v15.89h-3.36z"/></clipPath><linearGradient id="g2" x2="1" href="#P" gradientTransform="matrix(164.206,0,0,59.023,90.797,29.511)"><stop stop-color="#076766"/><stop offset="1" stop-color="#0d93b1"/></linearGradient></defs><style>.a{fill:url(#g1)}.b{fill:#f9a11e}.c{fill:#09817f}.d{fill:url(#g2)}.e{fill:#383838}.f{fill:#575757}</style><filter id="f0"><feFlood flood-color="#ffffff" flood-opacity="1" /><feBlend mode="normal" in2="SourceGraphic"/><feComposite in2="SourceAlpha" operator="in" /></filter><g filter="url(#f0)"><path class="a" d="m56.4 41.5c-1.7 12-12.1 21.4-24.5 21.4-13.7 0-24.8-11.2-24.8-25 0-13.8 11.1-25 24.8-25v-7.1c-8.5 0-16.6 3.3-22.6 9.4-6 6.1-9.3 14.1-9.3 22.7 0 8.6 3.3 16.6 9.3 22.7 6 6.1 14.1 9.4 22.6 9.4 8.5 0 16.5-3.3 22.5-9.4q1.2-1.2 2.3-2.5v-16.6z"/><path class="b" d="m56.4 41.5h7.1v-32.2c0 7.5-2.5 14.5-7.1 20.2z"/><path class="c" d="m31.6 5.8v7.1h24.6 0.2v16.6c4.6-5.7 7.1-12.7 7.1-20.2v-3.5z"/><g clip-path="url(#cp1)"><path class="d" d="m255 0h-164.2v59h164.2z"/></g><path class="e" d="m92.4 62.2q-0.9-0.7-0.9-1.8v-0.4q0-0.2 0.1-0.2h0.7q0.1 0 0.1 0.2v0.3q0 0.8 0.6 1.3 0.7 0.5 1.8 0.5 1 0 1.6-0.5 0.5-0.4 0.5-1.1 0-0.5-0.2-0.8-0.3-0.4-0.8-0.7-0.5-0.3-1.5-0.7-1-0.4-1.5-0.7-0.6-0.3-0.9-0.7-0.3-0.5-0.3-1.2 0-1.2 0.7-1.8 0.8-0.6 2.2-0.6 1.5 0 2.3 0.7 0.9 0.7 0.9 1.8v0.3q0 0.2-0.2 0.2h-0.6q-0.2 0-0.2-0.2v-0.2q0-0.8-0.6-1.3-0.6-0.5-1.6-0.5-1 0-1.5 0.4-0.5 0.4-0.5 1.1 0 0.5 0.2 0.8 0.3 0.4 0.7 0.6 0.5 0.2 1.5 0.6 0.9 0.4 1.5 0.8 0.6 0.3 1 0.8 0.3 0.5 0.3 1.2 0 1.2-0.8 1.8-0.8 0.7-2.3 0.7-1.5 0-2.3-0.7z"/><path class="e" d="m107 56.5q0.7 0.7 0.7 1.7v4.4q0 0.2-0.2 0.2h-0.6q-0.2 0-0.2-0.2v-4.2q0-0.7-0.4-1.2-0.5-0.5-1.2-0.5-0.7 0-1.1 0.5-0.5 0.4-0.5 1.2v4.2q0 0.2-0.1 0.2h-0.7q-0.1 0-0.1-0.2v-9.1q0-0.1 0.1-0.1h0.7q0.1 0 0.1 0.1v3.2q0 0 0 0 0 0.1 0 0 0.6-0.8 1.8-0.8 1.1 0 1.7 0.6z"/><path class="e" d="m116.8 56.5q0.7 0.6 0.7 1.6v4.5q0 0.2-0.1 0.2h-0.7q-0.2 0-0.2-0.2v-0.5q0 0 0 0 0-0.1 0 0-0.3 0.4-0.9 0.6-0.5 0.2-1.2 0.2-0.9 0-1.5-0.5-0.7-0.5-0.7-1.5 0-1 0.7-1.6 0.8-0.5 2.1-0.5h1.5q0 0 0-0.1v-0.5q0.1-0.7-0.3-1.1-0.4-0.4-1.2-0.4-0.6 0-1 0.3-0.4 0.2-0.5 0.7-0.1 0.1-0.2 0.1l-0.7-0.1q-0.2-0.1-0.1-0.1 0.1-0.8 0.8-1.2 0.7-0.5 1.7-0.5 1.2 0 1.8 0.6zm-0.8 5.2q0.5-0.4 0.5-1.1v-1.1q0 0 0 0h-1.4q-0.9 0-1.4 0.4-0.5 0.3-0.5 1 0 0.6 0.4 0.9 0.4 0.3 1 0.3 0.8 0 1.4-0.4z"/><path class="e" d="m127.8 59.4q0 1.1-0.2 1.6-0.2 0.9-0.8 1.4-0.7 0.5-1.6 0.5-0.5 0-1-0.2-0.4-0.2-0.7-0.6 0 0-0.1 0 0 0 0 0v3.1q0 0.2-0.1 0.2h-0.7q-0.1 0-0.1-0.2v-9.1q0-0.1 0.1-0.1h0.7q0.1 0 0.1 0.1v0.6q0 0 0 0 0.1 0 0.1 0 0.3-0.4 0.7-0.6 0.4-0.2 1-0.2 0.9 0 1.5 0.5 0.7 0.4 0.9 1.3 0.2 0.6 0.2 1.7zm-1 1q0.1-0.4 0.1-1 0-0.6-0.1-1-0.1-0.4-0.2-0.6-0.1-0.5-0.6-0.8-0.4-0.3-0.9-0.3-0.6 0-0.9 0.3-0.4 0.3-0.5 0.7-0.2 0.3-0.2 0.7-0.1 0.3-0.1 1 0 0.6 0.1 1 0 0.4 0.2 0.6 0.1 0.5 0.5 0.8 0.4 0.2 0.9 0.2 0.5 0 0.9-0.2 0.4-0.3 0.6-0.7 0.1-0.3 0.2-0.7z"/><path class="e" d="m132.8 54.5q-0.2-0.2-0.2-0.5 0-0.3 0.2-0.5 0.2-0.2 0.5-0.2 0.3 0 0.5 0.2 0.2 0.2 0.2 0.5 0 0.3-0.2 0.5-0.2 0.3-0.5 0.3-0.3 0-0.5-0.3zm0 8.1v-6.5q0-0.1 0.1-0.1h0.7q0.1 0 0.1 0.1v6.5q0 0.2-0.1 0.2h-0.7q-0.1 0-0.1-0.2z"/><path class="e" d="m143.5 56.5q0.6 0.7 0.6 1.7v4.4q0 0.2-0.1 0.2h-0.7q-0.1 0-0.1-0.2v-4.2q0-0.7-0.5-1.2-0.4-0.5-1.1-0.5-0.8 0-1.2 0.5-0.5 0.4-0.5 1.2v4.2q0 0.2-0.1 0.2h-0.7q-0.1 0-0.1-0.2v-6.5q0-0.1 0.1-0.1h0.7q0.1 0 0.1 0.1v0.6q0 0 0 0 0.1 0.1 0.1 0 0.6-0.8 1.8-0.8 1 0 1.7 0.6z"/><path class="e" d="m153.4 56h0.6q0.2 0 0.2 0.1v6.4q0 1.5-0.9 2.2-0.8 0.7-2.4 0.7-0.3 0-0.4 0-0.1 0-0.2-0.1l0.1-0.6q0-0.1 0-0.1 0-0.1 0.1-0.1l0.4 0.1q1.2 0 1.8-0.5 0.5-0.5 0.5-1.6v-0.5q0 0 0 0 0 0 0 0-0.7 0.8-1.8 0.8-0.9 0-1.5-0.5-0.7-0.4-0.9-1.3-0.2-0.5-0.2-1.6 0-0.6 0-1 0.1-0.4 0.2-0.7 0.2-0.8 0.9-1.3 0.6-0.5 1.5-0.5 1.1 0 1.7 0.8 0.1 0 0.1 0 0 0 0-0.1v-0.5q0-0.1 0.2-0.1zm-0.2 4.2q0-0.3 0-0.8 0-0.7 0-0.9 0-0.3-0.1-0.5-0.1-0.6-0.5-0.9-0.4-0.4-1-0.4-0.7 0-1.1 0.4-0.4 0.3-0.6 0.9-0.1 0.4-0.1 1.4 0 0.9 0.1 1.3 0.1 0.6 0.6 0.9 0.4 0.4 1.1 0.4 0.6 0 1-0.3 0.5-0.4 0.6-1 0-0.2 0-0.5z"/><path class="e" d="m170.8 54.2h-4.9q-0.1 0-0.1 0.1v3.3q0 0 0.1 0h3.4q0.1 0 0.1 0.2v0.5q0 0.2-0.1 0.2h-3.4q-0.1 0-0.1 0v4.1q0 0.2-0.1 0.2h-0.7q-0.1 0-0.1-0.2v-9.1q0-0.1 0.1-0.1h5.8q0.1 0 0.1 0.1v0.6q0 0.1-0.1 0.1z"/><path class="e" d="m179.2 56h0.7q0.1 0 0.1 0.1v6.5q0 0.2-0.1 0.2h-0.7q-0.1 0-0.1-0.2v-0.5q0-0.1-0.1-0.1 0 0 0 0-0.6 0.9-1.8 0.9-0.6 0-1.1-0.3-0.6-0.3-0.9-0.8-0.3-0.5-0.3-1.1v-4.6q0-0.1 0.1-0.1h0.7q0.1 0 0.1 0.1v4.3q0 0.7 0.5 1.2 0.4 0.4 1.1 0.4 0.8 0 1.2-0.4 0.5-0.5 0.5-1.2v-4.3q0-0.1 0.1-0.1z"/><path class="e" d="m187.9 56.8h-1.5q0 0 0 0v4q0 0.6 0.3 0.9 0.3 0.3 0.9 0.3h0.3q0.1 0 0.1 0.1v0.5q0 0.2-0.1 0.2-0.2 0-0.5 0-1 0-1.4-0.4-0.5-0.3-0.5-1.3v-4.3q0 0-0.1 0h-0.8q-0.1 0-0.1-0.2v-0.5q0-0.1 0.1-0.1h0.8q0.1 0 0.1-0.1v-1.5q0-0.2 0.1-0.2h0.6q0.2 0 0.2 0.2v1.5q0 0.1 0 0.1h1.5q0.2 0 0.2 0.1v0.5q0 0.2-0.2 0.2z"/><path class="e" d="m197 56h0.7q0.1 0 0.1 0.1v6.5q0 0.2-0.1 0.2h-0.7q-0.1 0-0.1-0.2v-0.5q0-0.1 0-0.1-0.1 0-0.1 0-0.5 0.9-1.7 0.9-0.7 0-1.2-0.3-0.6-0.3-0.9-0.8-0.3-0.5-0.3-1.1v-4.6q0-0.1 0.2-0.1h0.6q0.2 0 0.2 0.1v4.3q0 0.7 0.4 1.2 0.4 0.4 1.1 0.4 0.8 0 1.2-0.4 0.5-0.5 0.5-1.2v-4.3q0-0.1 0.1-0.1z"/><path class="e" d="m206.4 56.1q0.1 0.1 0 0.2l-0.1 0.6q0 0.2-0.2 0.1-0.2-0.1-0.5-0.1h-0.2q-0.7 0.1-1.1 0.5-0.5 0.5-0.5 1.3v3.9q0 0.2-0.1 0.2h-0.7q-0.1 0-0.1-0.2v-6.5q0-0.1 0.1-0.1h0.7q0.1 0 0.1 0.1v0.8q0 0.1 0 0.1 0.1 0 0.1 0 0.3-0.5 0.7-0.8 0.4-0.3 1-0.3 0.4 0 0.8 0.2z"/><path class="e" d="m215.8 59.2v0.4q0 0.1-0.1 0.1h-4.3q-0.1 0-0.1 0.1 0 0.7 0.1 0.9 0.1 0.6 0.6 1 0.5 0.3 1.2 0.3 0.6 0.1 1-0.2 0.5-0.3 0.7-0.7 0.1-0.2 0.2-0.1l0.5 0.3q0.1 0.1 0.1 0.2-0.4 0.6-1 1-0.7 0.4-1.6 0.4-0.9 0-1.6-0.5-0.6-0.4-0.9-1.2-0.2-0.6-0.2-1.9 0-0.5 0-0.9 0-0.3 0.1-0.6 0.2-0.9 0.9-1.4 0.7-0.5 1.7-0.5 1.2 0 1.8 0.6 0.7 0.6 0.8 1.7 0.1 0.4 0.1 1zm-3.8-2.1q-0.4 0.3-0.6 0.9-0.1 0.3-0.1 0.9 0 0 0.1 0h3.4q0.1 0 0.1 0-0.1-0.6-0.1-0.9-0.2-0.6-0.6-0.9-0.4-0.4-1.1-0.4-0.7 0-1.1 0.4z"/><path class="e" d="m221.4 62.6q-0.6-0.2-0.9-0.6-0.3-0.4-0.3-0.9v-0.2q0-0.1 0.1-0.1h0.6q0.2 0 0.2 0.1v0.1q0 0.4 0.4 0.8 0.5 0.3 1.2 0.3 0.7 0 1.1-0.3 0.4-0.3 0.4-0.8 0-0.3-0.2-0.6-0.2-0.2-0.5-0.3-0.3-0.1-0.9-0.3-0.8-0.2-1.3-0.4-0.4-0.2-0.8-0.6-0.3-0.4-0.3-1 0-0.9 0.7-1.4 0.6-0.5 1.7-0.5 0.8 0 1.3 0.3 0.6 0.2 0.9 0.6 0.3 0.5 0.3 1 0 0.1-0.1 0.1h-0.6q-0.2 0-0.2-0.1 0-0.5-0.4-0.8-0.4-0.3-1.2-0.3-0.6 0-1.1 0.3-0.4 0.3-0.4 0.7 0 0.5 0.4 0.7 0.4 0.3 1.3 0.5 0.7 0.2 1.2 0.4 0.5 0.2 0.8 0.6 0.4 0.4 0.4 1 0 0.9-0.7 1.4-0.7 0.5-1.8 0.5-0.8 0-1.3-0.2z"/><path class="f" d="m78.6 8.5h-0.6v58.7h0.6z"/></g></svg>