<svg width="44" height="47" viewBox="0 0 44 47" fill="none" xmlns="http://www.w3.org/2000/svg">
<g clip-path="url(#clip0_855_1511)">
<path d="M15.759 27.5457C15.9033 27.2548 15.9953 26.9959 16.1457 26.7768C16.6827 25.994 17.2343 25.2208 17.7929 24.4536C17.9329 24.2614 17.9776 24.109 17.8676 23.8717C17.5849 23.2595 17.3306 22.6326 17.0883 22.0023C17.0006 21.7745 16.8863 21.6611 16.6371 21.6247C15.7169 21.4905 14.8009 21.3329 13.8832 21.1805C13.0919 21.0489 12.8212 20.7268 12.822 19.9319C12.8229 18.8781 12.8177 17.8252 12.822 16.7714C12.8255 15.999 13.1082 15.6821 13.8703 15.5582C14.7743 15.411 15.6756 15.2509 16.5804 15.1123C16.8649 15.069 17.0126 14.9452 17.1132 14.6603C17.3237 14.0654 17.5694 13.4801 17.841 12.9103C17.9664 12.648 17.9363 12.4748 17.7722 12.2514C17.218 11.4981 16.6827 10.7317 16.1465 9.96542C15.6928 9.31773 15.7332 8.935 16.2943 8.37044C17.0135 7.64655 17.7318 6.92093 18.4493 6.19531C19.0688 5.56926 19.4289 5.5329 20.1335 6.03771C20.8802 6.57284 21.6303 7.10277 22.3658 7.65261C22.5729 7.80761 22.7284 7.83965 22.975 7.72188C23.5679 7.43874 24.19 7.2188 24.7838 6.93738C24.9445 6.86118 25.124 6.66895 25.1567 6.5027C25.3328 5.59784 25.4686 4.68518 25.613 3.77426C25.7487 2.91875 26.0383 2.66418 26.8958 2.66332C27.9415 2.66245 28.9864 2.66072 30.0321 2.66418C30.7582 2.66591 31.0761 2.9404 31.1947 3.6591C31.3459 4.58387 31.5014 5.50779 31.6424 6.43343C31.6853 6.71658 31.7979 6.87504 32.0857 6.97894C32.7027 7.20148 33.2947 7.49502 33.9082 7.72881C34.0474 7.78163 34.2726 7.76518 34.392 7.68378C35.1963 7.13134 35.979 6.54859 36.7747 5.98403C37.3753 5.55714 37.7714 5.59351 38.293 6.11478C39.0655 6.88716 39.8354 7.66214 40.6027 8.43971C41.0813 8.92461 41.1208 9.32812 40.7239 9.90134C40.1679 10.7058 39.6025 11.505 39.0277 12.2955C38.8833 12.4938 38.8696 12.6471 38.9744 12.8748C39.2451 13.461 39.502 14.0568 39.7142 14.6664C39.8165 14.959 39.9772 15.0682 40.2564 15.1114C41.175 15.2543 42.0909 15.4136 43.0086 15.5643C43.7149 15.6803 43.9976 16.0085 43.9993 16.735C44.0028 17.8027 44.0011 18.8712 44.0002 19.9388C43.9993 20.732 43.7476 21.0411 42.9794 21.1727C42.0626 21.3303 41.1458 21.4844 40.2263 21.6213C39.9686 21.6594 39.8328 21.7572 39.7383 22.0135C39.5046 22.6465 39.2416 23.2699 38.9598 23.883C38.8601 24.1003 38.8825 24.2415 39.0165 24.425C39.5845 25.2035 40.1404 25.9914 40.6964 26.7785C41.1243 27.3847 41.0925 27.7968 40.5847 28.3112C39.8268 29.0775 39.0672 29.8429 38.305 30.6058C37.7671 31.1453 37.3779 31.173 36.7549 30.7262C36.0091 30.191 35.2512 29.6706 34.5226 29.1121C34.2502 28.9034 34.0474 28.9121 33.7544 29.055C33.2165 29.3182 32.6597 29.5503 32.0943 29.7486C31.8116 29.8473 31.6879 29.9962 31.6449 30.2828C31.5075 31.1946 31.3485 32.1029 31.2033 33.0139C31.0813 33.7845 30.7668 34.0711 30.0046 34.0746C28.9452 34.0789 27.8857 34.0789 26.8254 34.0746C26.0804 34.072 25.7564 33.7966 25.631 33.0546C25.4746 32.1306 25.3199 31.2067 25.1842 30.2802C25.1447 30.0075 25.0458 29.8577 24.7743 29.759C24.1711 29.539 23.5791 29.2844 22.9948 29.016C22.7594 28.9078 22.5927 28.9069 22.3761 29.0688C21.6174 29.6351 20.8406 30.178 20.0707 30.7296C19.4495 31.1747 19.0663 31.1444 18.5224 30.5997C17.7602 29.8369 16.9929 29.0801 16.2479 28.2999C16.0477 28.0938 15.9265 27.8116 15.759 27.5457ZM38.8679 27.3933C38.2784 26.5647 37.713 25.749 37.1244 24.9506C36.785 24.4891 36.7867 24.064 37.0402 23.5479C37.4441 22.7253 37.8462 21.8871 38.1048 21.0125C38.3136 20.3094 38.6728 19.9795 39.3714 19.8886C40.2908 19.7682 41.2025 19.589 42.1408 19.4314C42.1408 18.7144 42.1408 18.0174 42.1408 17.3039C41.6372 17.2156 41.1595 17.1299 40.6809 17.0476C40.1877 16.9627 39.6962 16.8562 39.1995 16.8043C38.5946 16.7411 38.3179 16.3947 38.1487 15.8362C37.9356 15.1366 37.7259 14.4144 37.3693 13.7858C36.5083 12.2661 36.7936 12.3085 37.5936 11.1474C38.0146 10.536 38.4468 9.93338 38.8258 9.39653C38.2999 8.85881 37.8213 8.36957 37.3264 7.86302C36.5453 8.42672 35.735 8.99389 34.9436 9.58702C34.4994 9.91953 34.0887 9.9178 33.5903 9.68227C32.6881 9.25712 31.7635 8.87353 30.8286 8.52717C30.3457 8.34793 30.0605 8.08469 29.9797 7.56342C29.8233 6.55379 29.6403 5.54762 29.4616 4.50421C28.8584 4.50421 28.2732 4.51374 27.6889 4.49988C27.4449 4.49382 27.3418 4.56136 27.304 4.82459C27.1716 5.73725 26.9972 6.64298 26.8589 7.55477C26.7772 8.09249 26.4739 8.36005 25.973 8.53929C25.0871 8.85534 24.2012 9.19131 23.366 9.61906C22.7757 9.92126 22.3143 9.92386 21.7901 9.51862C21.0323 8.93241 20.24 8.39209 19.5225 7.87601C18.9881 8.39122 18.4871 8.87439 17.9802 9.36276C18.5456 10.1611 19.0989 10.9673 19.6806 11.7535C20.0295 12.2245 20.0458 12.6497 19.7812 13.19C19.3533 14.0637 18.9881 14.9729 18.6633 15.8916C18.4785 16.4146 18.2096 16.7134 17.6537 16.7956C16.6672 16.9411 15.6868 17.1298 14.7107 17.2996C14.7107 18.0373 14.7107 18.7352 14.7107 19.4305C15.747 19.6089 16.7463 19.7899 17.749 19.9492C18.256 20.0297 18.488 20.3406 18.6564 20.8038C18.9846 21.7061 19.3215 22.6118 19.7494 23.4673C20.0398 24.0484 20.0415 24.503 19.6531 25.0173C19.0671 25.7931 18.5206 26.5993 17.9793 27.3613C18.4871 27.8895 18.964 28.3848 19.4547 28.8957C20.2435 28.3276 21.0357 27.7856 21.7953 27.2002C22.3186 26.7976 22.7817 26.7907 23.3694 27.1058C24.1342 27.5154 24.9419 27.8756 25.7711 28.1181C26.5074 28.3337 26.8245 28.7355 26.9104 29.4741C27.0161 30.3841 27.206 31.2838 27.359 32.1869C28.085 32.1869 28.7673 32.1869 29.4667 32.1869C29.6386 31.1738 29.8242 30.1832 29.9694 29.1875C30.0484 28.6437 30.338 28.3727 30.8415 28.1969C31.6759 27.9059 32.5317 27.6288 33.293 27.1933C34.0165 26.7794 34.5638 26.8054 35.198 27.3232C35.8931 27.8912 36.6518 28.3787 37.3745 28.8957C37.884 28.3848 38.3583 27.9059 38.8679 27.3933Z" fill="#575757"/>
<path d="M30.9835 45.1176C30.3202 40.1975 30.95 35.4914 32.9572 30.9333C33.2451 31.0589 33.5157 31.1766 33.7855 31.2961C34.0579 31.4165 34.3294 31.5386 34.5941 31.6572C34.2762 32.5551 33.9479 33.4124 33.667 34.2843C32.5181 37.8484 32.2913 41.4851 32.8636 45.1808C32.8962 45.3947 32.9366 45.6068 32.9692 45.8207C33.0741 46.4969 32.6771 46.9827 31.9974 46.9974C31.554 47.007 31.1098 46.9992 30.6656 46.9992C24.5219 46.9992 18.3782 47.0026 12.2354 46.9896C11.9363 46.9888 11.6029 46.9117 11.3477 46.7619C10.9834 46.548 10.9336 46.1056 11.1175 45.5514C11.7834 43.5425 12.451 41.5345 13.117 39.5256C13.1737 39.3542 13.2209 39.1784 13.2776 38.9888C12.5911 39.0251 11.9458 39.1282 11.3134 39.0779C10.2195 38.9905 9.1111 38.9013 8.05078 38.6415C6.75158 38.3229 6.08222 37.2795 5.67837 36.062C5.23671 34.7303 5.16797 33.3483 5.19804 31.9594C5.20921 31.4554 5.2496 30.9515 5.28053 30.3739C4.92136 30.3739 4.57164 30.3809 4.22278 30.3722C3.65138 30.3584 3.06966 30.3965 2.51028 30.3047C0.458377 29.9678 -0.649206 27.6646 0.403384 25.854C1.07446 24.6989 1.871 23.6182 2.61511 22.5064C3.28705 21.502 3.95384 20.4932 4.64726 19.5035C4.86121 19.1978 4.93167 18.9 4.88785 18.538C4.70311 17.0201 4.79591 15.516 5.13446 14.0258C6.08909 9.82276 8.46924 6.75488 12.3264 4.87329C14.8183 3.65757 17.4777 3.07136 20.2196 2.83843C21.3727 2.74059 22.531 2.69383 23.7305 2.62109C23.7305 3.27831 23.7305 3.87145 23.7305 4.56243C23.294 4.56243 22.8678 4.55551 22.4425 4.5633C19.6336 4.61699 16.8839 5.01703 14.2503 6.04398C12.3969 6.76701 10.7256 7.78876 9.42129 9.32227C7.82909 11.1943 6.9389 13.3946 6.72924 15.8407C6.64159 16.866 6.73869 17.9102 6.78509 18.9432C6.80399 19.3519 6.73525 19.6992 6.50325 20.0403C5.05626 22.1704 3.62302 24.3101 2.17861 26.4428C1.87873 26.8861 1.71719 27.3407 1.96895 27.8576C2.21298 28.3607 2.65034 28.5261 3.17277 28.5279C4.11795 28.5296 5.06314 28.5313 6.00832 28.5322C7.0274 28.533 7.34618 28.8872 7.213 29.9185C7.00936 31.4996 6.93632 33.0799 7.22331 34.6584C7.29033 35.0247 7.39173 35.3875 7.50944 35.7416C7.84455 36.7443 8.67889 36.9972 9.59486 37.1288C11.1458 37.3513 12.6787 37.2059 14.2039 36.9141C14.6318 36.8327 15.0322 36.8006 15.3485 37.1721C15.6509 37.5262 15.583 37.9116 15.449 38.3125C14.7315 40.4703 14.02 42.6298 13.3077 44.7894C13.2768 44.8829 13.2536 44.9782 13.2141 45.1176C19.1343 45.1176 25.0211 45.1176 30.9835 45.1176Z" fill="#575757"/>
<path d="M22.9055 33.166C22.9055 33.7704 22.9055 34.3402 22.9055 34.9489C22.3015 34.9489 21.7137 34.9489 21.0977 34.9489C21.0977 34.354 21.0977 33.773 21.0977 33.166C21.6983 33.166 22.2774 33.166 22.9055 33.166Z" fill="#575757"/>
<path d="M26.55 42.3698C25.9399 42.3698 25.3745 42.3698 24.7773 42.3698C24.7773 41.7594 24.7773 41.1671 24.7773 40.5488C25.3694 40.5488 25.9459 40.5488 26.55 40.5488C26.55 41.1576 26.55 41.7403 26.55 42.3698Z" fill="#575757"/>
<path d="M24.7192 38.6665C24.1297 38.6665 23.554 38.6665 22.9482 38.6665C22.9482 38.0691 22.9482 37.4898 22.9482 36.875C23.5325 36.875 24.1091 36.875 24.7192 36.875C24.7192 37.4595 24.7192 38.0518 24.7192 38.6665Z" fill="#575757"/>
<path d="M39.2354 0.419094C39.4124 0.258037 39.555 0.129019 39.6976 0C39.4407 0.264098 39.2568 0.542051 39.6598 0.845981C39.5876 0.781905 39.5112 0.721292 39.4433 0.652886C39.3737 0.583614 39.3127 0.50655 39.2354 0.419094Z" fill="#575757"/>
<path d="M43.6051 0.0683594C43.7116 0.175731 43.819 0.283102 43.9634 0.427706C43.7864 0.574043 43.6308 0.702196 43.459 0.844203C43.5655 0.608679 44.0252 0.399998 43.6051 0.0683594Z" fill="#575757"/>
<path d="M20.172 18.3467C20.2013 13.7401 23.9098 10.0142 28.4321 10.0471C32.9887 10.0809 36.7024 13.8389 36.6715 18.3839C36.6397 22.9715 32.9234 26.694 28.3934 26.674C23.8273 26.6533 20.1437 22.9221 20.172 18.3467ZM28.4106 11.9148C24.8748 11.9183 22.0143 14.7844 22.0031 18.3363C21.9919 21.9246 24.8842 24.8427 28.4372 24.8279C31.9679 24.8132 34.8095 21.9385 34.8155 18.3762C34.8207 14.7965 31.9602 11.9114 28.4106 11.9148Z" fill="#575757"/>
<path d="M28.3986 22.0834C28.3986 22.6852 28.3986 23.2688 28.3986 23.8499C25.4445 24.043 22.7516 21.1552 22.9793 18.3809C23.5559 18.3809 24.135 18.3809 24.7236 18.3809C24.9702 20.6105 26.1938 21.8427 28.3986 22.0834Z" fill="#575757"/>
<path d="M33.8937 18.3376C33.2854 18.3376 32.7062 18.3376 32.1039 18.3376C31.8659 16.1391 30.6586 14.9078 28.4512 14.6497C28.4512 14.0566 28.4512 13.4617 28.4512 12.8686C31.0796 12.737 33.8963 15.0714 33.8937 18.3376Z" fill="#575757"/>
</g>
<defs>
<clipPath id="clip0_855_1511">
<rect width="44" height="47" fill="white"/>
</clipPath>
</defs>
</svg>
