<svg width="255" height="70" viewBox="0 0 255 70" fill="none" xmlns="http://www.w3.org/2000/svg">
<path d="M56.4147 41.4551C54.6954 53.5496 44.3419 62.8825 31.8641 62.8825C18.1903 62.8825 7.0643 51.6729 7.0643 37.8964C7.0643 24.1198 18.1903 12.9103 31.8641 12.9103V5.78662C23.3545 5.78662 15.3496 9.12563 9.33185 15.1886C3.31412 21.2515 0 29.3166 0 37.8901C0 46.4636 3.31412 54.5287 9.33185 60.5916C15.3496 66.6546 23.3545 69.9936 31.8641 69.9936C40.3736 69.9936 48.3786 66.6546 54.3963 60.5916C55.2 59.782 55.9537 58.9347 56.6639 58.056V41.4551H56.4147Z" fill="url(#paint0_linear_240_33)"/>
<path d="M56.4147 41.4801H63.479V9.34521C63.479 16.7764 60.9872 23.8185 56.4147 29.5111V41.4801Z" fill="#F9A11E"/>
<path d="M31.6149 5.78662V12.904H56.1655H56.4147V29.5049C60.9934 23.8123 63.479 16.7702 63.479 9.33903V5.78662H31.6149Z" fill="#09817F"/>
<mask id="mask0_240_33" style="mask-type:luminance" maskUnits="userSpaceOnUse" x="91" y="12" width="163" height="34">
<path d="M91.9855 44.8381V12.7598H97.1186V40.3443H113.901V44.8381H91.9855ZM121.239 34.1621C121.433 38.8944 123.831 41.6497 127.618 41.6497C130.353 41.6497 132.465 40.2501 133.088 37.8337H138.078C136.639 42.6665 133.237 45.4658 127.625 45.4658C120.286 45.4658 116.449 40.7334 116.449 32.9507C116.449 24.9798 120.523 20.4357 127.481 20.4357C134.72 20.4357 138.414 25.3124 138.414 34.1558H121.239V34.1621ZM133.468 31.0678C133.375 26.7183 130.833 24.302 127.475 24.302C124.024 24.302 121.576 26.8627 121.383 31.0678H133.468ZM143.684 44.8381V21.0696H148.195V25.3187C150.063 21.2579 153.085 20.442 155.963 20.442H157.016V25.4191C156.486 25.325 155.913 25.2748 155.29 25.2748C150.686 25.2748 148.481 28.2686 148.481 32.6181V44.8444H143.684V44.8381ZM177.972 44.8381V30.2017C177.972 25.9024 176.34 24.5467 173.125 24.5467C168.328 24.5467 166.696 27.5908 166.696 32.5177V44.8381H161.9V21.0696H166.503V25.802C167.892 22.1303 170.914 20.442 174.751 20.442C179.405 20.442 182.756 22.9525 182.756 28.6577V44.8444H177.972V44.8381ZM209.381 37.8337C208.042 42.7167 204.348 45.4658 199.551 45.4658C192.069 45.4658 188.332 41.1665 188.332 32.5177C188.332 25.1744 192.312 20.442 199.215 20.442C206.073 20.442 209.718 25.4191 209.718 33.729H191.683C191.826 39.5723 194.561 42.7669 199.401 42.7669C202.516 42.7669 205.014 40.9782 205.874 37.84H209.381V37.8337ZM206.266 31.5072C206.173 26.3355 203.388 23.1973 199.121 23.1973C194.711 23.1973 191.926 26.3857 191.783 31.5072H206.266ZM215.33 44.8381V21.0696H218.495V26.6744C220.171 21.7475 223.771 20.442 227.029 20.442H228.325V23.9191C227.846 23.8689 227.272 23.8249 226.6 23.8249C221.23 23.8249 218.688 27.8857 218.688 32.7185V44.8444H215.33V44.8381ZM250.477 44.8381V29.9569C250.477 24.6911 248.272 23.3354 244.341 23.3354C238.492 23.3354 236.86 27.9736 236.86 33.8232V44.8381H233.502V21.0696H236.716V27.0133C238.056 22.3249 241.706 20.442 245.587 20.442C250.434 20.442 253.835 22.714 253.835 28.9464V44.8444H250.477V44.8381Z" fill="white"/>
</mask>
<g mask="url(#mask0_240_33)">
<path d="M255 0H90.7957V59.0227H255V0Z" fill="url(#paint1_linear_240_33)"/>
</g>
<path d="M92.3592 62.1981C91.7798 61.7399 91.4871 61.1311 91.4871 60.3717V59.9575C91.4871 59.8696 91.5307 59.8257 91.6179 59.8257H92.272C92.3592 59.8257 92.4028 59.8696 92.4028 59.9575V60.3215C92.4028 60.8424 92.6146 61.2567 93.0444 61.5768C93.4681 61.8968 94.0599 62.0538 94.8136 62.0538C95.4989 62.0538 96.0159 61.9094 96.371 61.6207C96.7261 61.332 96.9005 60.9428 96.9005 60.4596C96.9005 60.1458 96.8195 59.8821 96.6513 59.6562C96.4894 59.4303 96.234 59.2231 95.8913 59.0286C95.5487 58.834 95.069 58.6018 94.4461 58.3444C93.7795 58.0746 93.2625 57.8423 92.8949 57.6415C92.5274 57.4406 92.2284 57.1833 92.0041 56.8632C91.7799 56.5431 91.6677 56.1477 91.6677 55.6644C91.6677 54.9113 91.9294 54.3276 92.4464 53.9133C92.9635 53.4991 93.6799 53.292 94.5831 53.292C95.5674 53.292 96.3461 53.5242 96.913 53.9887C97.4799 54.4531 97.7664 55.0682 97.7664 55.8402V56.1352C97.7664 56.223 97.7228 56.267 97.6356 56.267H96.9691C96.8818 56.267 96.8382 56.223 96.8382 56.1352V55.8967C96.8382 55.382 96.6389 54.9552 96.234 54.6226C95.829 54.2899 95.2684 54.1267 94.552 54.1267C93.9228 54.1267 93.4369 54.2585 93.1005 54.5159C92.7641 54.7732 92.5959 55.1498 92.5959 55.6393C92.5959 55.9594 92.6769 56.2293 92.8389 56.4364C93.0008 56.6436 93.2376 56.8318 93.5428 56.9888C93.8481 57.1457 94.3215 57.3465 94.9569 57.5976C95.6048 57.8674 96.1281 58.1122 96.5205 58.3507C96.913 58.5829 97.2369 58.8654 97.4799 59.2043C97.7228 59.5369 97.8474 59.9512 97.8474 60.4345C97.8474 61.1876 97.5733 61.7839 97.0251 62.2295C96.4769 62.6751 95.7107 62.9011 94.7389 62.9011C93.7359 62.8822 92.9448 62.65 92.3592 62.1981Z" fill="#383838"/>
<path d="M107.049 56.5245C107.472 56.945 107.678 57.5099 107.678 58.2128V62.6376C107.678 62.7255 107.634 62.7694 107.547 62.7694H106.868C106.781 62.7694 106.737 62.7255 106.737 62.6376V58.4011C106.737 57.9115 106.588 57.5099 106.288 57.196C105.989 56.8822 105.609 56.7253 105.136 56.7253C104.65 56.7253 104.251 56.8759 103.952 57.1835C103.653 57.4848 103.498 57.8864 103.498 58.376V62.6376C103.498 62.7255 103.454 62.7694 103.367 62.7694H102.688C102.601 62.7694 102.557 62.7255 102.557 62.6376V53.5244C102.557 53.4365 102.601 53.3926 102.688 53.3926H103.367C103.454 53.3926 103.498 53.4365 103.498 53.5244V56.7002C103.498 56.719 103.504 56.7316 103.516 56.7379C103.529 56.7441 103.541 56.7441 103.548 56.7253C103.94 56.173 104.538 55.8968 105.342 55.8968C106.064 55.8968 106.631 56.104 107.049 56.5245Z" fill="#383838"/>
<path d="M116.835 56.4994C117.271 56.9136 117.489 57.4534 117.489 58.1375V62.6439C117.489 62.7318 117.446 62.7757 117.358 62.7757H116.679C116.592 62.7757 116.549 62.7318 116.549 62.6439V62.0916C116.549 62.0727 116.542 62.0602 116.53 62.0539C116.517 62.0476 116.499 62.0476 116.486 62.0665C116.262 62.3364 115.975 62.5372 115.62 62.6753C115.265 62.8134 114.873 62.8824 114.437 62.8824C113.808 62.8824 113.278 62.7192 112.854 62.3991C112.431 62.079 112.213 61.5832 112.213 60.9242C112.213 60.2526 112.456 59.7254 112.935 59.3363C113.421 58.9471 114.088 58.7526 114.954 58.7526H116.492C116.53 58.7526 116.549 58.7337 116.549 58.6961V58.1877C116.549 57.7295 116.424 57.3718 116.169 57.1082C115.913 56.8446 115.521 56.7128 114.991 56.7128C114.568 56.7128 114.219 56.7943 113.951 56.9638C113.683 57.127 113.521 57.3592 113.459 57.6542C113.434 57.7421 113.378 57.786 113.297 57.7735L112.58 57.6793C112.481 57.6605 112.443 57.6228 112.462 57.5726C112.53 57.0705 112.798 56.6625 113.259 56.355C113.72 56.0412 114.3 55.8843 114.991 55.8843C115.789 55.8843 116.405 56.0851 116.835 56.4994ZM115.969 61.6648C116.349 61.4012 116.542 61.0434 116.542 60.5978V59.5497C116.542 59.512 116.524 59.4994 116.486 59.4994H115.091C114.505 59.4994 114.038 59.6187 113.683 59.8635C113.328 60.102 113.153 60.4409 113.153 60.8677C113.153 61.2631 113.29 61.5581 113.558 61.7589C113.826 61.9598 114.181 62.0602 114.617 62.0602C115.141 62.0602 115.589 61.9284 115.969 61.6648Z" fill="#383838"/>
<path d="M127.811 59.3802C127.811 60.0957 127.755 60.648 127.637 61.0434C127.475 61.6146 127.189 62.0665 126.765 62.3928C126.341 62.7192 125.812 62.8824 125.176 62.8824C124.828 62.8824 124.51 62.8134 124.217 62.6753C123.924 62.5372 123.681 62.3364 123.488 62.079C123.469 62.0602 123.457 62.0539 123.445 62.0602C123.432 62.0665 123.426 62.079 123.426 62.0916V65.2423C123.426 65.3302 123.382 65.3741 123.295 65.3741H122.616C122.529 65.3741 122.485 65.3302 122.485 65.2423V56.1228C122.485 56.0349 122.529 55.991 122.616 55.991H123.295C123.382 55.991 123.426 56.0349 123.426 56.1228V56.6876C123.426 56.7065 123.432 56.719 123.445 56.719C123.457 56.7253 123.476 56.719 123.488 56.7002C123.681 56.4429 123.924 56.242 124.211 56.0977C124.497 55.9533 124.821 55.8843 125.176 55.8843C125.799 55.8843 126.316 56.0475 126.74 56.3676C127.164 56.6876 127.45 57.127 127.612 57.6793C127.749 58.1061 127.811 58.6772 127.811 59.3802ZM126.784 60.4032C126.833 60.1585 126.858 59.8133 126.858 59.3802C126.858 58.9597 126.84 58.6333 126.802 58.3948C126.765 58.1563 126.703 57.9429 126.615 57.7609C126.51 57.4408 126.323 57.1835 126.049 56.9952C125.781 56.8069 125.457 56.7128 125.083 56.7128C124.728 56.7128 124.429 56.8069 124.192 56.9952C123.955 57.1835 123.775 57.4345 123.663 57.7484C123.582 57.9241 123.526 58.1375 123.488 58.376C123.451 58.6145 123.432 58.9534 123.432 59.3802C123.432 59.807 123.451 60.1459 123.488 60.3907C123.526 60.6355 123.588 60.8551 123.675 61.0434C123.781 61.3447 123.955 61.5895 124.198 61.7715C124.441 61.9535 124.734 62.0476 125.07 62.0476C125.426 62.0476 125.731 61.9598 125.992 61.7778C126.254 61.602 126.441 61.3635 126.559 61.0685C126.659 60.874 126.734 60.6543 126.784 60.4032Z" fill="#383838"/>
<path d="M132.764 54.5411C132.621 54.3968 132.552 54.221 132.552 54.0076C132.552 53.788 132.621 53.6059 132.764 53.4679C132.907 53.3298 133.082 53.2607 133.294 53.2607C133.505 53.2607 133.686 53.3298 133.823 53.4679C133.966 53.6059 134.035 53.788 134.035 54.0076C134.035 54.221 133.966 54.403 133.823 54.5411C133.68 54.6855 133.505 54.7545 133.294 54.7545C133.082 54.7545 132.901 54.6855 132.764 54.5411ZM132.789 62.625V56.1102C132.789 56.0223 132.833 55.9784 132.92 55.9784H133.599C133.686 55.9784 133.73 56.0223 133.73 56.1102V62.625C133.73 62.7129 133.686 62.7568 133.599 62.7568H132.92C132.833 62.7568 132.789 62.7129 132.789 62.625Z" fill="#383838"/>
<path d="M143.466 56.5246C143.89 56.9451 144.096 57.51 144.096 58.2129V62.6378C144.096 62.7256 144.052 62.7696 143.965 62.7696H143.286C143.198 62.7696 143.155 62.7256 143.155 62.6378V58.4012C143.155 57.9117 143.005 57.51 142.706 57.1962C142.407 56.8824 142.027 56.7254 141.554 56.7254C141.068 56.7254 140.669 56.8761 140.37 57.1836C140.071 57.4849 139.916 57.8866 139.916 58.3761V62.6378C139.916 62.7256 139.872 62.7696 139.785 62.7696H139.106C139.018 62.7696 138.975 62.7256 138.975 62.6378V56.1229C138.975 56.0351 139.018 55.9911 139.106 55.9911H139.785C139.872 55.9911 139.916 56.0351 139.916 56.1229V56.7003C139.916 56.7192 139.922 56.7317 139.934 56.738C139.947 56.7443 139.959 56.7443 139.965 56.7254C140.358 56.1731 140.956 55.897 141.759 55.897C142.482 55.897 143.043 56.1041 143.466 56.5246Z" fill="#383838"/>
<path d="M153.359 55.991H154.038C154.125 55.991 154.169 56.0349 154.169 56.1228V62.5435C154.169 63.5414 153.882 64.2757 153.309 64.7402C152.736 65.2046 151.951 65.4369 150.948 65.4369C150.742 65.4369 150.587 65.4306 150.481 65.4243C150.394 65.418 150.35 65.3678 150.35 65.28L150.375 64.6649C150.375 64.6209 150.387 64.5833 150.412 64.5645C150.437 64.5456 150.468 64.5331 150.506 64.5456L150.867 64.5582C151.689 64.5582 152.287 64.395 152.661 64.0686C153.035 63.7423 153.222 63.2276 153.222 62.5184V62.0225C153.222 62.0037 153.216 61.9912 153.203 61.9912C153.191 61.9849 153.172 61.9912 153.159 62.01C152.748 62.5435 152.169 62.8134 151.415 62.8134C150.836 62.8134 150.325 62.6564 149.877 62.3426C149.428 62.0288 149.129 61.5895 148.979 61.012C148.874 60.648 148.818 60.102 148.818 59.3802C148.818 58.9848 148.83 58.6584 148.849 58.3885C148.867 58.1187 148.917 57.8802 148.986 57.6668C149.148 57.1333 149.434 56.7002 149.852 56.3738C150.269 56.0475 150.767 55.8843 151.353 55.8843C152.144 55.8843 152.742 56.1479 153.147 56.6751C153.166 56.6939 153.178 56.7002 153.191 56.6876C153.203 56.6814 153.209 56.6625 153.209 56.65V56.1291C153.228 56.0349 153.272 55.991 153.359 55.991ZM153.216 60.2275C153.222 60.0329 153.228 59.7442 153.228 59.3676C153.228 58.9095 153.222 58.6082 153.216 58.4513C153.209 58.2944 153.184 58.15 153.147 58.012C153.079 57.6354 152.898 57.3278 152.624 57.0831C152.343 56.8383 151.995 56.7128 151.565 56.7128C151.147 56.7128 150.799 56.832 150.506 57.0768C150.219 57.3153 150.014 57.6291 149.901 58.0182C149.814 58.3069 149.771 58.7526 149.771 59.3614C149.771 60.0141 149.814 60.466 149.901 60.7171C149.989 61.0936 150.182 61.4012 150.481 61.646C150.78 61.8907 151.141 62.0163 151.565 62.0163C152.001 62.0163 152.356 61.897 152.636 61.6522C152.917 61.4137 153.091 61.0999 153.159 60.7296C153.184 60.5853 153.203 60.4221 153.216 60.2275Z" fill="#383838"/>
<path d="M170.777 54.2211H165.893C165.855 54.2211 165.837 54.2399 165.837 54.2713V57.5852C165.837 57.6228 165.855 57.6354 165.893 57.6354H169.313C169.4 57.6354 169.444 57.6793 169.444 57.7672V58.3321C169.444 58.4199 169.4 58.4639 169.313 58.4639H165.893C165.855 58.4639 165.837 58.4827 165.837 58.5203V62.6376C165.837 62.7255 165.793 62.7694 165.706 62.7694H165.027C164.94 62.7694 164.896 62.7255 164.896 62.6376V53.5244C164.896 53.4365 164.94 53.3926 165.027 53.3926H170.777C170.864 53.3926 170.907 53.4365 170.907 53.5244V54.0893C170.907 54.1771 170.864 54.2211 170.777 54.2211Z" fill="#383838"/>
<path d="M179.199 55.9907H179.878C179.965 55.9907 180.009 56.0347 180.009 56.1225V62.6374C180.009 62.7252 179.965 62.7692 179.878 62.7692H179.199C179.112 62.7692 179.068 62.7252 179.068 62.6374V62.0599C179.068 62.0411 179.062 62.0286 179.043 62.0223C179.025 62.016 179.012 62.016 179.006 62.0348C178.632 62.5872 178.04 62.8696 177.237 62.8696C176.813 62.8696 176.421 62.7817 176.059 62.606C175.698 62.4302 175.418 62.1792 175.206 61.8465C174.994 61.5139 174.894 61.1185 174.894 60.654V56.1225C174.894 56.0347 174.938 55.9907 175.025 55.9907H175.704C175.791 55.9907 175.835 56.0347 175.835 56.1225V60.3716C175.835 60.88 175.978 61.288 176.259 61.5829C176.545 61.8842 176.931 62.0286 177.417 62.0286C177.922 62.0286 178.327 61.8779 178.62 61.5704C178.919 61.2691 179.068 60.8674 179.068 60.3653V56.1163C179.062 56.0347 179.112 55.9907 179.199 55.9907Z" fill="#383838"/>
<path d="M187.939 56.7817H186.438C186.4 56.7817 186.382 56.8006 186.382 56.8382V60.7923C186.382 61.2191 186.475 61.5266 186.668 61.6961C186.861 61.8718 187.16 61.9597 187.565 61.9597H187.895C187.983 61.9597 188.026 62.0036 188.026 62.0915V62.6438C188.026 62.7317 187.983 62.7756 187.895 62.7756C187.789 62.7819 187.627 62.7882 187.403 62.7882C186.762 62.7882 186.282 62.6689 185.952 62.4242C185.622 62.1857 185.46 61.7338 185.46 61.081V56.8319C185.46 56.7943 185.441 56.7755 185.404 56.7755H184.594C184.507 56.7755 184.463 56.7315 184.463 56.6437V56.1227C184.463 56.0348 184.507 55.9909 184.594 55.9909H185.404C185.441 55.9909 185.46 55.9721 185.46 55.9344V54.3779C185.46 54.29 185.503 54.2461 185.59 54.2461H186.245C186.332 54.2461 186.375 54.29 186.375 54.3779V55.9344C186.375 55.9721 186.394 55.9909 186.431 55.9909H187.933C188.02 55.9909 188.064 56.0348 188.064 56.1227V56.6437C188.07 56.7378 188.026 56.7817 187.939 56.7817Z" fill="#383838"/>
<path d="M197.028 55.9907H197.707C197.794 55.9907 197.838 56.0347 197.838 56.1225V62.6374C197.838 62.7252 197.794 62.7692 197.707 62.7692H197.028C196.941 62.7692 196.897 62.7252 196.897 62.6374V62.0599C196.897 62.0411 196.891 62.0286 196.872 62.0223C196.853 62.016 196.841 62.016 196.835 62.0348C196.461 62.5872 195.869 62.8696 195.066 62.8696C194.642 62.8696 194.25 62.7817 193.888 62.606C193.527 62.4302 193.247 62.1792 193.035 61.8465C192.829 61.5139 192.723 61.1185 192.723 60.654V56.1225C192.723 56.0347 192.767 55.9907 192.854 55.9907H193.533C193.62 55.9907 193.664 56.0347 193.664 56.1225V60.3716C193.664 60.88 193.807 61.288 194.088 61.5829C194.374 61.8842 194.76 62.0286 195.246 62.0286C195.751 62.0286 196.156 61.8779 196.449 61.5704C196.748 61.2691 196.897 60.8674 196.897 60.3653V56.1163C196.891 56.0347 196.941 55.9907 197.028 55.9907Z" fill="#383838"/>
<path d="M206.354 56.0976C206.422 56.1353 206.453 56.1918 206.435 56.2734L206.291 56.9324C206.266 57.0202 206.204 57.0516 206.117 57.014C205.967 56.9512 205.793 56.9198 205.6 56.9198L205.425 56.9324C204.964 56.9512 204.584 57.1207 204.279 57.447C203.98 57.7734 203.824 58.1876 203.824 58.6897V62.6438C203.824 62.7317 203.781 62.7756 203.694 62.7756H203.015C202.927 62.7756 202.884 62.7317 202.884 62.6438V56.1227C202.884 56.0348 202.927 55.9909 203.015 55.9909H203.694C203.781 55.9909 203.824 56.0348 203.824 56.1227V56.9386C203.824 56.9637 203.831 56.9826 203.843 56.9889C203.855 56.9951 203.868 56.9889 203.874 56.97C204.061 56.6374 204.298 56.38 204.584 56.198C204.871 56.016 205.207 55.9219 205.587 55.9219C205.886 55.9219 206.142 55.9784 206.354 56.0976Z" fill="#383838"/>
<path d="M215.804 59.1794V59.6061C215.804 59.694 215.76 59.7379 215.673 59.7379H211.375C211.337 59.7379 211.318 59.7568 211.318 59.7882C211.337 60.2777 211.362 60.5978 211.399 60.7422C211.499 61.1438 211.705 61.4639 212.022 61.6962C212.34 61.9284 212.751 62.0476 213.243 62.0476C213.617 62.0476 213.947 61.966 214.228 61.7903C214.514 61.6208 214.732 61.3761 214.894 61.0685C214.95 60.9869 215.013 60.9681 215.081 61.012L215.598 61.3196C215.667 61.3635 215.685 61.4263 215.654 61.5079C215.43 61.9347 215.1 62.2736 214.657 62.5184C214.215 62.7631 213.704 62.8887 213.125 62.8887C212.496 62.8824 211.966 62.7255 211.543 62.4305C211.119 62.1355 210.814 61.7213 210.627 61.2003C210.465 60.7735 210.39 60.1522 210.39 59.3488C210.39 58.9722 210.396 58.671 210.409 58.4325C210.421 58.194 210.453 57.9806 210.509 57.7986C210.658 57.2149 210.963 56.7504 211.418 56.4052C211.873 56.06 212.427 55.8843 213.075 55.8843C213.885 55.8843 214.502 56.0914 214.938 56.4994C215.374 56.9136 215.642 57.491 215.748 58.2442C215.785 58.489 215.804 58.8028 215.804 59.1794ZM211.991 57.058C211.705 57.2839 211.512 57.5914 211.424 57.9743C211.368 58.1626 211.337 58.4639 211.318 58.8844C211.318 58.922 211.337 58.9409 211.375 58.9409H214.819C214.857 58.9409 214.876 58.922 214.876 58.8844C214.857 58.4827 214.832 58.194 214.795 58.0245C214.695 57.6228 214.502 57.3027 214.203 57.0642C213.904 56.8257 213.53 56.7065 213.081 56.7065C212.639 56.7128 212.278 56.8257 211.991 57.058Z" fill="#383838"/>
<path d="M221.367 62.6C220.98 62.4431 220.681 62.2234 220.476 61.9598C220.27 61.6899 220.164 61.3949 220.164 61.0623V60.8991C220.164 60.8112 220.208 60.7673 220.295 60.7673H220.937C221.024 60.7673 221.068 60.8112 221.068 60.8991V61.0058C221.068 61.3008 221.223 61.5581 221.529 61.7778C221.834 61.9974 222.22 62.1041 222.681 62.1041C223.142 62.1041 223.516 61.9974 223.796 61.7903C224.077 61.5832 224.22 61.3133 224.22 60.9932C224.22 60.7736 224.145 60.5853 224.002 60.4409C223.859 60.2966 223.684 60.1836 223.485 60.1083C223.285 60.0267 222.974 59.9262 222.563 59.8007C222.064 59.6564 221.66 59.5183 221.342 59.3739C221.024 59.2296 220.756 59.035 220.538 58.7777C220.32 58.5204 220.214 58.2003 220.214 57.8048C220.214 57.2337 220.439 56.7755 220.881 56.4366C221.323 56.0977 221.909 55.9282 222.638 55.9282C223.123 55.9282 223.56 56.0098 223.933 56.1667C224.313 56.3299 224.6 56.5496 224.805 56.832C225.011 57.1145 225.111 57.4283 225.111 57.7797V57.8174C225.111 57.9053 225.067 57.9492 224.98 57.9492H224.357C224.27 57.9492 224.226 57.9053 224.226 57.8174V57.7797C224.226 57.4785 224.083 57.2211 223.796 57.014C223.51 56.8069 223.117 56.7065 222.631 56.7065C222.177 56.7065 221.815 56.8006 221.541 56.9826C221.267 57.1647 221.13 57.4157 221.13 57.7421C221.13 58.0433 221.261 58.2756 221.529 58.4388C221.797 58.6019 222.208 58.7588 222.768 58.922C223.285 59.0727 223.703 59.217 224.02 59.3488C224.338 59.4806 224.612 59.6752 224.843 59.9325C225.073 60.1899 225.192 60.5225 225.192 60.9305C225.192 61.5142 224.967 61.9786 224.513 62.3238C224.058 62.6753 223.46 62.8447 222.719 62.8447C222.195 62.8385 221.753 62.7569 221.367 62.6Z" fill="#383838"/>
<path d="M78.6168 8.54834H78.0375V67.2321H78.6168V8.54834Z" fill="#575757"/>
<defs>
<linearGradient id="paint0_linear_240_33" x1="28.3324" y1="5.78719" x2="28.3324" y2="69.9973" gradientUnits="userSpaceOnUse">
<stop stop-color="#2964AC"/>
<stop offset="1" stop-color="#253976"/>
</linearGradient>
<linearGradient id="paint1_linear_240_33" x1="90.7965" y1="29.511" x2="255.003" y2="29.511" gradientUnits="userSpaceOnUse">
<stop stop-color="#076766"/>
<stop offset="1" stop-color="#0D93B1"/>
</linearGradient>
</defs>
</svg>
