<svg width="15" height="13" viewBox="0 0 15 13" fill="none" xmlns="http://www.w3.org/2000/svg">
<path d="M13.6875 7.71851L8.6875 12.7185C8.5 12.906 8.25 12.9998 8 12.9998C7.71875 12.9998 7.46875 12.906 7.28125 12.7185C6.875 12.3435 6.875 11.6873 7.28125 11.3123L10.5625 7.99976H1C0.4375 7.99976 0 7.56226 0 6.99976C0 6.46851 0.4375 5.99976 1 5.99976H10.5625L7.28125 2.71851C6.875 2.34351 6.875 1.68726 7.28125 1.31226C7.65625 0.906006 8.3125 0.906006 8.6875 1.31226L13.6875 6.31226C14.0938 6.68726 14.0938 7.34351 13.6875 7.71851Z" fill="white"/>
</svg>
